<svg width="44" height="43" viewBox="0 0 44 43" fill="none" xmlns="http://www.w3.org/2000/svg">
<g clip-path="url(#clip0)">
<path d="M16.6084 3.24411C16.9893 2.83419 17.7793 2.06027 18.4233 1.41619C18.8322 1.00727 19.5353 1.11217 19.7926 1.62565C20.307 2.65194 20.786 4.04566 20.9349 4.7817L17.3952 10.1202L16.6084 3.24411Z" fill="#9FB847"/>
<path d="M21.9287 5.40246C22.0034 4.77543 21.93 4.00109 21.4845 3.74108C21.1143 3.5249 20.6796 3.78156 20.3307 4.06585C19.5464 4.70522 18.8481 5.51844 18.2698 6.45285C18.1052 5.29345 17.789 4.17284 17.3315 3.15738C17.1281 2.70588 16.8382 2.22969 16.4291 2.20987C15.937 2.18602 15.5832 2.83094 15.4156 3.42983C15.0036 4.90317 15.1016 6.53676 15.4578 8.01547C15.814 9.49427 16.4139 10.8484 17.0093 12.1898C17.0582 12.1676 17.1056 12.1414 17.1522 12.113C17.1827 12.1644 17.2141 12.215 17.2489 12.2623C18.2771 11.4128 19.3141 10.5542 20.1815 9.44606C21.0488 8.33806 21.7448 6.94492 21.9287 5.40246Z" fill="#80A446"/>
<path d="M22.1695 8.72616C22.2762 7.99449 22.1152 7.05974 21.2294 6.97248C20.9494 6.94485 20.6691 7.01791 20.4251 7.15481C19.25 7.814 18.2121 8.69979 17.3734 9.73893C17.1173 8.43935 16.6124 7.18647 15.8786 6.07317C15.7263 5.84196 15.5117 5.65123 15.2501 5.55003C14.4223 5.22963 13.8398 5.98742 13.5903 6.68517C13.0649 8.15473 13.2115 9.78999 13.6958 11.273C13.9778 12.1364 14.5721 13.7058 14.5721 13.7058L7.96471 40.2304C7.73457 41.1543 8.31431 42.0855 9.25971 42.3104C10.205 42.5353 11.1579 41.9688 11.388 41.0448L17.9956 14.5201C17.9956 14.5201 19.2616 13.3933 19.9181 12.7531C21.0455 11.6536 21.945 10.2674 22.1695 8.72616Z" fill="#517F46"/>
<path opacity="0.1" d="M15.0476 26.3533C13.4684 27.5676 11.9401 28.8452 10.4678 30.1818L7.96466 40.23C7.88534 40.5488 7.90416 40.8676 7.99938 41.1588C9.26808 40.6172 10.528 40.0559 11.7787 39.4757L15.0476 26.3533Z" fill="#272727"/>
<path d="M33.9633 9.85251C34.5879 9.68202 35.9659 9.35801 36.9271 9.11899C37.3046 9.02509 37.6662 9.31266 37.6532 9.69311C37.6132 10.863 37.2859 12.5423 36.9783 13.3269L29.9551 16.7331L33.9633 9.85251Z" fill="#9FB847"/>
<path d="M37.3582 14.3996C37.7629 13.9076 38.1224 13.2138 37.8869 12.7621C37.6912 12.3864 37.1833 12.3777 36.7332 12.437C35.721 12.5704 34.6868 12.8958 33.6884 13.3861C34.1804 12.3189 34.5229 11.2057 34.6886 10.1081C34.7622 9.62006 34.776 9.0661 34.4405 8.83657C34.0369 8.56043 33.3862 8.92249 32.9182 9.34241C31.767 10.3755 30.9605 11.8095 30.4569 13.2468C29.9533 14.684 29.7237 16.1426 29.4973 17.5877C29.5508 17.5942 29.6052 17.5968 29.6601 17.597C29.6579 17.6565 29.657 17.7157 29.6607 17.7738C30.9937 17.5893 32.3392 17.4017 33.677 16.9146C35.0148 16.4274 36.3627 15.61 37.3582 14.3996Z" fill="#80A446"/>
<path d="M29.0633 20.0733C29.0633 20.0733 30.7488 19.7778 31.6532 19.5772C33.3784 19.1946 35.0579 18.3661 36.0754 16.9267C36.2813 16.6353 36.3698 16.2733 36.2857 15.9289C36.1102 15.211 35.3468 15.092 34.6996 15.0931C33.4891 15.0953 32.2808 15.3054 31.1404 15.7019C31.6312 14.4684 31.8859 13.145 31.8709 11.8208C31.8678 11.5459 31.7901 11.2728 31.6238 11.051C31.0974 10.3492 30.1915 10.6878 29.6004 11.1488C28.3553 12.1198 27.5891 13.5804 27.1914 15.0878C26.96 15.9654 26.6086 17.6033 26.6086 17.6033L6.57061 36.624C5.87271 37.2865 5.85647 38.3764 6.53435 39.0585C7.21222 39.7405 8.32752 39.7564 9.02542 39.0939L29.0633 20.0733Z" fill="#517F46"/>
<path d="M38.4712 12.4715C38.3815 12.2995 38.2317 12.1103 37.9854 11.9714C38.3261 10.9691 38.4267 9.89637 38.2744 8.84925C38.2477 8.66658 38.1418 8.50399 37.9838 8.40304C37.8255 8.302 37.6306 8.27261 37.449 8.32241L35.2759 8.91559C35.1914 8.68581 35.0491 8.47106 34.8163 8.31191C34.6132 8.173 34.3684 8.0996 34.1082 8.0996C33.4348 8.0996 32.7957 8.58268 32.4747 8.87075C32.0526 9.24968 31.6868 9.66616 31.3683 10.0954C31.2684 10.0616 31.1643 10.0373 31.0563 10.0233C30.2333 9.91577 29.4778 10.4247 29.1913 10.6483C27.6242 11.8703 26.8936 13.6502 26.5564 14.9281C26.3686 15.6404 26.1089 16.8182 26.0083 17.2799L15.4971 27.2576L18.5851 14.8614C18.9413 14.5425 19.8481 13.7262 20.381 13.2068C21.3369 12.2746 22.5357 10.7564 22.8185 8.81658C22.8702 8.46174 22.9353 7.56747 22.4233 6.92877C22.3856 6.88174 22.3453 6.83782 22.3033 6.79608C22.4276 6.38136 22.5245 5.94111 22.5798 5.47693C22.6415 4.95908 22.691 3.6994 21.8209 3.19163C21.6263 3.07791 21.4122 3.0203 21.1847 3.0203C21.1689 3.0203 21.1533 3.02147 21.1376 3.02198C20.8805 1.99577 20.3813 1.03465 19.6818 0.227057C19.5598 0.0862148 19.3817 0.00357397 19.1929 0.000382553C19.003 -0.00348074 18.8231 0.0737011 18.6961 0.21026L17.1793 1.84267C16.9827 1.69208 16.7453 1.58433 16.4616 1.57056C15.7072 1.5347 15.0922 2.15711 14.7835 3.26142C14.6321 3.80253 14.5493 4.34633 14.5135 4.87619C13.8521 5.03047 13.2795 5.6124 12.9716 6.47391C12.3104 8.32333 12.6608 10.2104 13.0713 11.4678C13.3002 12.1686 13.7216 13.3008 13.888 13.7439L8.98079 33.4432L6.11383 36.1646C5.65071 36.6042 5.39049 37.1938 5.38112 37.8247C5.37175 38.4556 5.61427 39.0524 6.06407 39.5049C6.40593 39.8489 6.83656 40.078 7.3069 40.1723C7.18616 40.7561 7.29263 41.3538 7.6112 41.8655C7.94679 42.4046 8.47711 42.7835 9.10437 42.9328C9.29249 42.9775 9.48525 43.0001 9.67757 43.0001C9.67766 43.0001 9.67757 43.0001 9.67766 43.0001C10.7949 43.0001 11.7602 42.2584 12.0248 41.1964L13.3483 35.8834L21.7637 27.8953C22.0235 27.6488 22.0294 27.2433 21.7772 26.9895C21.5249 26.7358 21.1099 26.7299 20.8502 26.9763L8.56872 38.6343C8.35671 38.8354 8.07492 38.9431 7.78196 38.9397C7.48651 38.9355 7.21056 38.8192 7.00466 38.6121C6.79883 38.405 6.6878 38.1319 6.6921 37.8432C6.6964 37.5545 6.81542 37.2847 7.02734 37.0835L27.0653 18.0629C27.1589 17.974 27.2235 17.8597 27.2502 17.7349C27.2536 17.7187 27.6012 16.1011 27.8262 15.2479C28.1134 14.1591 28.7252 12.651 30.0093 11.6497C30.3181 11.4088 30.669 11.2645 30.8835 11.2934C30.9464 11.3016 31.0155 11.3237 31.095 11.4298C31.171 11.5311 31.2137 11.6725 31.2154 11.8279C31.2292 13.0481 30.9918 14.3074 30.5293 15.4697C30.4364 15.7033 30.4913 15.9684 30.67 16.1482C30.8487 16.3279 31.1182 16.3893 31.36 16.3054C32.4451 15.9281 33.5692 15.7357 34.7009 15.7337C34.7037 15.7337 34.7064 15.7337 34.7092 15.7337C35.5641 15.7337 35.6231 15.9746 35.6483 16.0776C35.6859 16.2317 35.6451 16.4084 35.5362 16.5626C34.9639 17.3722 33.8005 18.4441 31.5082 18.9525C30.6289 19.1475 28.9644 19.4399 28.9477 19.4428C28.8192 19.4654 28.7005 19.5249 28.6067 19.6138L23.113 24.8286C22.8532 25.0751 22.8473 25.4806 23.0995 25.7344C23.3518 25.9883 23.7669 25.9941 24.0264 25.7476L29.3769 20.6689C29.8522 20.5842 31.0644 20.3647 31.7984 20.2019C33.2908 19.8709 35.338 19.097 36.6148 17.2907C36.9348 16.8379 37.0473 16.2873 36.9233 15.7798C36.9226 15.7765 36.9215 15.7736 36.9207 15.7704C37.2504 15.4851 37.5706 15.1638 37.8691 14.801C38.2035 14.3947 38.9311 13.3542 38.4712 12.4715ZM11.5812 37.5609L10.751 40.8934C10.6298 41.3794 10.1885 41.719 9.67783 41.7189C9.58992 41.7189 9.5014 41.7085 9.41469 41.688C9.12766 41.6196 8.88497 41.4463 8.73149 41.1996C8.578 40.9529 8.53185 40.6626 8.60181 40.3821L8.6825 40.0583C8.97692 39.9452 9.24849 39.7755 9.48232 39.5535L11.5812 37.5609ZM19.13 1.64925C19.5121 2.23311 19.7815 2.88508 19.9197 3.56729C19.9169 3.56947 19.914 3.57191 19.9111 3.57418C19.4497 3.95026 19.0176 4.37934 18.6184 4.85729C18.4432 4.18399 18.2169 3.53756 17.9419 2.92372C17.9559 2.91103 17.9697 2.89802 17.9828 2.88391L19.13 1.64925ZM16.4031 2.87627C16.4622 2.93245 16.5779 3.07438 16.7317 3.41578C17.1632 4.37371 17.4622 5.4252 17.6206 6.54118C17.6588 6.80993 17.8659 7.02594 18.1377 7.08062C18.4098 7.13537 18.6871 7.01679 18.8309 6.78465C19.3792 5.8987 20.0252 5.14956 20.7507 4.55814C20.9877 4.36497 21.1147 4.31719 21.1624 4.30535C21.2407 4.39765 21.345 4.76373 21.2776 5.3287C21.2361 5.67732 21.1666 6.01082 21.0772 6.32795C20.7446 6.33408 20.4067 6.42654 20.0987 6.59922C19.221 7.09153 18.4199 7.69589 17.7061 8.4032C17.4049 7.45451 16.9776 6.55781 16.4297 5.7262C16.2632 5.47357 16.0524 5.26781 15.8111 5.1163C15.8348 4.61718 15.9067 4.10462 16.048 3.59887C16.1612 3.19499 16.3154 2.96235 16.4031 2.87627ZM15.2092 13.8572C15.2401 13.7331 15.2325 13.6029 15.187 13.4832C15.1812 13.4676 14.5947 11.9179 14.3205 11.078C13.9708 10.0068 13.6675 8.41169 14.2093 6.89627C14.3686 6.45073 14.6511 6.11488 14.8665 6.11488C14.9083 6.11488 14.9562 6.12521 15.0089 6.14545C15.1283 6.19164 15.2415 6.28923 15.3276 6.41991C16.0036 7.44578 16.4885 8.63534 16.73 9.86C16.7784 10.1061 16.9694 10.3019 17.2185 10.3612C17.4679 10.4203 17.7296 10.3323 17.8883 10.1355C18.6787 9.15629 19.6687 8.31771 20.7514 7.71033C20.8902 7.63248 21.0345 7.59678 21.1637 7.60972C21.2976 7.6229 21.3523 7.66985 21.3913 7.71865C21.5243 7.8846 21.5763 8.25321 21.5206 8.63559C21.2889 10.225 20.2694 11.5054 19.4549 12.2995C18.8167 12.9218 17.5667 14.035 17.554 14.0463C17.4575 14.1322 17.3894 14.2444 17.3585 14.3684L13.7298 28.935L10.7479 31.7654L15.2092 13.8572ZM37.0326 9.76644C37.0381 10.4595 36.9112 11.1515 36.6567 11.801C36.6529 11.8016 36.6495 11.8018 36.6457 11.8023C36.0502 11.8808 35.4508 12.0192 34.8523 12.2164C35.0708 11.5551 35.2313 10.89 35.3329 10.2275C35.3516 10.2241 35.3702 10.2203 35.3888 10.2152L37.0326 9.76644ZM36.8474 13.9983C36.6195 14.2753 36.3757 14.5238 36.1239 14.7478C35.6946 14.5187 35.1699 14.4524 34.7073 14.4524C34.7043 14.4524 34.7014 14.4524 34.6984 14.4524C33.8407 14.454 32.9874 14.552 32.1492 14.7445C32.4109 13.7844 32.5376 12.8031 32.5265 11.8138C32.5231 11.5138 32.457 11.2305 32.3355 10.9771C32.6274 10.5665 32.9662 10.1692 33.3616 9.81431C33.6639 9.54313 33.9224 9.4179 34.0559 9.38809C34.0753 9.46687 34.0955 9.64727 34.04 10.0147C33.8838 11.0499 33.5644 12.0956 33.0908 13.123C32.9767 13.3704 33.0344 13.661 33.2348 13.8488C33.4351 14.0364 33.7348 14.0804 33.9828 13.9586C34.9295 13.4937 35.8843 13.1953 36.8208 13.0719C36.9307 13.0574 37.0243 13.0504 37.1067 13.0504C37.2173 13.0504 37.2783 13.0634 37.3071 13.0723C37.3227 13.1917 37.2115 13.5557 36.8474 13.9983Z" fill="black"/>
</g>
<defs>
<clipPath id="clip0">
<path d="M0 0H44V43H0V0Z" fill="white"/>
</clipPath>
</defs>
</svg>
