<svg width="41" height="42" viewBox="0 0 41 42" fill="none" xmlns="http://www.w3.org/2000/svg">
<path d="M1.98396 23.7095C1.25647 23.7095 0.661377 24.3191 0.661377 25.0643V26.4192C0.661377 27.1644 1.25647 27.774 1.98396 27.774H23.8065C24.4875 26.094 25.7904 24.6714 27.113 23.7161V23.7095H1.98396Z" fill="#AAB2BD"/>
<path d="M33.7258 16.509C33.7258 18.7172 32.9851 20.7429 31.7545 22.3551C31.7477 22.3551 31.7477 22.3551 31.7419 22.3551C31.6296 22.3551 31.5237 22.3551 31.4113 22.3617C29.8507 22.4229 28.3958 22.9111 27.1591 23.7165V23.7099H18.4764C17.087 22.4973 16.0489 20.8851 15.5461 19.0424C16.1487 18.5479 16.5323 17.7891 16.5323 16.9357C16.5323 16.0076 16.076 15.1813 15.375 14.7004C15.818 12.3496 17.1141 10.3107 18.9062 8.92179C20.6456 7.58745 23.1187 7.98703 24.4677 9.72788C25.8497 7.95329 28.3693 7.61458 30.1284 9.00316C32.3173 10.7374 33.7258 13.4537 33.7258 16.509Z" fill="#FF826E"/>
<path d="M31.7546 22.355C36.4967 22.3616 40.3388 26.3044 40.3388 31.1614C40.3388 36.0254 36.4902 39.9679 31.742 39.9679C30.6839 39.9679 29.6655 39.7578 28.7265 39.399C29.0639 39.134 29.3878 38.8433 29.692 38.5317L23.1776 31.8322C23.165 31.6086 23.1453 31.385 23.1453 31.1614C23.1453 29.9624 23.3832 28.8176 23.8066 27.7743C24.4875 26.0943 25.6713 24.6717 27.1592 23.7164C28.3959 22.911 29.8502 22.4228 31.4114 22.3616C31.5238 22.355 31.6297 22.355 31.742 22.355H31.7546Z" fill="#FFEAA7"/>
<path d="M23.1781 31.8322L29.6925 38.5316C29.3883 38.8432 29.0645 39.1346 28.727 39.3989C27.0799 40.679 25.1093 41.3227 23.1387 41.3227V41.316L23.1451 31.8388L23.1648 31.8186L23.1781 31.8322Z" fill="#FF826E"/>
<path d="M23.1453 31.8386L16.5986 38.5315C14.7939 36.6821 13.8937 34.2569 13.8872 31.832H13.8937L23.1453 31.8386Z" fill="#FF826E"/>
<path d="M23.1386 41.3161V41.3227C22.9204 41.3227 22.7021 41.3161 22.4838 41.2956C20.3411 41.1405 18.2384 40.2117 16.5984 38.5317L23.1451 31.8389L23.1386 41.3161Z" fill="#FF826E"/>
<path d="M19.2303 27.7741L23.1648 31.8185L23.1451 31.8386L13.8935 31.832H13.8871C13.8806 30.4431 14.1715 29.0539 14.7466 27.7741C15.1971 26.7917 15.8115 25.8705 16.5984 25.0645L19.2303 27.7741Z" fill="#FF826E"/>
<path d="M12.5647 4.74194H16.5324C16.5324 5.86656 16.0894 6.88269 15.3687 7.61436C14.6544 8.35264 13.6625 8.80646 12.5647 8.80646H8.59692C8.59692 7.68184 9.03994 6.66571 9.76064 5.93404C10.4749 5.19576 11.4668 4.74194 12.5647 4.74194Z" fill="#B4DD7F"/>
<path d="M28.4355 0.67749H32.4033C32.4033 1.80211 31.9602 2.81824 31.2395 3.54991C30.5253 4.28819 29.5334 4.74201 28.4355 4.74201H24.4678C24.4678 3.61738 24.9108 2.60126 25.6315 1.86959C26.3457 1.13131 27.3377 0.67749 28.4355 0.67749Z" fill="#B4DD7F"/>
<path d="M8.59686 11.5162H4.62912C2.44021 11.5162 0.661377 9.69396 0.661377 7.45166H4.62912C6.81803 7.45166 8.59686 9.27388 8.59686 11.5162Z" fill="#B4DD7F"/>
<path d="M11.2419 16.9351C11.2419 18.2965 12.2206 19.4281 13.5035 19.611C13.7414 20.0172 13.8871 20.4849 13.8871 20.9996C13.8871 22.4966 12.7033 23.7093 11.2419 23.7093C9.78047 23.7093 8.59674 22.4966 8.59674 20.9996C8.59674 20.4849 8.45111 20.0172 8.21313 19.611C8.33874 19.6381 8.46435 19.6447 8.59674 19.6447C10.0582 19.6447 11.2419 18.4321 11.2419 16.9351Z" fill="#AC92EC"/>
<path d="M8.21322 19.6112C6.93036 19.4283 5.95166 18.2967 5.95166 16.9353C5.95166 15.4382 7.13539 14.2256 8.59682 14.2256C10.0582 14.2256 11.242 15.4382 11.242 16.9353C11.242 18.4323 10.0582 19.6449 8.59682 19.6449C8.46443 19.6449 8.33883 19.6383 8.21322 19.6112Z" fill="#AC92EC"/>
<path d="M5.9518 16.9351C5.9518 18.2965 6.9305 19.4281 8.21336 19.611C8.45134 20.0172 8.59696 20.4849 8.59696 20.9996C8.59696 22.4966 7.41323 23.7093 5.9518 23.7093C4.49038 23.7093 3.30664 22.4966 3.30664 20.9996C3.30664 20.4849 3.45227 20.0172 3.69024 19.611C4.97246 19.4281 5.9518 18.2965 5.9518 16.9351Z" fill="#AC92EC"/>
<path d="M13.5035 19.6112C12.2206 19.4283 11.2419 18.2967 11.2419 16.9353C11.2419 15.4382 12.4257 14.2256 13.8871 14.2256C14.436 14.2256 14.9517 14.4016 15.375 14.6999C16.076 15.1809 16.5323 16.0071 16.5323 16.9353C16.5323 17.7887 16.1487 18.5474 15.5468 19.0419C15.0905 19.4147 14.5155 19.6449 13.8871 19.6449C13.7547 19.6449 13.6291 19.6383 13.5035 19.6112Z" fill="#AC92EC"/>
<path d="M3.69014 19.6112C3.56453 19.6383 3.43893 19.6449 3.30654 19.6449C1.84511 19.6449 0.661377 18.4323 0.661377 16.9353C0.661377 15.4382 1.84511 14.2256 3.30654 14.2256C4.76796 14.2256 5.9517 15.4382 5.9517 16.9353C5.9517 18.2967 4.97236 19.4283 3.69014 19.6112Z" fill="#AC92EC"/>
<path d="M23.145 31.1615C23.145 31.3851 23.1647 31.6087 23.1779 31.8323L23.1647 31.8181L19.2302 27.7744H23.8063C23.383 28.8177 23.145 29.9625 23.145 31.1615Z" fill="#E6E9ED"/>
<path d="M22.4839 41.2957V41.3228H13.8871C7.31393 41.3228 1.98389 35.8628 1.98389 29.1293V27.7744H14.7467C14.1716 29.0548 13.8807 30.4434 13.8871 31.8323C13.8936 34.2572 14.7932 36.6824 16.5985 38.5318C18.2385 40.2117 20.3412 41.1399 22.4839 41.2957Z" fill="#E6E9ED"/>
<path d="M35.6733 26.9269L34.7979 25.9121C33.9542 26.6762 32.8689 27.0969 31.742 27.0969C30.6151 27.0969 29.5299 26.6762 28.6862 25.9121L27.8108 26.9269C28.8957 27.91 30.2926 28.4518 31.742 28.4518C33.1915 28.4518 34.5884 27.91 35.6733 26.9269Z" fill="black"/>
<path d="M30.4193 16.506C30.4193 16.636 30.4155 16.7653 30.4074 16.894L31.7274 16.976C31.7367 16.8209 31.7419 16.6638 31.7419 16.506C31.7419 14.1823 30.7103 12.033 28.9124 10.6097C28.6386 10.3927 28.3018 10.1611 27.7742 10.1611V11.516C27.8488 11.516 27.8946 11.516 28.1035 11.6814C29.5756 12.8463 30.4193 14.6057 30.4193 16.506Z" fill="black"/>
<path d="M32.9476 21.7674C33.8879 20.1856 34.3871 18.3919 34.3871 16.5068C34.3871 13.337 32.9812 10.4064 30.5298 8.46576C28.9327 7.20155 26.7619 7.16913 25.129 8.22529V5.41935H28.4355C30.9873 5.41935 33.0645 3.29217 33.0645 0.677419V0H28.4355C25.8836 0 23.8065 2.12719 23.8065 4.74194V8.22264C22.2023 7.17873 20.0754 7.18005 18.5123 8.38306C16.7638 9.72897 15.5126 11.6084 14.9252 13.7366C14.5968 13.6235 14.252 13.5484 13.8871 13.5484C12.8018 13.5484 11.8451 14.0945 11.2419 14.9241C10.7644 14.2672 10.0689 13.7862 9.25807 13.6169V9.48387H12.5645C15.1164 9.48387 17.1935 7.35668 17.1935 4.74194V4.06452H12.5645C10.1983 4.06452 8.24353 5.89434 7.97133 8.24414C7.12792 7.34047 5.94289 6.77419 4.62903 6.77419H0V7.45161C0 10.0664 2.07719 12.1935 4.62903 12.1935H7.93548V13.6169C7.12469 13.7862 6.42918 14.2672 5.95161 14.9241C5.34844 14.0945 4.3917 13.5484 3.30645 13.5484C1.48338 13.5484 0 15.068 0 16.9355C0 18.6026 1.18438 19.9839 2.73428 20.2637C2.68036 20.5062 2.64516 20.7519 2.64516 21C2.64516 21.7654 2.9038 22.4647 3.32357 23.0323H1.98387C0.890223 23.0323 0 23.9442 0 25.0645V26.4194C0 27.3012 0.554735 28.0464 1.32258 28.3269V29.129C1.32258 36.2264 6.95872 42 13.8871 42H22.4839V41.9669C22.7034 41.9818 22.923 42 23.1452 42C25.2117 42 27.1778 41.3464 28.8343 40.1474C29.7833 40.4718 30.7587 40.6452 31.7419 40.6452C36.8472 40.6452 41 36.3911 41 31.1613C41 26.3515 37.4833 22.3757 32.9476 21.7674ZM28.4355 1.35484H31.6751C31.3683 2.89855 30.0325 4.06452 28.4355 4.06452H25.1959C25.5026 2.52081 26.8384 1.35484 28.4355 1.35484ZM12.5645 5.41935H15.8041C15.4967 6.96306 14.1616 8.12903 12.5645 8.12903H9.3249C9.63165 6.58532 10.9675 5.41935 12.5645 5.41935ZM4.62903 10.8387C3.03199 10.8387 1.69617 9.67274 1.38942 8.12903H4.62903C6.22607 8.12903 7.56189 9.295 7.86864 10.8387H4.62903ZM19.3063 9.46568C20.6766 8.41217 22.6492 8.66951 23.8065 10.0002V11.5161H25.129V10.0022C26.3076 8.65331 28.3176 8.42772 29.7209 9.53812C31.8459 11.2201 33.0645 13.7598 33.0645 16.5068C33.0645 18.1974 32.6037 19.8049 31.7326 21.2094C31.2518 19.9515 30.5246 18.7951 29.5643 17.812L28.6292 18.7699C29.4749 19.6362 30.11 20.6586 30.5246 21.7697C29.2482 21.9424 28.0558 22.382 26.998 23.0329H18.7289C17.5981 21.9903 16.7657 20.6897 16.2988 19.2373C16.8497 18.631 17.1935 17.8263 17.1935 16.9355C17.1935 15.9498 16.7738 15.0693 16.1157 14.4501C16.5807 12.4651 17.6976 10.7044 19.3063 9.46568ZM9.25807 21C9.25807 20.7519 9.22287 20.5062 9.16895 20.2637C10.0165 20.1112 10.7479 19.6276 11.2419 18.9469C11.6804 19.5502 12.3072 19.9941 13.0359 20.1946C13.1506 20.4532 13.2258 20.7208 13.2258 21C13.2258 22.1203 12.3356 23.0323 11.2419 23.0323C10.1483 23.0323 9.25807 22.1203 9.25807 21ZM8.61389 23.0323H8.58031C8.58547 23.0247 8.59225 23.0187 8.59742 23.0114C8.60194 23.0187 8.60808 23.0247 8.61389 23.0323ZM14.5484 21C14.5484 20.7519 14.5132 20.5062 14.4593 20.2637C14.7079 20.219 14.9497 20.1532 15.1761 20.0543C15.5739 21.1396 16.1525 22.1435 16.8881 23.0323H13.8706C14.2897 22.4647 14.5484 21.7654 14.5484 21ZM16.6169 26.0426L21.5911 31.16L14.58 31.1537C14.7098 29.3209 15.385 27.5202 16.6169 26.0426ZM21.5481 32.5148L16.623 37.5508C15.4047 36.0908 14.7289 34.3195 14.5881 32.5085L21.5481 32.5148ZM22.4826 33.4734L22.4764 40.6121C20.6514 40.4682 18.9446 39.7395 17.5558 38.5114L22.4826 33.4734ZM23.8052 33.4373L28.7409 38.5147C27.3483 39.7474 25.6302 40.4745 23.799 40.6154L23.8052 33.4373ZM20.8248 28.4516H22.8739C22.7086 29.0172 22.5904 29.6034 22.5313 30.2067L20.8248 28.4516ZM23.3899 27.0968H19.5074L16.8736 24.3871H25.2753C24.4994 25.1647 23.8626 26.082 23.3899 27.0968ZM13.8871 14.9032C14.9807 14.9032 15.871 15.8152 15.871 16.9355C15.871 18.0558 14.9807 18.9677 13.8871 18.9677C12.7934 18.9677 11.9032 18.0558 11.9032 16.9355C11.9032 15.8152 12.7934 14.9032 13.8871 14.9032ZM8.59677 14.9032C9.69042 14.9032 10.5806 15.8152 10.5806 16.9355C10.5806 18.0558 9.69042 18.9677 8.59677 18.9677C7.50313 18.9677 6.6129 18.0558 6.6129 16.9355C6.6129 15.8152 7.50313 14.9032 8.59677 14.9032ZM1.32258 16.9355C1.32258 15.8152 2.2128 14.9032 3.30645 14.9032C4.4001 14.9032 5.29032 15.8152 5.29032 16.9355C5.29032 18.0558 4.4001 18.9677 3.30645 18.9677C2.2128 18.9677 1.32258 18.0558 1.32258 16.9355ZM3.96774 21C3.96774 20.7208 4.04298 20.4532 4.1576 20.1946C4.88638 19.9941 5.51312 19.5502 5.95161 18.9469C6.39011 19.5502 7.01685 19.9941 7.74562 20.1946C7.86025 20.4532 7.93548 20.7208 7.93548 21C7.93548 22.1203 7.04526 23.0323 5.95161 23.0323C4.85797 23.0323 3.96774 22.1203 3.96774 21ZM1.32258 25.0645C1.32258 24.6907 1.619 24.3871 1.98387 24.3871H16.324L16.1303 24.5862C15.3934 25.3437 14.7996 26.1924 14.3433 27.0968H1.98387C1.619 27.0968 1.32258 26.7931 1.32258 26.4194V25.0645ZM13.8871 40.6452C7.68815 40.6452 2.64516 35.4792 2.64516 29.129V28.4516H13.788C12.5849 32.0289 13.3582 36.1592 16.1296 39.0112C16.7599 39.6595 17.4648 40.1999 18.2171 40.6452H13.8871ZM31.7419 39.2903C31.1804 39.2903 30.6218 39.2199 30.0703 39.0958C30.0994 39.0667 30.1317 39.0409 30.1607 39.0112L30.625 38.5329L23.8249 31.538C23.8171 31.4127 23.8065 31.2886 23.8065 31.1613C23.8065 26.9688 26.9205 23.5092 30.9034 23.0789C31.0183 23.6495 31.0806 24.2359 31.0806 24.8323V25.7419H32.4032V24.8323C32.4032 24.23 32.3445 23.6386 32.2424 23.0581C36.3849 23.325 39.6774 26.8517 39.6774 31.1613C39.6774 35.6439 36.1178 39.2903 31.7419 39.2903Z" fill="black"/>
<path d="M37.0323 31.1611C37.0323 34.1493 34.659 36.5805 31.7419 36.5805V37.9353C35.3884 37.9353 38.3548 34.8965 38.3548 31.1611H37.0323Z" fill="black"/>
</svg>
