<svg width="44" height="43" viewBox="0 0 44 43" fill="none" xmlns="http://www.w3.org/2000/svg">
<path d="M37.0242 13.2211C36.7364 12.9327 36.3981 12.6997 36.026 12.5338C35.3379 12.2273 34.9085 11.5127 35.0188 10.7677C35.096 10.2527 35.0513 9.72677 34.8881 9.23226C34.725 8.73776 34.448 8.28847 34.0794 7.92057C33.7115 7.55205 33.2623 7.27506 32.7678 7.1119C32.2732 6.94874 31.7473 6.90397 31.2324 6.98119C30.4873 7.09174 29.7727 6.66206 29.4663 5.97401C29.3004 5.60193 29.0674 5.26357 28.779 4.97583C28.4696 4.66646 28.1024 4.42105 27.6982 4.25361C27.294 4.08618 26.8607 4 26.4232 4C25.9857 4 25.5525 4.08618 25.1483 4.25361C24.7441 4.42105 24.3768 4.66646 24.0675 4.97583L17 12.0431L29.9568 25L37.0242 17.9326C37.3335 17.6232 37.579 17.256 37.7464 16.8518C37.9138 16.4476 38 16.0143 38 15.5768C38 15.1393 37.9138 14.7061 37.7464 14.3019C37.579 13.8977 37.3335 13.5304 37.0242 13.2211Z" fill="#809E39"/>
<path d="M37 23C37.0013 24.5431 36.7794 26.0783 36.3412 27.558V27.5587C36.1148 28.3219 35.8313 29.0669 35.4931 29.7875V29.7883C34.2047 32.544 32.1565 34.8747 29.5891 36.5065C27.0218 38.1383 24.042 39.0033 21 39C20.5425 39 20.0897 38.9809 19.6416 38.9428C11.44 38.2536 5 31.3791 5 23C5 14.6045 11.4652 7.71969 19.6899 7.05349C20.1214 7.01784 20.5581 7.00002 21 7.00002C25.1848 6.99427 29.2041 8.63369 32.191 11.5646C32.4747 11.8424 32.7473 12.1298 33.0087 12.4269C33.8764 13.4111 34.62 14.4981 35.2227 15.6636C35.4158 16.0379 35.5955 16.4204 35.7589 16.8111C36.2822 18.0564 36.6441 19.3635 36.8359 20.7006C36.9101 21.2138 36.9591 21.7344 36.9829 22.2625C36.9941 22.5069 36.9997 22.7527 37 23Z" fill="#8BAB43"/>
<path d="M18.2747 28.873C18.1908 29.2061 18.1501 29.5484 18.1536 29.8916C18.1536 29.9675 18.1551 30.0419 18.1588 30.1133C18.1596 30.1273 18.1603 30.1421 18.161 30.1561C18.2843 32.4238 20 32.5122 20 34.9486C20 36.6249 19.313 37.072 18.7656 38C16.178 37.7854 13.6799 36.9598 11.4797 35.5923C11.1396 35.3809 10.8083 35.1578 10.486 34.9228C9.29566 34.0556 8.23108 33.0304 7.32209 31.8758C7.06661 31.551 6.82374 31.2162 6.59351 30.8712C5.67218 29.4909 4.97987 27.9731 4.54292 26.3755C4.40763 25.8823 4.29782 25.3825 4.2139 24.8781C4.07097 24.0287 3.99942 23.1689 4 22.3077C3.99926 21.2704 4.101 20.2356 4.30377 19.218C4.44942 18.4822 4.64849 17.7578 4.89941 17.0504C6.28947 13.1388 9.16459 9.92004 12.9124 8.07959C13.2295 7.92345 13.5528 7.77786 13.8824 7.64283C15.6923 7.0514 14.6949 4 14.6949 4C17.6657 4 19.3843 5.22041 18.496 8.04939C18.3571 8.49204 18.1536 8.97151 18.1536 9.66605C18.1536 9.80673 18.1596 9.93857 18.1699 10.0645C18.1789 10.1706 18.1922 10.2715 18.2078 10.368C18.2451 10.6015 18.3076 10.8304 18.3942 11.0507C18.415 11.1037 18.4366 11.1553 18.4596 11.2054C18.9832 12.3632 20 12.8471 20 14.723C20.0009 14.9481 19.9843 15.1729 19.9502 15.3954C19.9294 15.5321 19.9001 15.6674 19.8626 15.8005C19.7619 16.1507 19.6068 16.4832 19.4028 16.786C19.3909 16.8044 19.3791 16.8228 19.3672 16.8405C18.8332 17.6418 18.1536 18.2458 18.1536 19.7792C18.1412 20.3132 18.2477 20.8433 18.4655 21.3318C18.4774 21.3576 18.4893 21.3834 18.5019 21.4084C18.6619 21.7172 18.8493 22.0113 19.0619 22.2871C19.0731 22.3025 19.0842 22.3173 19.0954 22.3327C19.5506 22.9566 20 23.5878 20 24.8347C20 26.8159 18.8673 27.2453 18.3772 28.5526L18.3764 28.5534C18.3371 28.6582 18.3031 28.7649 18.2747 28.873Z" fill="#9BBC50"/>
<path d="M38.9996 15.8195C38.9826 14.5773 38.3907 13.3305 37.3005 12.6622C36.9114 12.4237 36.4547 12.2312 36.2319 11.8408C36.009 11.4504 36.0836 10.9727 36.0813 10.5268C36.0698 8.57803 34.2 6.82427 32.1893 6.8762C31.8709 6.88437 31.5439 6.93048 31.24 6.83842C30.6438 6.65795 30.3488 6.03375 29.9873 5.53998C28.6804 3.75674 25.6382 3.5328 24.0684 5.10457L24.9167 5.92769C25.9141 4.92461 27.786 4.93146 28.7754 5.94177C29.412 6.59164 29.7383 7.58611 30.5956 7.92181C31.2048 8.16035 31.896 7.98112 32.5499 8.04385C33.0699 8.10314 33.5595 8.31255 33.9551 8.64489C34.3507 8.97722 34.6341 9.41713 34.7683 9.90747C34.9894 10.7793 34.7273 11.779 35.2227 12.5378C35.6269 13.1566 36.4137 13.4171 36.9807 13.9013C38.1118 14.8673 38.1116 16.8109 36.9803 17.7766C36.1443 15.2073 34.6667 12.8776 32.6785 10.9944L33.4795 10.2239L32.6276 9.3986L31.7894 10.2162L27.6289 7.72573L27.6325 6.30985H26.4278L26.4318 7.27536C24.4864 6.62877 22.435 6.33334 20.3796 6.40373L20.4211 7.56525C22.6142 7.50852 24.7969 7.87655 26.8413 8.64777C27.1634 8.76952 27.5001 8.91556 27.6909 9.19487C27.8315 9.40057 27.8744 9.65267 27.914 9.89631L28.3558 12.6172L20.026 9.38569L19.5784 10.47L22.3218 11.5328L20.447 11.863L20.6869 13.0639C23.1692 11.9795 26.1174 12.6943 28.5143 13.9459L28.8796 19.6294L21.2142 16.9061L20.8001 18.0029L23.6465 19.0125L21.1443 19.3735L21.35 20.6016C23.7986 19.7329 26.5 19.8215 28.8824 20.8486L28.5051 26.1249C27.4088 26.0127 26.4558 25.2966 25.8222 24.4226C25.1885 23.5487 24.8255 22.5222 24.4702 21.5111L23.3231 22.0238L24.6058 24.6514L21.8284 23.601L21.3904 24.6879L28.3354 27.31L27.217 32.1656C26.5343 31.1612 26.0318 30.0522 25.7306 28.8855L24.5835 29.2961L25.3917 31.4043L20.0329 29.2543L19.5719 30.3328L22.6363 31.5621L20.8495 32.031L21.1967 33.212C22.9279 32.251 25.1947 32.2729 26.9056 33.267L25.694 36.3672C25.5858 36.6444 25.4691 36.9332 25.2373 37.1263C25.0223 37.3055 24.7363 37.3784 24.4596 37.4387C22.8776 37.7831 21.2503 37.8901 19.6347 37.7561C20.0305 37.1859 20.2817 36.5333 20.3676 35.8513C20.4536 35.1693 20.372 34.4772 20.1295 33.8316C19.6123 32.4921 18.3917 31.3222 18.5235 29.898C18.6297 28.7493 19.5938 27.8691 20.0759 26.8147C20.5099 25.853 20.5372 24.7648 20.152 23.7838C19.64 22.4987 18.4272 21.4089 18.499 20.0331C18.5604 18.8571 19.5481 17.9477 20.0485 16.8745C20.3068 16.3096 20.4323 15.6961 20.4158 15.0784C20.3993 14.4607 20.2413 13.8543 19.9533 13.303C19.5401 12.5265 18.868 11.8685 18.6426 11.0226C18.2253 9.45674 19.4661 7.7889 18.9889 6.23917C18.7232 5.37629 17.9494 4.72488 17.0863 4.39057C16.2917 4.08274 15.3998 3.99105 14.5489 4.00067C13.8317 4.00877 13.7722 4.86034 13.8806 5.40926C13.986 5.94177 14.1836 6.50965 13.9539 7.00357C13.7326 7.47954 13.1904 7.71661 12.7019 7.93728C7.70796 10.1899 4.00448 14.9556 3.17829 20.2322C2.35211 25.5089 4.43952 31.1366 8.56223 34.6763C11.0781 36.8364 14.2671 38.2181 17.5836 38.7505C20.6308 39.2392 23.8119 39.0204 26.7166 38.0026C30.4087 36.7091 33.5143 34.1999 35.4908 30.9133C37.4673 27.6267 38.189 23.7718 37.5297 20.022C37.4674 19.6676 37.3954 19.2893 37.5435 18.9596C37.652 18.7182 37.8638 18.5382 38.0495 18.3461C38.7061 17.6668 39.0123 16.7444 38.9996 15.8195ZM18.3197 12.9216C18.5463 13.2211 18.7474 13.5379 18.9212 13.8689C19.252 14.5665 19.3008 15.3589 19.058 16.0897C15.8518 16.9635 12.9351 18.1799 10.3592 19.7194L11.4062 17.0193L10.2784 16.6089L8.64211 20.8287C8.62796 20.8386 8.61327 20.8481 8.59912 20.8578C6.62074 22.2429 5.23754 23.597 4.34307 24.6142C4.07717 22.7146 4.18811 20.7833 4.66991 18.924C6.11327 17.5338 8.24773 15.8637 11.2444 14.368L14.5873 15.815L15.0789 14.7494L12.6627 13.7037C14.2892 12.9933 15.9692 12.4041 17.6881 11.9413C17.8758 12.2814 18.0868 12.6089 18.3197 12.9216ZM13.3114 8.94678L13.405 8.90607C13.7673 8.74887 14.1778 8.57052 14.5203 8.25875C15.4615 7.40156 15.2878 6.43853 15.1484 5.66472C15.1166 5.48775 15.0856 5.3156 15.0683 5.15111C15.5433 5.17598 16.0127 5.2632 16.4635 5.41036C17.0996 5.62059 17.5788 6.0037 17.7779 6.46151C18.0452 7.07549 17.8422 7.81721 17.6274 8.6024C17.431 9.31982 17.2297 10.0593 17.3262 10.8273C11.8572 12.3182 8.03284 14.5925 5.48465 16.6361C7.01655 13.2659 9.83474 10.4678 13.3114 8.94678ZM4.63264 26.1282C5.08059 25.5553 5.56437 25.0097 6.08127 24.4942L10.5492 24.9803L10.6837 23.8205L7.20689 23.4422C7.87537 22.8601 8.57565 22.3132 9.30468 21.8039C11.884 19.9982 14.8872 18.5669 18.2494 17.5391C17.9902 17.9177 17.7708 18.3205 17.5944 18.7414C17.4143 19.2019 17.3207 19.69 17.3182 20.1825C17.313 20.7893 17.444 21.39 17.7022 21.9429C17.7127 21.9648 17.7239 21.9867 17.7346 22.0086C12.1068 24.7991 8.63985 28.1404 6.6123 30.695C5.69557 29.2896 5.02655 27.7463 4.63264 26.1282ZM7.33624 31.7023C7.89706 30.974 8.49846 30.2759 9.13776 29.611L9.11517 29.7943L14.2351 30.3779L14.3759 29.2188L10.0291 28.7234C10.991 27.8104 12.0138 26.9598 13.091 26.1771L17.0048 26.7287L17.178 25.5736L14.5101 25.1977C15.7452 24.394 17.0297 23.664 18.3565 23.0119L18.3715 23.0337C18.5885 23.3269 18.7805 23.6367 18.9454 23.9601C19.1253 24.3485 19.2182 24.7695 19.2178 25.1952C19.2174 25.6209 19.1237 26.0417 18.9431 26.4297C18.7793 26.7497 18.5891 27.0562 18.3743 27.3464C18.1241 27.6863 17.903 28.0456 17.7133 28.4204C17.5622 28.7391 17.4537 29.0752 17.3903 29.4204C14.7988 30.9894 12.5217 32.7912 10.6112 34.7861C9.3685 33.9203 8.26491 32.8811 7.33624 31.7023ZM11.6296 35.44C13.3499 33.685 15.2778 32.1328 17.3734 30.8155C17.4148 31.0745 17.4817 31.3291 17.5731 31.5757C17.7694 32.1035 18.0637 32.5633 18.3487 33.0081C18.5995 33.4 18.8364 33.7702 18.9917 34.1613C19.2015 34.7115 19.2547 35.3063 19.1455 35.8833C19.0364 36.4603 18.7689 36.9982 18.3712 37.4406C18.3318 37.4909 18.2837 37.5342 18.229 37.5687C18.1507 37.5751 18.0719 37.5725 17.9943 37.5609C15.7382 37.3131 13.5657 36.5891 11.6296 35.4401V35.44ZM36.452 20.9529L34.8572 22.6384L35.0334 20.8823L33.8344 20.7693L33.5031 24.0693L32.4312 25.2029C32.463 24.3332 32.4705 23.4767 32.4538 22.6333C32.4358 21.7692 32.3913 20.9249 32.3203 20.1006L35.4417 17.0765C35.7864 17.9214 36.0538 18.7941 36.2408 19.6844C36.3296 20.1062 36.4 20.5291 36.452 20.9532V20.9529ZM34.9186 15.9322L32.1606 18.6046C31.9705 17.0948 31.6664 15.6005 31.2508 14.1338L32.7091 12.721C33.5861 13.6943 34.3288 14.7738 34.9186 15.9325V15.9322ZM31.8808 11.8726L30.8537 12.8677C30.5424 11.9533 30.1754 11.0577 29.7544 10.1855C30.513 10.6864 31.2245 11.2511 31.8808 11.8729V11.8726ZM29.4772 27.794C29.9741 24.8044 30.1688 21.6072 30.0561 18.2914C29.9875 16.2733 29.8152 14.4682 29.6204 12.9743C30.6282 15.8141 31.1744 19.0538 31.2496 22.6565C31.3495 27.4475 30.5801 32.0317 29.8948 35.1043C28.936 35.7514 27.9044 36.291 26.82 36.7128C28.0479 34.0147 28.9407 31.022 29.4772 27.794ZM31.3622 33.9818C31.4592 33.4986 31.5495 33.0181 31.6332 32.5403L34.4767 30.2862C33.6474 31.6704 32.5961 32.9178 31.3622 33.9818ZM35.65 27.8485L31.9116 30.8115C32.0982 29.5318 32.2374 28.2737 32.3292 27.0374L36.5626 22.5635C36.5906 24.3641 36.2814 26.1547 35.65 27.8485Z" fill="black"/>
</svg>
