<svg width="42" height="43" viewBox="0 0 42 43" fill="none" xmlns="http://www.w3.org/2000/svg">
<path d="M41.2403 4.44594C36.7193 4.82765 34.1958 8.04334 32.8379 10.8682C33.6915 11.1067 34.4939 11.5599 35.1674 12.2294C36.6058 7.86319 39.788 5.47047 41.3185 4.74425C41.4742 4.67026 41.4112 4.4315 41.2403 4.44594Z" fill="#9AB748"/>
<path d="M38.426 6.89669C39.52 5.79163 40.6008 5.08464 41.3185 4.74409C41.4742 4.67026 41.4112 4.4315 41.2403 4.44594C36.7193 4.82765 34.1958 8.04333 32.8379 10.8682C33.353 11.0121 33.8491 11.2348 34.3099 11.5354C35.196 9.83733 36.51 8.06635 38.426 6.89669Z" fill="#8FA835"/>
<path d="M0.825447 34.2352C0.237692 31.2622 2.11514 28.3644 5.01889 27.7626C11.3967 26.4409 17.0564 23.5438 21.841 19.1522C25.2243 16.0467 26.881 13.3086 26.8962 13.2823C28.4072 10.6732 31.6982 9.81225 34.2463 11.3591C36.7948 12.906 37.6358 16.2751 36.1249 18.8843C35.7584 19.5171 26.9221 34.4302 7.14753 38.5284C4.24427 39.1304 1.41328 37.2085 0.825447 34.2352Z" fill="#83CC8E"/>
<path d="M2.46627 35.4339C1.87843 32.4609 3.75596 29.5631 6.65971 28.9613C13.0375 27.6396 18.6973 24.7425 23.4818 20.3509C26.8651 17.2454 28.5218 14.5073 28.537 14.481C29.9516 12.0385 32.9259 11.1283 35.3907 12.2911C35.0601 11.9368 34.6784 11.6213 34.2464 11.3591C31.6982 9.81225 28.4072 10.6732 26.8962 13.2823C26.881 13.3086 25.2242 16.0467 21.841 19.1522C17.0565 23.5438 11.3967 26.4408 5.01892 27.7626C2.11509 28.3643 0.237637 31.2622 0.825474 34.2352C1.17862 36.0215 2.34191 37.4273 3.84357 38.1354C3.16698 37.4107 2.67495 36.489 2.46627 35.4339Z" fill="#78C181"/>
<path d="M34.4928 15.7927C35.1695 14.6241 35.3731 13.3034 35.1642 12.0619C32.6471 9.6693 28.6347 10.2806 26.8962 13.2823C26.8811 13.3086 25.2243 16.0467 21.841 19.1522C17.0566 23.5438 11.3967 26.4408 5.01895 27.7626C2.16745 28.3536 0.307391 31.1587 0.797856 34.0748C2.0394 35.2552 3.77707 35.7973 5.5154 35.4369C25.2901 31.3386 34.1264 16.4254 34.4928 15.7927Z" fill="#3BBC56"/>
<path d="M35.1642 12.0642C35.1592 12.0594 35.1544 12.0545 35.1493 12.0498C35.0832 11.9874 35.0161 11.9275 34.9481 11.8692C34.9317 11.8553 34.9153 11.8413 34.8988 11.8275C34.8325 11.7721 34.7654 11.7184 34.6973 11.6668C34.6739 11.6492 34.65 11.632 34.6263 11.6146C34.5803 11.5809 34.5338 11.5483 34.487 11.5162C34.4292 11.4767 34.3704 11.4382 34.3106 11.4006C34.2856 11.3849 34.2606 11.3691 34.2355 11.3539C34.1629 11.3101 34.0898 11.2682 34.0161 11.2283C34.0101 11.225 34.004 11.2217 33.9981 11.2185C33.9215 11.1774 33.8444 11.1384 33.7668 11.1014C33.7624 11.0993 33.7579 11.0972 33.7534 11.0951C33.6753 11.0582 33.5965 11.0232 33.5174 10.9905C33.5124 10.9884 33.5074 10.9864 33.5024 10.9844C33.4237 10.9521 33.3445 10.9216 33.2649 10.8933C33.2591 10.8912 33.2532 10.8893 33.2473 10.8873C33.1681 10.8595 33.0885 10.8333 33.0086 10.8095C33.0044 10.8082 33.0003 10.8073 32.9961 10.806C32.8639 10.7669 32.7307 10.7346 32.597 10.7063C32.5619 10.699 32.527 10.6902 32.4918 10.6836C32.4642 10.6783 32.4365 10.6747 32.4089 10.6699C32.3418 10.6584 32.2747 10.6471 32.2073 10.6381C32.1844 10.6351 32.1615 10.6331 32.1385 10.6303C32.0659 10.6217 31.9932 10.614 31.9204 10.6083C31.9005 10.6068 31.8806 10.6059 31.8606 10.6046C31.7843 10.5996 31.708 10.5959 31.6317 10.5943C31.6144 10.5939 31.5971 10.5938 31.5798 10.5936C31.5002 10.5927 31.4206 10.5935 31.3411 10.5962C31.3268 10.5967 31.3124 10.5971 31.2982 10.5977C31.2143 10.6012 31.1306 10.6067 31.0471 10.6142C31.037 10.6151 31.0268 10.6158 31.0167 10.6168C30.9258 10.6255 30.8352 10.6364 30.7449 10.6497C30.7421 10.6502 30.7393 10.6504 30.7365 10.6508C30.4551 10.6929 30.177 10.758 29.9051 10.845C29.8784 10.8536 29.8521 10.8631 29.8256 10.8721C29.7669 10.892 29.7084 10.9123 29.6503 10.9342C29.6121 10.9486 29.5742 10.9641 29.5363 10.9794C29.4912 10.9975 29.4463 11.0161 29.4017 11.0356C29.3574 11.055 29.3133 11.075 29.2695 11.0956C29.2329 11.1127 29.1965 11.1305 29.1602 11.1485C29.1116 11.1727 29.0632 11.1973 29.0153 11.2231C28.9861 11.2387 28.9572 11.2551 28.9283 11.2713C28.8754 11.301 28.8227 11.3308 28.7708 11.3623C28.7512 11.3741 28.732 11.3868 28.7126 11.3989C28.4478 11.5643 28.1957 11.7542 27.9598 11.9677C27.9422 11.9836 27.9244 11.999 27.907 12.0151C27.8618 12.0571 27.8177 12.1007 27.7738 12.1443C27.7492 12.1689 27.7245 12.1932 27.7003 12.2182C27.6612 12.2587 27.6229 12.3002 27.5849 12.342C27.5566 12.3733 27.5286 12.4048 27.5008 12.4368C27.467 12.4759 27.4335 12.5155 27.4006 12.5558C27.3693 12.5942 27.3386 12.6335 27.3081 12.6731C27.2797 12.7098 27.2512 12.7464 27.2237 12.784C27.1877 12.8332 27.153 12.8836 27.1185 12.9344C27.0975 12.9651 27.0759 12.9952 27.0554 13.0265C27.0008 13.1102 26.9476 13.1956 26.8968 13.2833C26.8816 13.3096 25.2248 16.0477 21.8416 19.1532C17.0571 23.5448 11.3973 26.4419 5.01947 27.7636C5.01701 27.7641 5.01463 27.7648 5.01217 27.7653C4.92481 27.7835 4.83835 27.8037 4.75287 27.826C4.72162 27.8342 4.6911 27.844 4.66009 27.8527C4.60398 27.8685 4.54763 27.8838 4.49234 27.9013C4.45583 27.9128 4.42031 27.9261 4.38422 27.9385C4.33549 27.9551 4.28644 27.971 4.23845 27.9889C4.19949 28.0035 4.1615 28.0198 4.12303 28.0352C4.07906 28.0528 4.03468 28.0697 3.99137 28.0885C3.95118 28.1058 3.91205 28.1249 3.87243 28.1432C3.8319 28.1619 3.79105 28.18 3.75118 28.1997C3.71033 28.2198 3.67063 28.2416 3.63043 28.2627C3.59303 28.2824 3.55529 28.3014 3.51846 28.3218C3.47695 28.3449 3.43651 28.3696 3.39574 28.3938C3.36162 28.4141 3.327 28.4337 3.29337 28.4547C3.25153 28.4808 3.21076 28.5085 3.16966 28.5357C3.13841 28.5564 3.10674 28.5766 3.07598 28.5979C3.0339 28.6271 2.99297 28.6577 2.95179 28.6881C2.9234 28.709 2.89461 28.7294 2.86672 28.7508C2.82447 28.7833 2.78346 28.8171 2.74228 28.8508C2.71677 28.8716 2.69093 28.8919 2.66583 28.9132C2.62358 28.949 2.58256 28.9861 2.54147 29.0232C2.51883 29.0436 2.49577 29.0636 2.47354 29.0844C2.43146 29.1237 2.39061 29.1642 2.34984 29.2049C2.32991 29.2247 2.30965 29.2442 2.28996 29.2642C2.24829 29.307 2.20793 29.3509 2.16765 29.395C2.15026 29.4141 2.13246 29.4329 2.11531 29.4522C2.07422 29.4986 2.03443 29.546 1.99497 29.5937C1.98004 29.6118 1.9647 29.6296 1.95002 29.6478C1.90966 29.6979 1.87061 29.7489 1.83206 29.8004C1.81943 29.8172 1.80646 29.8338 1.79408 29.8508C1.75478 29.9045 1.71672 29.9592 1.6794 30.0144C1.6689 30.0298 1.65815 30.0451 1.64782 30.0607C1.60975 30.1181 1.57309 30.1765 1.53716 30.2353C1.52862 30.2493 1.51976 30.2631 1.51132 30.2773C1.47481 30.3382 1.4397 30.4001 1.40558 30.4625C1.39877 30.475 1.39171 30.4874 1.38499 30.4999C1.35029 30.5645 1.31698 30.6299 1.28483 30.696C1.27958 30.7068 1.27408 30.7175 1.26891 30.7283C1.23626 30.7964 1.20517 30.8652 1.17523 30.9347C1.17121 30.9439 1.16711 30.9531 1.16317 30.9624C1.1329 31.0338 1.10419 31.106 1.0768 31.1788C1.07392 31.1864 1.07105 31.1939 1.06826 31.2014C1.04062 31.2761 1.01453 31.3514 0.990088 31.4274C0.988201 31.4334 0.986151 31.4393 0.984264 31.4452C0.95949 31.5228 0.936439 31.6011 0.915111 31.68C0.913881 31.6845 0.912568 31.689 0.911338 31.6936C0.889764 31.7739 0.869994 31.8547 0.852029 31.9362C0.851291 31.9395 0.850553 31.9428 0.849814 31.9461C0.831685 32.0288 0.815443 32.1121 0.801088 32.1959C0.800678 32.1981 0.800349 32.2003 0.799939 32.2025C0.785502 32.2874 0.772951 32.3728 0.762369 32.4587C0.762205 32.4598 0.762041 32.461 0.761959 32.4622C0.751377 32.549 0.742681 32.6363 0.736201 32.724C0.736201 32.7243 0.736119 32.7247 0.736119 32.725C0.703224 33.167 0.72242 33.6197 0.799037 34.0751V34.0753C1.27482 34.5276 1.82345 34.8857 2.41702 35.1358C2.0072 32.2698 3.85446 29.5435 6.66092 28.962C13.0387 27.6402 18.6985 24.7432 23.483 20.3515C26.8663 17.2461 28.523 14.508 28.5382 14.4817C29.9135 12.107 32.7633 11.1813 35.1855 12.2004C35.1778 12.1552 35.1718 12.1096 35.1642 12.0642Z" fill="#30AA44"/>
<path d="M2.90553 32.5498C22.6801 28.4516 31.5164 13.5385 31.8829 12.9057C32.2857 12.2102 32.5197 11.4606 32.6004 10.706C30.4187 10.2425 28.0963 11.2104 26.8963 13.2825C26.8811 13.3088 25.2243 16.0469 21.8411 19.1524C17.0566 23.544 11.3968 26.441 5.01899 27.7628C2.67355 28.2489 0.998469 30.2331 0.750488 32.5448C1.46843 32.6976 2.19227 32.6977 2.90553 32.5498Z" fill="#30AA44"/>
<path d="M5.01167 27.7643C4.93103 27.7811 4.8513 27.8001 4.7723 27.8204C4.74761 27.8268 4.72325 27.8338 4.69872 27.8405C4.68576 27.8444 4.67272 27.8481 4.65959 27.8518C4.61562 27.8641 4.5719 27.8767 4.52834 27.8898C4.50176 27.8981 4.47535 27.9065 4.44894 27.9151C4.42728 27.9227 4.40546 27.9301 4.38372 27.9375C4.35025 27.949 4.31695 27.9605 4.28364 27.9722C4.26035 27.9807 4.23688 27.9889 4.21367 27.9977C4.18315 28.0098 4.15288 28.0221 4.12245 28.0344C4.08603 28.049 4.04961 28.0634 4.01351 28.0785C4.00474 28.0822 3.99571 28.0856 3.98693 28.0895C3.94813 28.1063 3.91015 28.1247 3.87193 28.1425C3.83329 28.1603 3.79432 28.1776 3.75618 28.1963C3.74527 28.2017 3.73461 28.2075 3.7237 28.2129C3.69228 28.229 3.66111 28.2455 3.62985 28.2619C3.59966 28.2778 3.56948 28.2935 3.53954 28.3096C3.52001 28.3203 3.50082 28.3314 3.48146 28.3424C3.45266 28.3592 3.42387 28.376 3.39516 28.3931C3.37211 28.4068 3.34898 28.4204 3.32593 28.4342C3.30681 28.4459 3.28778 28.4576 3.26883 28.4696C3.23536 28.4911 3.20214 28.5129 3.169 28.5349C3.14775 28.549 3.12651 28.5631 3.10526 28.5772C3.09279 28.5857 3.08016 28.594 3.06777 28.6026C3.0284 28.6302 2.98984 28.6588 2.95112 28.6873C2.92274 28.7082 2.89395 28.7286 2.86606 28.75C2.82381 28.7824 2.7828 28.8163 2.74162 28.8499C2.71897 28.8684 2.69609 28.8866 2.67369 28.9054C2.66311 28.9144 2.65278 28.9236 2.64228 28.9326C2.60815 28.9621 2.57435 28.992 2.54088 29.0223C2.52538 29.0363 2.50979 29.0502 2.49421 29.0643C2.47985 29.0775 2.46566 29.0909 2.45147 29.1043C2.41702 29.1372 2.38289 29.1703 2.34918 29.2039C2.33892 29.2141 2.32867 29.2243 2.31833 29.2344C2.30504 29.2479 2.29167 29.2612 2.27855 29.2747C2.24073 29.314 2.20374 29.3538 2.16707 29.394C2.14968 29.4131 2.13188 29.4319 2.11473 29.4512C2.07363 29.4975 2.03385 29.545 1.99439 29.5927C1.97946 29.6108 1.96412 29.6286 1.94944 29.6468C1.90908 29.6968 1.87003 29.7479 1.83148 29.7994C1.82188 29.8122 1.8122 29.8249 1.8026 29.8377C1.79481 29.8483 1.78726 29.8589 1.77963 29.8696C1.74534 29.917 1.71163 29.9649 1.67882 30.0134C1.67521 30.0187 1.6716 30.024 1.66799 30.0293C1.65732 30.0451 1.64666 30.0612 1.63616 30.0771C1.60286 30.1279 1.57021 30.1792 1.53854 30.2311C1.52812 30.2481 1.51762 30.2651 1.50737 30.2821C1.4721 30.3412 1.43805 30.4011 1.405 30.4614C1.39819 30.4739 1.39113 30.4863 1.38441 30.4988C1.34971 30.5634 1.3164 30.6288 1.28425 30.6949C1.279 30.7057 1.2735 30.7164 1.26833 30.7272C1.23568 30.7953 1.20459 30.8641 1.17465 30.9336C1.17358 30.9361 1.17252 30.9386 1.17145 30.9411C1.16604 30.9536 1.16095 30.9663 1.15562 30.9789C1.12945 31.0413 1.10427 31.1043 1.08023 31.1677C1.07441 31.1831 1.06867 31.1985 1.06301 31.2139C1.03815 31.2815 1.01453 31.3496 0.992295 31.4183C0.989342 31.4273 0.986225 31.4362 0.983354 31.4452C0.958745 31.5225 0.935776 31.6004 0.914448 31.679C0.913217 31.6835 0.911905 31.688 0.910674 31.6926C0.8891 31.7729 0.86933 31.8537 0.851365 31.9352C0.850627 31.9385 0.849889 31.9417 0.849151 31.9451C0.831678 32.025 0.81601 32.1055 0.802065 32.1864C0.800424 32.196 0.798865 32.2055 0.797307 32.2151C0.78451 32.2914 0.773272 32.368 0.763592 32.445C0.762607 32.453 0.761459 32.4611 0.760557 32.4692C0.757522 32.4941 0.755799 32.5193 0.753174 32.5443C1.38096 32.6778 2.01326 32.6944 2.63908 32.5974C3.2297 30.7996 4.7139 29.3642 6.66042 28.9608C13.0382 27.639 18.698 24.742 23.4825 20.3504C26.8658 17.2449 28.5225 14.5068 28.5377 14.4805C29.3926 13.0044 30.8171 12.0887 32.3545 11.8514C32.4779 11.475 32.5598 11.0908 32.6011 10.7052C32.6006 10.7052 32.6002 10.7051 32.5997 10.705C32.5324 10.6907 32.4649 10.6778 32.3973 10.6662C32.3951 10.6659 32.3929 10.6655 32.3907 10.6652C32.277 10.6459 32.163 10.6312 32.0489 10.6194C32.021 10.6165 31.9931 10.6135 31.9652 10.611C31.9181 10.607 31.8711 10.6039 31.8241 10.6011C31.7821 10.5986 31.7402 10.597 31.6982 10.5955C31.6585 10.5941 31.6188 10.5923 31.5791 10.5919C31.5027 10.591 31.4264 10.5919 31.3502 10.5943C31.3175 10.5953 31.2849 10.5973 31.2523 10.599C31.1969 10.6018 31.1416 10.6054 31.0863 10.6099C31.0548 10.6125 31.0231 10.615 30.9915 10.6182C30.9118 10.6261 30.8322 10.6355 30.753 10.647C30.7023 10.6544 30.6519 10.6633 30.6015 10.6722C30.5834 10.6753 30.5652 10.678 30.5471 10.6814C30.5024 10.6898 30.4581 10.6994 30.4136 10.7089C30.3895 10.7142 30.3653 10.7189 30.3412 10.7243C30.3007 10.7336 30.2605 10.744 30.2202 10.7542C30.1927 10.7612 30.165 10.7678 30.1376 10.7753C30.0979 10.786 30.0582 10.7979 30.0187 10.8096C29.9921 10.8175 29.9655 10.825 29.939 10.8333C29.898 10.8462 29.8572 10.8599 29.8164 10.8738C29.7773 10.8871 29.7383 10.9011 29.6994 10.9152C29.6689 10.9264 29.6385 10.9376 29.6081 10.9493C29.5843 10.9587 29.5606 10.968 29.5368 10.9776C29.5114 10.9879 29.4862 10.9987 29.4609 11.0094C29.4406 11.0179 29.4202 11.026 29.4001 11.0348C29.3732 11.0466 29.3465 11.059 29.3198 11.0713C29.2937 11.0832 29.2677 11.0952 29.2418 11.1075C29.2157 11.12 29.1896 11.1325 29.1637 11.1453C29.1431 11.1556 29.1227 11.1663 29.1022 11.1768C29.0735 11.1915 29.0445 11.2059 29.0159 11.2212C29.0018 11.2287 28.9878 11.2367 28.9737 11.2446C28.95 11.2576 28.9265 11.2711 28.9031 11.2844C28.8694 11.3034 28.836 11.3227 28.8027 11.3424C28.7699 11.362 28.7376 11.3822 28.7052 11.4024C28.4434 11.5666 28.194 11.7546 27.9605 11.9659C27.9557 11.9703 27.9509 11.9746 27.9461 11.9789C27.9244 11.9987 27.9028 12.0188 27.8813 12.039C27.8454 12.0731 27.8098 12.1076 27.7746 12.1426C27.75 12.1672 27.7253 12.1915 27.7011 12.2166C27.6619 12.257 27.6236 12.2985 27.5857 12.3403C27.5574 12.3716 27.5293 12.4032 27.5016 12.4352C27.4677 12.4742 27.4342 12.5138 27.4013 12.5541C27.37 12.5925 27.3393 12.6319 27.3088 12.6714C27.2813 12.7069 27.2538 12.7425 27.2271 12.7788C27.2246 12.7823 27.2221 12.7858 27.2196 12.7892C27.1854 12.8363 27.1522 12.8843 27.1192 12.9327C27.1047 12.9539 27.0901 12.9752 27.0756 12.9965C27.0661 13.0108 27.0565 13.025 27.0473 13.0393C26.9958 13.1185 26.9456 13.1988 26.8976 13.2817C26.8904 13.2941 26.5226 13.9022 25.7853 14.8648C25.5888 15.1214 25.3658 15.4033 25.1165 15.7058C25.0542 15.7814 24.9902 15.8583 24.9246 15.9364C24.2682 16.7177 23.4463 17.6208 22.4565 18.5741C22.2585 18.7647 22.0537 18.9575 21.8423 19.1515C19.5996 21.2101 17.1645 22.9403 14.5534 24.3337C14.2053 24.5194 13.8539 24.6993 13.4996 24.8731C13.1453 25.0469 12.7878 25.2147 12.4273 25.3765C12.0667 25.5383 11.7032 25.694 11.3365 25.8438C10.9699 25.9935 10.6003 26.1372 10.2277 26.2748C8.55108 26.8939 6.81407 27.3904 5.02037 27.7621C5.01651 27.763 5.01413 27.7637 5.01167 27.7643Z" fill="#269E35"/>
<path d="M26.9701 11.9795C26.4727 12.5434 21.1946 21.9653 8.80477 26.071C5.04568 27.3168 4.48893 26.932 2.91533 27.886C0.735094 29.2122 -0.384307 31.812 0.119448 34.36C0.764379 37.6224 3.89191 39.8243 7.1666 39.1459C13.7525 37.7809 19.8263 35.0911 25.219 31.151C25.4956 30.949 25.5598 30.5555 25.3624 30.2724C25.1651 29.9892 24.7807 29.9233 24.5042 30.1255C19.2531 33.962 13.3377 36.5814 6.92231 37.911C6.60945 37.9759 6.29051 38.0088 5.97452 38.0088C4.27836 38.0088 2.74888 37.0744 1.90855 35.6448C3.01827 36.1541 4.28074 36.3142 5.53434 36.0544C25.5704 31.9019 34.5466 16.7568 34.9188 16.1142C34.9188 16.1142 34.9188 16.1142 34.9188 16.1141C35.305 15.4473 35.5593 14.7155 35.6773 13.9605C36.3481 15.3805 36.3353 17.1075 35.4925 18.563C35.3762 18.7637 32.5777 23.5341 26.7596 28.3675C26.4957 28.5867 26.4554 28.9835 26.6694 29.2536C26.8835 29.5237 27.2709 29.565 27.5349 29.3458C33.4208 24.456 36.248 19.7286 36.551 19.2055C37.9153 16.8493 37.554 13.9277 35.8541 11.9896C36.0219 11.5264 36.2161 11.069 36.4359 10.6257C36.5897 10.3155 36.4687 9.93629 36.1658 9.77881C35.8629 9.62134 35.4925 9.74522 35.3387 10.0553C35.1702 10.3951 35.0147 10.7425 34.8734 11.0945C34.5064 10.8268 34.092 10.5948 33.6929 10.426C34.7115 8.53937 36.3439 6.50056 38.8733 5.53071C38.2816 6.02949 37.6287 6.67021 36.9811 7.47932C36.7657 7.7484 36.8041 8.14532 37.067 8.36586C37.3296 8.58623 37.7175 8.5471 37.9329 8.27793C39.196 6.70011 40.6328 5.66962 41.5561 5.23156C42.3302 4.86429 42.022 3.66239 41.1685 3.73403C38.2029 3.9843 36.0572 5.38214 34.5211 7.08342C34.5159 7.08837 34.5104 7.09291 34.5053 7.09811C33.3499 8.28162 30.4222 7.66551 30.4222 5.74185C30.4222 5.39398 30.1468 5.11188 29.8069 5.11188C29.4669 5.11188 29.1915 5.3939 29.1915 5.74185C29.1915 7.80073 31.1246 9.07125 33.1192 8.9519C32.8864 9.32412 32.6762 9.69626 32.4871 10.0618C30.3922 9.67098 28.321 10.448 26.9701 11.9795ZM5.03805 28.3799C11.5196 27.0365 17.2777 24.0922 22.1487 19.621C27.2658 14.924 27.0185 12.9682 29.1696 11.7959C29.9682 11.3606 30.8778 11.1651 31.7843 11.2374C31.6745 11.7095 31.4959 12.1604 31.2506 12.584C30.8898 13.207 22.1899 27.8887 2.68047 31.9321C2.24587 32.0221 1.80446 32.0508 1.36288 32.0146C1.79346 30.1839 3.2186 28.757 5.03805 28.3799ZM34.4859 12.3823C34.6183 13.452 34.3991 14.5411 33.8604 15.4713C33.4996 16.0943 24.7969 30.7766 5.2903 34.8194C3.8728 35.1132 2.39845 34.7391 1.27002 33.7556C1.25107 33.6048 1.23778 33.4394 1.23352 33.2661C1.79158 33.315 2.34389 33.2874 2.92451 33.1671C22.9635 29.014 31.9369 13.8695 32.309 13.2268C32.6233 12.684 32.8492 12.1048 32.987 11.4986C33.5365 11.6968 34.0417 11.9951 34.4859 12.3823Z" fill="black"/>
</svg>
