<svg width="42" height="44" viewBox="0 0 42 44" fill="none" xmlns="http://www.w3.org/2000/svg">
<g clip-path="url(#clip0)">
<path d="M16.5253 25.7987C18.9966 25.7987 21 23.6999 21 21.1109C21 18.5219 18.9966 16.4231 16.5253 16.4231C14.0539 16.4231 12.0505 18.5219 12.0505 21.1109C12.0505 23.6999 14.0539 25.7987 16.5253 25.7987Z" fill="#A586C6"/>
<path d="M25.4747 25.7987C27.946 25.7987 29.9494 23.6999 29.9494 21.1109C29.9494 18.5219 27.946 16.4231 25.4747 16.4231C23.0034 16.4231 21 18.5219 21 21.1109C21 23.6999 23.0034 25.7987 25.4747 25.7987Z" fill="#A586C6"/>
<path d="M12.0504 21.111C12.0504 19.8704 12.5138 18.7456 13.2648 17.9071C12.4485 16.9957 11.2917 16.4231 10.0045 16.4231C7.53315 16.4231 5.52979 18.5219 5.52979 21.1109C5.52979 23.6999 7.53323 25.7987 10.0045 25.7987C11.2917 25.7987 12.4485 25.2261 13.2648 24.3147C12.5138 23.4763 12.0504 22.3516 12.0504 21.111Z" fill="#A586C6"/>
<path d="M31.9954 16.4231C30.7083 16.4231 29.5514 16.9957 28.7351 17.9071C29.4862 18.7456 29.9495 19.8704 29.9495 21.111C29.9495 22.3516 29.4862 23.4763 28.7351 24.3148C29.5515 25.2262 30.7084 25.7988 31.9954 25.7988C34.4668 25.7988 36.4702 23.6999 36.4702 21.111C36.4702 18.5219 34.4667 16.4231 31.9954 16.4231Z" fill="#A586C6"/>
<path d="M21.1467 22.2831C21.0976 22.2814 21.0495 22.2754 20.9999 22.2754C20.9504 22.2754 20.9023 22.2815 20.8532 22.2831C20.3675 24.2557 18.6906 25.7223 16.6719 25.791C16.5795 26.1663 16.5251 26.5577 16.5251 26.9632C16.5251 29.5522 18.5286 31.651 20.9999 31.651C23.4711 31.651 25.4746 29.5522 25.4746 26.9632C25.4746 26.5577 25.4203 26.1663 25.3278 25.791C23.3092 25.7223 21.6324 24.2557 21.1467 22.2831Z" fill="#845CAF"/>
<path d="M16.6698 25.791C16.6213 25.7927 16.574 25.7987 16.5251 25.7987C15.2379 25.7987 14.0811 25.2261 13.2648 24.3147C12.4484 25.2261 11.2916 25.7987 10.0044 25.7987C9.64677 25.7987 9.3006 25.75 8.96723 25.6669C8.85419 26.079 8.79004 26.5129 8.79004 26.9631C8.79004 29.5522 10.7934 31.6509 13.2648 31.6509C14.9175 31.6509 16.3574 30.7096 17.1323 29.3133C16.7485 28.6218 16.5251 27.8206 16.5251 26.9631C16.5251 26.5577 16.5765 26.1655 16.6698 25.791Z" fill="#845CAF"/>
<path d="M31.9953 25.7987C30.7081 25.7987 29.5513 25.2261 28.735 24.3147C27.9186 25.2261 26.7618 25.7987 25.4746 25.7987C25.4258 25.7987 25.3784 25.7927 25.3299 25.791C25.4231 26.1655 25.4746 26.5577 25.4746 26.9631C25.4746 27.8206 25.2512 28.6219 24.8674 29.3133C25.6423 30.7096 27.0822 31.6509 28.735 31.6509C31.2063 31.6509 33.2097 29.5521 33.2097 26.9631C33.2097 26.5129 33.1456 26.0791 33.0325 25.6669C32.699 25.75 32.353 25.7987 31.9953 25.7987Z" fill="#845CAF"/>
<path d="M21.1467 19.9387C21.0976 19.9404 21.0495 19.9464 20.9999 19.9464C20.9504 19.9464 20.9023 19.9403 20.8532 19.9387C20.3675 17.9661 18.6906 16.4995 16.6719 16.4308C16.5795 16.0555 16.5251 15.6641 16.5251 15.2586C16.5251 12.6696 18.5286 10.5708 20.9999 10.5708C23.4711 10.5708 25.4746 12.6697 25.4746 15.2586C25.4746 15.6641 25.4203 16.0555 25.3278 16.4308C23.3092 16.4995 21.6324 17.9661 21.1467 19.9387Z" fill="#845CAF"/>
<path d="M16.6698 16.4307C16.6213 16.4291 16.574 16.4231 16.5251 16.4231C15.2379 16.4231 14.0811 16.9957 13.2648 17.907C12.4484 16.9957 11.2916 16.4231 10.0044 16.4231C9.64677 16.4231 9.3006 16.4717 8.96723 16.5548C8.85419 16.1427 8.79004 15.7088 8.79004 15.2586C8.79004 12.6696 10.7934 10.5708 13.2648 10.5708C14.9175 10.5708 16.3574 11.5121 17.1323 12.9084C16.7485 13.5999 16.5251 14.4011 16.5251 15.2586C16.5251 15.664 16.5765 16.0561 16.6698 16.4307Z" fill="#845CAF"/>
<path d="M31.9953 16.4231C30.7081 16.4231 29.5513 16.9957 28.735 17.907C27.9186 16.9957 26.7618 16.4231 25.4746 16.4231C25.4258 16.4231 25.3784 16.4291 25.3299 16.4307C25.4231 16.0562 25.4746 15.664 25.4746 15.2586C25.4746 14.401 25.2512 13.5998 24.8674 12.9084C25.6423 11.5121 27.0822 10.5708 28.735 10.5708C31.2063 10.5708 33.2097 12.6697 33.2097 15.2586C33.2097 15.7088 33.1456 16.1426 33.0325 16.5548C32.699 16.4717 32.353 16.4231 31.9953 16.4231Z" fill="#845CAF"/>
<path d="M17.1325 29.3132C16.3576 30.7095 14.9177 31.6508 13.2649 31.6508C12.9073 31.6508 12.5611 31.6022 12.2277 31.5191C12.1147 31.9311 12.0505 32.365 12.0505 32.8153C12.0505 35.4043 14.0539 37.5031 16.5253 37.5031C18.9966 37.5031 21 35.4042 21 32.8153C21 32.4097 20.9457 32.0184 20.8532 31.6431C19.2626 31.5889 17.8841 30.6677 17.1325 29.3132Z" fill="#A586C6"/>
<path d="M28.7351 31.6508C27.0823 31.6508 25.6424 30.7095 24.8675 29.3132C24.1159 30.6677 22.7374 31.5889 21.1468 31.6431C21.0543 32.0184 21 32.4097 21 32.8153C21 35.4043 23.0034 37.5031 25.4747 37.5031C27.9461 37.5031 29.9494 35.4042 29.9494 32.8153C29.9494 32.365 29.8854 31.9312 29.7723 31.5191C29.4389 31.6022 29.0928 31.6508 28.7351 31.6508Z" fill="#A586C6"/>
<path d="M21.1467 33.9877C21.0976 33.986 21.0495 33.98 20.9999 33.98C20.9504 33.98 20.9023 33.9861 20.8532 33.9877C20.3675 35.9603 18.6906 37.4268 16.6719 37.4956C16.5795 37.8709 16.5251 38.2622 16.5251 38.6678C16.5251 41.2568 18.5286 43.3556 20.9999 43.3556C23.4711 43.3556 25.4746 41.2567 25.4746 38.6678C25.4746 38.2622 25.4203 37.8709 25.3278 37.4956C23.3092 37.4268 21.6324 35.9603 21.1467 33.9877Z" fill="#845CAF"/>
<path d="M16.71 16.427C17.3405 17.2349 17.7186 18.2673 17.7186 19.3921C17.7186 21.9811 15.7153 24.0799 13.2439 24.0799C13.182 24.0799 13.1204 24.0785 13.0591 24.076C13.8796 25.1274 15.1276 25.7987 16.5251 25.7987C18.9965 25.7987 20.9999 23.6998 20.9999 21.1109C20.9999 18.5868 19.0956 16.5286 16.71 16.427Z" fill="#9373B9"/>
<path d="M25.6594 16.427C26.2899 17.2349 26.6681 18.2673 26.6681 19.3921C26.6681 21.9811 24.6646 24.0799 22.1934 24.0799C22.1314 24.0799 22.0698 24.0785 22.0085 24.076C22.8291 25.1274 24.077 25.7987 25.4746 25.7987C27.946 25.7987 29.9493 23.6998 29.9493 21.1109C29.9494 18.5868 28.0451 16.5286 25.6594 16.427Z" fill="#9373B9"/>
<path d="M13.2649 17.9071C12.4485 16.9957 11.2917 16.4231 10.0046 16.4231C9.92999 16.4231 9.85592 16.425 9.78234 16.4288C9.1507 17.2363 8.76925 18.2665 8.76925 19.3922C8.76925 19.9914 8.87737 20.5636 9.07375 21.0896C9.54297 22.3462 8.80977 23.7536 7.5437 24.001C7.27792 24.0529 7.00369 24.08 6.72339 24.08C6.66146 24.08 6.59985 24.0787 6.53857 24.0761C7.35913 25.1275 8.60707 25.7988 10.0046 25.7988C11.2918 25.7988 12.4486 25.2262 13.265 24.3148C12.5139 23.4763 12.0506 22.3516 12.0506 21.111C12.0506 19.8704 12.5138 18.7456 13.2649 17.9071Z" fill="#9373B9"/>
<path d="M32.18 16.427C32.8105 17.2349 33.1887 18.2673 33.1887 19.3921C33.1887 21.903 31.3042 23.9529 28.9362 24.0742C28.8716 24.1567 28.8045 24.237 28.7349 24.3148C29.5512 25.2261 30.7081 25.7987 31.9952 25.7987C34.4666 25.7987 36.4699 23.6999 36.4699 21.1109C36.47 18.5868 34.5656 16.5286 32.18 16.427Z" fill="#9373B9"/>
<path d="M25.3278 25.7908C24.0177 25.7462 22.8515 25.1128 22.0615 24.1345C22.1448 24.4907 22.1932 24.8612 22.1932 25.2443C22.1932 27.8333 20.1899 29.9321 17.7185 29.9321C17.6566 29.9321 17.595 29.9308 17.5337 29.9282C18.3543 30.9797 19.6022 31.6509 20.9998 31.6509C23.4711 31.6509 25.4745 29.552 25.4745 26.9631C25.4745 26.5574 25.4202 26.1661 25.3278 25.7908Z" fill="#734D9D"/>
<path d="M16.5252 26.9632C16.5252 26.5578 16.5767 26.1656 16.6699 25.7911C16.6214 25.7927 16.5741 25.7987 16.5252 25.7987C15.2682 25.7987 14.1354 25.2526 13.3227 24.3782C13.2715 24.6587 13.244 24.948 13.244 25.2444C13.244 25.6732 13.2998 26.0879 13.4037 26.4818C13.674 27.5072 13.2613 28.6023 12.4095 29.1815C11.7111 29.6563 10.8786 29.9322 9.98364 29.9322C9.92171 29.9322 9.86011 29.9309 9.79883 29.9283C10.6194 30.9798 11.8673 31.651 13.2649 31.651C14.9177 31.651 16.3576 30.7097 17.1324 29.3134C16.7486 28.6219 16.5252 27.8207 16.5252 26.9632Z" fill="#734D9D"/>
<path d="M33.0327 25.667C32.6992 25.75 32.3531 25.7987 31.9955 25.7987C31.249 25.7987 30.5464 25.6061 29.9285 25.2666C29.9171 27.8454 27.9181 29.9322 25.4538 29.9322C25.3938 29.9322 25.334 29.931 25.2744 29.9285C26.0942 30.9791 27.3387 31.651 28.7351 31.651C31.2064 31.651 33.2098 29.5521 33.2098 26.9632C33.2099 26.513 33.1458 26.0791 33.0327 25.667Z" fill="#734D9D"/>
<path d="M16.657 16.3684C16.6618 16.3893 16.6668 16.4101 16.6719 16.4309C16.6838 16.4313 16.6957 16.4317 16.7076 16.4323C16.6909 16.4109 16.674 16.3895 16.657 16.3684Z" fill="#734D9D"/>
<path d="M21.1847 10.5747C21.8151 11.3826 22.1933 12.415 22.1933 13.5398V13.552C22.1917 14.1612 21.7798 14.6897 21.2123 14.8228C20.0447 15.0965 19.0509 15.8478 18.426 16.8715C19.6161 17.4579 20.518 18.5778 20.8531 19.9386C20.9022 19.9404 20.9503 19.9464 20.9998 19.9464C21.0494 19.9464 21.0975 19.9403 21.1466 19.9386C21.6323 17.966 23.3091 16.4995 25.3279 16.4307C25.4203 16.0555 25.4746 15.6641 25.4746 15.2586C25.4746 12.7344 23.5703 10.6762 21.1847 10.5747Z" fill="#734D9D"/>
<path d="M17.1324 12.9085C16.3857 11.563 15.0214 10.64 13.4442 10.5747C13.4482 10.5798 13.4521 10.5848 13.4559 10.5898C13.7036 10.9099 13.7474 11.3486 13.5943 11.7282C13.3696 12.2855 13.2439 12.8969 13.2439 13.5401C13.2439 13.8935 13.283 14.2369 13.3549 14.5675C13.3705 14.6394 13.3158 14.7047 13.2454 14.7045C13.2449 14.7045 13.2444 14.7045 13.2439 14.7045C12.4931 14.7045 11.7865 14.8993 11.1661 15.2427C10.4249 15.6528 9.54699 15.6568 8.80633 15.2457C8.80092 15.2427 8.7955 15.2397 8.79009 15.2367C8.78796 15.6949 8.85227 16.1362 8.9672 16.555C9.30065 16.4719 9.64674 16.4233 10.0044 16.4233C11.2916 16.4233 12.4484 16.9959 13.2647 17.9072C14.0811 16.9959 15.2379 16.4233 16.5251 16.4233C16.5739 16.4233 16.6213 16.4293 16.6698 16.4309C16.5766 16.0563 16.5251 15.6642 16.5251 15.2588C16.5252 14.4012 16.7486 13.6 17.1324 12.9085Z" fill="#734D9D"/>
<path d="M28.9198 10.5747C29.5503 11.3826 29.9285 12.415 29.9285 13.5398C29.9285 13.6046 29.9272 13.6691 29.9246 13.7333C29.9014 14.3034 29.4295 14.7313 28.8852 14.7079C28.8285 14.7055 28.7715 14.7042 28.7142 14.7042C27.3175 14.7042 26.0742 15.3784 25.2529 16.4281C25.3295 16.4369 25.4003 16.4229 25.4747 16.4229C26.7619 16.4229 27.9188 16.9955 28.7351 17.9069C29.5515 16.9955 30.7083 16.4229 31.9954 16.4229C32.3531 16.4229 32.6992 16.4716 33.0326 16.5547C33.1457 16.1426 33.2098 15.7087 33.2098 15.2585C33.2098 12.7344 31.3054 10.6762 28.9198 10.5747Z" fill="#734D9D"/>
<path d="M20.8531 31.6432C19.5435 31.5986 18.3777 30.9663 17.5872 29.9883C17.6703 30.3441 17.7186 30.714 17.7186 31.0966C17.7186 33.6857 15.7152 35.7844 13.2439 35.7844C13.182 35.7844 13.1204 35.7831 13.0591 35.7805C13.8796 36.832 15.1276 37.5032 16.5251 37.5032C18.9965 37.5032 20.9999 35.4044 20.9999 32.8154C20.9999 32.4098 20.9456 32.0185 20.8531 31.6432Z" fill="#9373B9"/>
<path d="M29.7721 31.5193C29.4387 31.6024 29.0926 31.651 28.7349 31.651C27.9887 31.651 27.2859 31.4591 26.668 31.1201C26.656 33.6983 24.6572 35.7845 22.1934 35.7845C22.1314 35.7845 22.0698 35.7833 22.0085 35.7806C22.8291 36.8321 24.077 37.5033 25.4746 37.5033C27.946 37.5033 29.9493 35.4045 29.9493 32.8155C29.9492 32.3653 29.8852 31.9314 29.7721 31.5193Z" fill="#9373B9"/>
<path d="M25.3278 37.4954C24.0177 37.4508 22.8515 36.8174 22.0615 35.8391C22.1448 36.1953 22.1932 36.5658 22.1932 36.9489C22.1932 39.5379 20.1899 41.6367 17.7185 41.6367C17.6566 41.6367 17.595 41.6353 17.5337 41.6328C18.3543 42.6841 19.6022 43.3554 20.9998 43.3554C23.4711 43.3554 25.4745 41.2565 25.4745 38.6676C25.4745 38.262 25.4202 37.8707 25.3278 37.4954Z" fill="#734D9D"/>
<path d="M33.8573 0.644531H26.394C27.862 0.644531 29.1205 1.60196 29.6306 2.95213H33.8573C34.4655 2.95213 34.9586 2.43555 34.9586 1.79833C34.9586 1.1611 34.4655 0.644531 33.8573 0.644531Z" fill="#D8F1A0"/>
<path d="M26.3938 0.644531H24.3694C21.9041 0.644531 19.8984 2.7457 19.8984 5.32838V10.7139C20.2508 10.6205 20.6197 10.5708 20.9998 10.5708C21.3798 10.5708 21.7487 10.6205 22.1011 10.7139V5.32838C22.1011 4.55005 22.4601 3.85799 23.0137 3.42427C22.9491 3.70159 22.9147 3.99128 22.9147 4.28923C22.9147 6.29887 24.4755 7.93392 26.3938 7.93392C28.3121 7.93392 29.8728 6.29887 29.8728 4.28923C29.8728 2.27958 28.3121 0.644531 26.3938 0.644531ZM26.3938 5.62633C25.6901 5.62633 25.1175 5.02648 25.1175 4.28923C25.1175 3.55197 25.6901 2.95213 26.3938 2.95213C27.0976 2.95213 27.6702 3.55197 27.6702 4.28923C27.6702 5.02648 27.0976 5.62633 26.3938 5.62633Z" fill="#E2F4B4"/>
<path d="M13.0777 8.35465C15.1087 8.92476 17.1871 7.69792 17.7201 5.61436C18.253 3.53081 17.0386 1.37962 15.0075 0.80951C12.9765 0.2394 8.02054 1.20508 7.61801 2.7786C7.21548 4.35228 11.0467 7.78454 13.0777 8.35465Z" fill="#C8EA73"/>
<path d="M15.0074 0.809918C14.8251 0.758785 14.6192 0.719941 14.3952 0.692871C15.2301 1.64858 15.5978 3.00081 15.259 4.32571C14.7436 6.34068 12.7827 7.55438 10.8171 7.11635C11.6236 7.71414 12.4394 8.17588 13.0775 8.35497C15.1085 8.92508 17.1869 7.69824 17.7199 5.61468C18.2529 3.53121 17.0384 1.38003 15.0074 0.809918Z" fill="#B7E445"/>
<path d="M33.7582 16.1082C34.2644 12.8809 31.8671 9.92621 28.7349 9.92621C27.2406 9.92621 25.8273 10.6253 24.869 11.7975C24.2983 11.0984 23.5584 10.5552 22.7164 10.2382V6.17392C23.3836 7.59688 24.7813 8.57845 26.3939 8.57845C28.908 8.57845 30.8417 6.21216 30.4347 3.59657H33.8571C34.8035 3.59657 35.5736 2.78979 35.5736 1.79824C35.5736 0.806695 34.8036 0 33.8571 0H32.9223C32.5825 0 32.3071 0.288492 32.3071 0.644531C32.3071 1.00057 32.5825 1.28906 32.9223 1.28906H33.8571C34.1252 1.28906 34.3433 1.51748 34.3433 1.79833C34.3433 2.07917 34.1252 2.30759 33.8571 2.30759H30.0244C29.8369 1.93213 29.5979 1.58916 29.3173 1.28906H30.0513C30.3912 1.28906 30.6665 1.00057 30.6665 0.644531C30.6665 0.288492 30.3912 0 30.0513 0H24.3694C21.6466 0 19.2833 2.28276 19.2833 5.38622L18.4311 5.14697C18.6815 2.95857 17.3456 0.798789 15.1666 0.187172C14.0898 -0.115156 12.2838 -0.046664 10.5658 0.361797C9.12489 0.704344 7.34062 1.37285 7.02366 2.61198C6.81792 3.41627 7.24005 4.43377 8.27824 5.63613C8.50612 5.90004 8.8952 5.92058 9.1472 5.68176C9.3992 5.44294 9.41872 5.03542 9.19076 4.77134C8.31048 3.75177 8.16143 3.14394 8.21221 2.94559C8.28907 2.6449 9.05188 2.04351 10.8381 1.61889C12.3285 1.26448 13.9774 1.18774 14.8482 1.43223C16.3795 1.86218 17.31 3.32845 17.225 4.80837L14.639 4.08246L13.5549 2.11527C13.385 1.80692 13.0087 1.70148 12.7145 1.87937C12.4202 2.05734 12.3194 2.45154 12.4893 2.7598L12.9582 3.61066L10.6692 2.96811C10.3412 2.87607 10.0036 3.07991 9.91567 3.42384C9.82773 3.76767 10.0225 4.12105 10.3507 4.21326L14.2203 5.29951L13.3206 5.84375C13.0264 6.02173 12.9256 6.41592 13.0954 6.72418C13.2662 7.03398 13.643 7.1372 13.9359 6.96008L15.9012 5.7713L16.906 6.05335C16.2541 7.41348 14.7284 8.15109 13.2369 7.7324C12.7197 7.58725 12.0221 7.20766 11.2728 6.66359C10.9935 6.46095 10.6102 6.53374 10.4167 6.82636C10.2232 7.11889 10.2927 7.52048 10.572 7.72329C11.1822 8.16621 12.0847 8.74345 12.9184 8.97755C15.0749 9.58323 17.2756 8.43202 18.1122 6.39212L19.2833 6.72083V10.2358C18.4568 10.5446 17.7148 11.0768 17.1292 11.7957C16.171 10.6247 14.7583 9.92638 13.2648 9.92638C10.1308 9.92638 7.73577 12.8834 8.24166 16.1084C6.30129 16.8612 4.91455 18.8196 4.91455 21.1111C4.91455 23.4024 6.30129 25.3608 8.24166 26.1137C7.84274 28.6572 9.25367 31.0936 11.502 31.9659C11.033 34.9564 13.0674 37.7665 15.9395 38.1129C15.6143 41.2093 17.955 44 20.9999 44C24.0454 44 26.3853 41.2086 26.0604 38.1127C28.9202 37.7679 30.9696 34.9678 30.4976 31.9642C31.2515 31.6723 31.9378 31.195 32.4901 30.5629C32.7195 30.3003 32.7023 29.8926 32.4517 29.6522C32.201 29.4119 31.8119 29.4299 31.5824 29.6924C31.071 30.2778 30.4081 30.688 29.6855 30.8811C29.6456 30.8871 29.609 30.8966 29.5737 30.9091C28.0301 31.2708 26.4642 30.5988 25.5809 29.2861C26.002 28.3785 26.1615 27.3726 26.0603 26.4081C27.0713 26.2862 27.9931 25.8528 28.7358 25.2019C29.8342 26.1698 31.2134 26.5662 32.5569 26.4109C32.5965 26.7031 32.6058 27.0017 32.5802 27.3127C32.5511 27.6674 32.8019 27.9797 33.1404 28.0102C33.4834 28.0407 33.7774 27.7738 33.8062 27.4233C33.8409 27.0003 33.8291 26.5654 33.7582 26.1135C35.6986 25.3607 37.0853 23.4022 37.0853 21.1109C37.0853 18.8195 35.6986 16.8611 33.7582 16.1082ZM28.7349 11.2154C31.0833 11.2154 32.8825 13.4046 32.5569 15.8108C31.2144 15.6556 29.8353 16.0511 28.7358 17.0198C27.9931 16.3689 27.0714 15.9356 26.0604 15.8136C26.1615 14.8497 26.0023 13.8438 25.581 12.9357C26.3003 11.8665 27.4801 11.2154 28.7349 11.2154ZM28.3249 23.8342C28.2985 23.8588 28.2734 23.8868 28.2508 23.9169C27.5243 24.7054 26.516 25.1682 25.4219 25.1538C25.3738 25.146 25.3242 25.1442 25.2743 25.1488C23.2389 25.0394 21.615 23.2701 21.615 21.111C21.615 18.9519 23.2387 17.1827 25.274 17.073C25.3233 17.0776 25.3718 17.0761 25.4218 17.068C26.5149 17.0536 27.5235 17.5155 28.2508 18.3049C28.274 18.3359 28.2985 18.3629 28.3247 18.3874C29.6695 19.9305 29.6721 22.2881 28.3249 23.8342ZM24.3653 28.9408C24.3443 28.9719 24.3261 29.0048 24.3108 29.0389C23.6679 30.1603 22.5208 30.9299 21.2003 31.001C21.15 30.9963 21.1003 30.9982 21.0519 31.006C21.0152 31.0065 20.9818 31.0065 20.9465 31.006C20.8987 30.9983 20.8494 30.9965 20.7999 31.001C18.5286 30.879 16.8537 28.7173 17.1808 26.3991C18.8312 26.1758 20.2363 25.1213 20.9999 23.6505C21.7635 25.1213 23.1686 26.1759 24.8189 26.3991C24.9386 27.2473 24.7916 28.1478 24.3653 28.9408ZM13.7487 23.9166C13.7256 23.8859 13.7013 23.8593 13.6753 23.8348C12.33 22.2913 12.3277 19.933 13.6754 18.387C13.7019 18.3619 13.7255 18.3361 13.7487 18.3053C14.492 17.4982 15.5244 17.0393 16.6259 17.069C16.6351 17.0695 16.6444 17.0699 16.6536 17.0699C18.7225 17.1412 20.3847 18.9265 20.3847 21.111C20.3847 23.2697 18.7614 25.0388 16.7264 25.1488C16.6757 25.1439 16.6255 25.1458 16.5768 25.1538C15.5006 25.1696 14.4842 24.7151 13.7487 23.9166ZM20.5138 5.32838C20.5138 3.10105 22.2434 1.28906 24.3694 1.28906H26.3939C27.4959 1.28906 28.5702 1.95138 29.0616 3.19782C29.7947 5.15762 28.407 7.28939 26.3939 7.28939C24.6436 7.28939 23.288 5.64592 23.5658 3.81545C23.8104 3.67177 24.0844 3.59657 24.3694 3.59657H24.6216C24.161 4.88589 25.0758 6.27086 26.3939 6.27086C27.437 6.27086 28.2856 5.38184 28.2856 4.28914C28.2856 3.19645 27.437 2.30742 26.3939 2.30742H24.3694C22.7586 2.30742 21.486 3.68612 21.486 5.32821V9.95027C21.1621 9.91796 20.8351 9.9183 20.5138 9.9501C20.5138 8.93191 20.5138 6.21173 20.5138 5.32838ZM27.055 4.28923C27.055 4.67113 26.7585 4.98188 26.3939 4.98188C26.0292 4.98188 25.7327 4.67122 25.7327 4.28923C25.7327 3.90723 26.0292 3.59657 26.3939 3.59657C26.7585 3.59657 27.055 3.90732 27.055 4.28923ZM20.0259 11.3446C20.0416 11.3411 20.0572 11.337 20.0725 11.3322C21.7319 10.9056 23.4402 11.665 24.3106 13.1824C24.326 13.2169 24.3445 13.2502 24.3657 13.2816C24.7712 14.0362 24.9447 14.9315 24.8189 15.8226C23.1686 16.0459 21.7635 17.1004 20.9999 18.5713C20.2357 17.0994 18.8291 16.0444 17.1772 15.8221C17.0655 14.9342 17.2237 14.0513 17.6282 13.2901C17.6545 13.2527 17.6766 13.2125 17.6944 13.1705C18.2025 12.2877 19.0295 11.6147 20.0259 11.3446ZM13.2648 11.2154C14.5193 11.2154 15.6988 11.8662 16.4181 12.9346C16.0089 13.8206 15.8422 14.813 15.9377 15.8139C14.9274 15.9361 14.0062 16.3694 13.264 17.0198C12.1657 16.0521 10.7868 15.6556 9.44284 15.8109C9.11718 13.4037 10.9173 11.2154 13.2648 11.2154ZM6.14494 21.1109C6.14494 19.2289 7.37877 17.643 9.04343 17.1945C9.07468 17.1903 9.10602 17.1836 9.13719 17.1743C9.31192 17.1216 9.65423 17.0676 10.0044 17.0676C10.8965 17.0676 11.7368 17.3817 12.4199 17.9617C11.1063 19.8361 11.1062 22.3857 12.4199 24.2601C11.7368 24.8401 10.8965 25.1542 10.0044 25.1542C9.65497 25.1542 9.31077 25.0999 9.13719 25.0475C9.10594 25.0381 9.0746 25.0314 9.04335 25.0273C7.37869 24.5786 6.14494 22.9928 6.14494 21.1109ZM9.44284 26.411C10.7859 26.5662 12.1649 26.1705 13.264 25.202C14.0066 25.8528 14.9284 26.2863 15.9395 26.4082C15.8383 27.372 15.9975 28.378 16.4189 29.2862C15.5377 30.5958 13.976 31.2681 12.4335 30.9119C12.3916 30.8963 12.349 30.8857 12.305 30.8798C10.409 30.3695 9.16885 28.436 9.44284 26.411ZM12.7032 32.2632C14.4248 32.4621 16.0662 31.7263 17.1308 30.4243C17.9309 31.4045 19.0637 32.0781 20.3441 32.2514C20.6722 34.5752 18.9919 36.7312 16.7255 36.8534C16.6756 36.8487 16.6261 36.8506 16.5781 36.8583C14.2014 36.8923 12.3755 34.6851 12.7032 32.2632ZM20.9999 42.7109C18.6353 42.7109 16.8433 40.4956 17.1808 38.1037C18.8312 37.8804 20.2363 36.8259 20.9999 35.355C21.7635 36.8258 23.1686 37.8804 24.8189 38.1037C25.1566 40.497 23.3633 42.7109 20.9999 42.7109ZM29.2965 32.2627C29.6237 34.6778 27.8068 36.8897 25.4219 36.8583C25.3738 36.8505 25.3242 36.8487 25.2743 36.8534C23.0082 36.7314 21.3274 34.5755 21.6556 32.2514C22.936 32.0781 24.0688 31.4045 24.869 30.4242C25.9518 31.7488 27.6055 32.4606 29.2965 32.2627ZM32.9564 25.0272C32.9103 25.0333 32.8672 25.0445 32.826 25.0598C31.7206 25.3148 30.5212 25.0593 29.5799 24.26C30.8935 22.3856 30.8935 19.8361 29.5799 17.9616C30.519 17.1641 31.7192 16.9065 32.826 17.1618C32.8683 17.1775 32.9115 17.1884 32.9564 17.1944C34.6211 17.643 35.8548 19.2288 35.8548 21.1108C35.8548 22.9928 34.6211 24.5786 32.9564 25.0272Z" fill="black"/>
</g>
<defs>
<clipPath id="clip0">
<path d="M0 0H42V44H0V0Z" fill="white"/>
</clipPath>
</defs>
</svg>
