<svg width="43" height="43" viewBox="0 0 43 43" fill="none" xmlns="http://www.w3.org/2000/svg">
<g clip-path="url(#clip0)">
<path d="M19.2581 5.67743C18.9735 5.74579 18.6703 5.80928 18.4002 5.96423C17.6109 6.41682 16.9123 7.0179 16.2075 7.58824C15.3145 8.31084 14.5508 9.18067 13.9571 10.1593C13.2581 11.3114 12.6553 12.4849 12.0224 13.6755C11.7904 14.112 11.6331 14.5775 11.3939 15.0036C11.201 15.3475 10.8001 15.7208 10.6662 16.0738C10.3404 16.9323 11.5589 16.9417 11.9328 17.4425C10.3587 19.0303 10.1194 21.3124 9.86985 23.4049C9.8009 23.9827 9.12549 25.6312 9.54365 26.0114C9.98818 26.4155 11.4789 26.1634 11.9425 25.9009C12.0161 26.5592 11.5507 27.431 11.4362 28.0855C11.2758 29.002 11.2116 29.9465 11.2931 30.88C11.3603 31.6496 11.5401 33.3656 12.593 33.0338C13.1446 32.8601 13.918 31.7025 14.4734 32.1341C14.8511 32.4277 14.8804 33.5093 14.9229 33.9327C15.0165 34.8642 15.1707 35.7417 15.5359 36.6152C16.0388 37.818 16.8946 39.5475 18.2805 39.7829C18.6148 39.2683 18.4761 38.1287 18.9372 37.8285C19.8573 39.1103 20.3467 40.6477 21.2508 41.9416C21.7466 42.6512 22.0373 42.8766 22.4186 41.9029C23.0357 40.3269 23.7175 38.7212 24.1596 37.0855C24.4827 35.89 24.8144 36.1147 24.9868 37.2579C25.0825 37.8929 25.106 40.1588 26.0164 38.7962C27.0667 37.2246 28.0347 35.5895 28.6147 33.778C28.8084 33.1732 28.7756 31.9304 29.5293 32.0626C29.921 32.1314 30.3546 32.8323 30.742 32.6409C31.1568 32.4358 31.0998 31.4588 31.1432 31.0933C31.2479 30.213 31.5258 29.3891 31.6552 28.5219C31.7542 27.8592 31.6415 27.1042 31.825 26.4713C32.2465 26.4552 32.9868 27.074 33.4494 27.2365C33.5115 24.758 33.3806 22.3269 32.7396 19.9276C32.5645 19.2726 32.2444 18.6849 32.3157 17.9955C32.3966 17.214 32.8128 16.4603 32.7817 15.6645C32.717 14.0051 31.9009 12.0628 30.9461 10.7163C29.9477 9.30807 28.5712 8.19049 27.0971 7.31134C26.3541 6.86824 25.5739 6.46999 24.773 6.14203C24.3685 5.97641 23.6241 5.99262 23.3665 5.6398C22.832 4.90796 23.6618 3.41422 23.6432 2.6036C23.628 1.94188 23.6644 0.665574 22.9556 0.356596C22.3028 0.0720567 21.0314 0.620643 20.4902 1.01268C19.3084 1.86873 20.5789 3.74444 20.2788 4.892C20.1348 5.44227 19.7209 5.56632 19.2581 5.67743Z" fill="#7CC366"/>
<path d="M20.408 5.90695C20.1435 5.9906 19.9991 6.16462 19.7961 6.35089C19.1816 6.91476 18.5165 7.4374 17.9375 8.03839C16.8051 9.21358 14.1822 11.9224 15.1991 13.6983C15.617 14.4283 16.8175 14.8006 16.1553 15.8622C15.8016 16.429 14.3625 16.8538 13.7593 17.0378C12.9872 17.2733 11.981 17.3938 11.198 17.1636C10.9202 17.082 10.5789 16.9417 10.4377 16.6514C10.2818 16.3307 10.3249 16.4163 10.5373 16.0326C11.1944 14.8452 11.9745 13.7053 12.597 12.4877C13.1298 11.4456 13.4601 10.3375 14.153 9.36921C15.0203 8.15731 16.1676 7.25179 17.416 6.49022C18.1334 6.0525 19.7765 4.96969 20.408 5.90695Z" fill="#62A847"/>
<path d="M21.7521 10.218C21.3856 11.251 20.4962 12.0772 19.7406 12.8495C19.4161 13.1811 18.864 13.4447 18.6562 13.8686C18.4624 14.2639 18.4726 15.0401 18.4459 15.4767C18.2834 18.1288 18.6319 20.7284 19.8458 23.1034C20.2289 23.853 20.7202 24.7085 21.5266 25.0688C22.6898 25.5887 23.3092 24.6245 23.8535 23.7361C24.3651 22.9011 24.9943 21.9683 25.1029 20.9663C25.168 20.3659 24.9782 20.1882 24.5421 19.7828C23.2629 18.5937 21.8718 16.8305 22.7602 14.9549C22.9864 14.4773 23.3172 14.4514 23.6311 14.0991C24.0325 13.6486 23.9647 13.005 23.7816 12.4793C23.6225 12.023 22.188 9.8953 21.7521 10.218Z" fill="#62A847"/>
<path d="M16.433 15.9849C15.5399 16.8628 15.0022 18.0297 14.8643 19.2893C14.7403 20.4237 15.3564 21.3328 15.3687 22.4222C15.3892 24.2288 12.9679 25.3894 11.4376 25.7145C11.0293 25.8013 10.2755 25.992 9.91018 25.7548C9.51234 25.4966 9.54711 24.5847 9.5561 24.1128C9.58961 22.3641 10.0357 20.1615 10.904 18.6289C11.2594 18.0017 11.6677 17.6944 12.3613 17.4531C13.6162 17.0166 14.6443 16.6587 16.433 15.9849Z" fill="#62A847"/>
<path d="M20.5763 24.1034C19.391 23.6996 17.6584 24.8592 16.8805 25.6448C15.6057 26.9323 15.2428 28.8565 14.3895 30.4048C13.9539 31.195 12.0489 34.4232 11.7163 31.861C11.5616 30.6695 11.5073 29.4756 11.618 28.2716C11.6796 27.602 11.528 26.6833 11.9528 26.1163C12.3882 25.5352 13.3769 25.1846 13.9994 24.831C14.9491 24.2916 15.743 23.4891 16.4908 22.7019C16.919 22.251 17.1975 21.8153 17.4002 21.2315C17.5358 20.8408 17.5543 20.4286 18.043 20.4072C18.6074 20.3825 18.9288 21.0379 19.0647 21.4635C19.3358 22.3123 19.5526 23.3414 20.5763 24.1034Z" fill="#62A847"/>
<path d="M24.2155 23.8796C24.7838 25.0112 23.8994 26.4409 23.3196 27.3636C22.3377 28.9265 22.2664 30.4549 22.5762 32.222C22.6857 32.8467 23.2024 35.0772 22.5793 35.371C21.8906 35.6958 21.3101 34.5498 20.9944 34.1504C19.7902 32.6271 18.9466 30.5539 18.6712 28.6411C18.5389 27.7226 18.857 26.9229 19.287 26.1332C19.5563 25.6389 19.9682 24.7369 20.5761 24.676C21.3311 24.6004 21.2699 25.5955 21.9734 25.3936C22.7706 25.1648 23.384 23.7486 24.2155 23.8796Z" fill="#62A847"/>
<path d="M17.1608 29.1987C15.7842 30.5784 14.381 31.7886 14.8501 33.9143C15.2053 35.524 15.9917 37.7339 17.1608 38.9661C17.4618 39.2833 17.8755 39.6024 18.1944 39.3919C18.7689 39.0128 18.8587 37.5431 19.093 37.0096C19.4366 36.2271 19.0973 36.2232 18.757 35.4179C18.2782 34.2849 17.7933 32.8356 17.7711 31.593C17.7533 30.5988 18.3488 29.8495 18.4513 28.9303C18.5817 27.76 17.4357 29.0387 17.1608 29.1987Z" fill="#62A847"/>
<path d="M25.6152 29.9824C25.6501 31.0856 25.1587 32.2453 24.6682 33.2C24.2698 33.9754 23.9768 34.3852 24.2579 35.2441C24.5156 36.0317 24.7705 36.8181 25.0537 37.597C25.2489 38.1337 25.2146 39.0237 25.5565 39.4526C26.1971 39.1052 26.9833 37.9718 27.2512 37.3333C27.7611 36.1179 28.3561 34.4871 27.8015 33.1674C27.4751 32.3906 26.6936 32.0647 26.5371 31.1487C26.487 30.856 26.4267 29.1563 25.6152 29.9824Z" fill="#62A847"/>
<path d="M20.8561 34.7414C20.3176 35.2542 19.9268 36.0333 19.6505 36.7321C19.3369 37.5253 19.5117 37.7268 19.7799 38.504C20.0624 39.3227 20.2878 40.1098 20.6602 40.9023C20.8683 41.3453 21.1283 42.0756 21.4737 42.4117C21.9689 42.8937 22.0393 42.3513 22.1461 41.7678C22.3509 40.6481 21.9271 39.693 21.9202 38.5914C21.9179 38.2212 21.9044 37.7556 22.1865 37.4626C22.4404 37.1988 22.7087 37.2766 23.033 37.1488C23.5875 36.9306 23.7432 36.6493 23.6433 36.0907C23.5256 35.4321 23.2756 35.1962 22.6028 35.1896C22.219 35.1858 22.024 35.2369 21.6649 35.0785C21.3117 34.9229 21.1194 34.61 20.8561 34.7414Z" fill="#62A847"/>
<path d="M25.6153 21.0801C25.1908 21.6298 24.2239 22.887 24.392 23.6415C24.4546 23.9226 24.8042 24.2397 24.9386 24.495C25.174 24.9418 25.2551 25.4253 25.3758 25.909C25.724 27.3044 25.3677 29.418 26.7759 30.2636C27.4505 30.6687 28.0864 31.1307 28.7732 31.5269C29.1362 31.7363 29.9416 32.4462 30.3618 32.4501C31.0071 32.4563 31.1896 31.2786 31.2141 30.7684C31.2714 29.5791 30.9019 28.8758 29.944 28.1919C29.2836 27.7205 28.6547 27.3267 28.1773 26.6431C27.6826 25.9346 27.7032 25.2865 27.6337 24.4683C27.5132 23.0492 26.5174 22.2577 25.6153 21.0801Z" fill="#62A847"/>
<path d="M26.0073 14.8091C26.1028 16.1357 25.9277 17.6477 25.7148 18.9575C25.6508 19.351 25.3676 19.9846 25.4558 20.3656C25.5173 20.6316 25.8074 20.8587 25.9513 21.0913C26.87 22.5767 27.7302 24.2675 29.3106 25.1684C29.9819 25.5511 30.6748 25.7723 31.3965 26.0196C31.6954 26.1221 32.8011 26.9517 33.063 26.8519C33.6441 26.6304 33.0425 25.1719 32.9091 24.8669C32.2403 23.3373 31.1388 22.1503 30.117 20.8559C29.1789 19.6675 28.1392 18.6106 27.8828 17.0701C27.7132 16.0514 27.0876 14.653 26.0073 14.8091Z" fill="#62A847"/>
<path d="M22.3679 5.79483C22.1916 6.17914 22.3124 6.94718 22.3119 7.42009C22.3111 8.10658 22.2952 8.8228 22.4379 9.49552C22.6241 10.3738 22.991 11.1216 23.4304 11.8919C24.3403 13.4875 25.5347 14.7224 27.2374 15.4236C28.0529 15.7596 28.847 16.219 29.6482 16.601C30.3681 16.9443 31.4021 17.7423 32.2221 17.7204C33.2068 17.6942 32.5963 16.0114 32.3834 15.3919C31.7194 13.4595 30.4353 12.8684 28.7516 11.9699C27.785 11.454 26.6768 10.8059 25.9464 9.96801C25.3719 9.30907 25.2917 8.46595 24.9434 7.69875C24.6971 7.15655 23.4604 5.09851 22.3679 5.79483Z" fill="#62A847"/>
<path d="M20.2962 5.12302C20.6269 4.29275 20.1895 3.05599 20.0289 2.20994C19.8883 1.46919 20.0491 1.14854 20.7287 0.754486C21.8361 0.112426 22.0599 0.985023 22.0891 1.99771C22.1103 2.73089 22.0237 3.45358 22.0318 4.18735C22.037 4.64867 22.1747 5.19188 22.0359 5.62382C21.3133 5.52203 20.8279 5.3643 20.2962 5.12302Z" fill="#62A847"/>
<path d="M33.8219 21.7841C33.6649 20.9181 33.4331 20.0699 33.1192 19.2476C32.9922 18.915 32.854 18.5563 32.6891 18.209C32.7513 18.1573 32.8008 18.0868 32.8271 17.9984C33.5566 15.5429 33.0054 12.851 31.6257 10.7247C30.2556 8.61313 28.1332 7.08092 25.84 6.10519C25.1904 5.8288 24.4565 5.52729 23.7052 5.33379C23.7402 5.15222 23.7545 4.96409 23.7817 4.7784C23.8289 4.45708 23.8716 4.13525 23.9144 3.81326C24.0027 3.14743 24.1624 2.44649 24.1279 1.77218C24.0714 0.665354 23.3362 -0.159121 22.1909 0.0260649C21.2809 0.17329 19.8661 0.420791 19.6133 1.48588C19.4776 2.05773 19.681 2.66914 19.7442 3.23738C19.8078 3.80872 19.7336 4.4617 19.8681 5.03447C19.0355 5.15936 18.2252 5.62354 17.5251 6.06001C17.3926 6.12409 17.265 6.18859 17.1438 6.25216C15.9312 6.88834 14.8749 7.80554 14.0499 8.8954C12.3304 11.1668 11.653 14.0483 9.90376 16.3025C9.7389 16.515 9.75746 16.7615 9.98363 16.9221C10.4067 17.2225 10.8403 17.435 11.2798 17.5725C10.4408 18.2859 9.93131 19.3868 9.63938 20.4408C9.15185 22.2011 9.1075 24.1106 8.92366 25.9201C8.90611 26.0926 9.06937 26.3065 9.24121 26.3372C10.0571 26.4828 10.8712 26.4671 11.6603 26.3216C11.0867 27.4392 10.9178 28.7233 10.9201 29.992C10.9214 30.7428 10.999 31.5012 11.1623 32.2343C11.2892 32.8034 11.4342 33.7305 12.1809 33.7586C12.8093 33.7823 13.5088 33.1389 13.9969 32.7965C14.1905 32.6607 14.3812 32.5206 14.5704 32.3786C14.4088 33.3257 14.5472 34.3412 14.7663 35.2536C15.0803 36.561 15.6757 37.7901 16.5025 38.8496C16.7049 39.1089 16.9191 39.3582 17.1489 39.5936C17.3639 39.8139 17.6357 40.1447 17.9553 40.2064C18.7268 40.3552 18.9323 39.2095 19.1482 38.6982C19.169 38.6489 19.1895 38.5995 19.2102 38.5502C19.3071 38.8509 19.4299 39.1427 19.5232 39.3931C19.7578 40.022 20.043 40.6357 20.3536 41.2304C20.6246 41.7492 20.938 42.528 21.4419 42.8607C22.0424 43.2573 22.4558 42.7306 22.7182 42.2389C23.3758 41.0062 23.8765 39.6836 24.1877 38.3214C24.3067 37.8002 24.4057 37.2694 24.4682 36.7366C24.4997 36.8368 24.5298 36.937 24.5578 37.0374C24.7967 37.8966 24.9994 38.7581 25.1358 39.64C25.1896 39.9873 25.6958 40.0865 25.9155 39.8458C26.9732 38.6863 27.8664 37.3644 28.4976 35.9256C28.8021 35.2314 29.0571 34.5169 29.2454 33.7824C29.3378 33.4223 29.471 32.9977 29.5174 32.5829C29.9302 32.839 30.4176 33.1187 30.8603 33.0486C31.5218 32.9438 31.5757 32.1239 31.6758 31.5956C31.818 30.8449 31.909 30.0818 31.9434 29.3185C31.9757 28.5984 31.9585 27.8749 31.8873 27.1574C31.8735 27.0173 31.8606 26.8689 31.8447 26.7176C32.2827 26.9552 32.7208 27.1923 33.1594 27.4287C33.4092 27.5633 33.8226 27.4622 33.875 27.1376C34.1621 25.3576 34.1438 23.5587 33.8219 21.7841ZM23.9793 6.40619C24.6766 6.61338 25.3612 6.87339 26.0201 7.18145C27.3371 7.79714 28.5757 8.59894 29.6075 9.62842C31.5552 11.5716 32.6809 14.385 32.1563 17.1117C31.2154 16.3987 30.1614 15.9534 28.9985 15.6273C28.1939 15.4017 27.4067 15.1029 26.6765 14.6939C26.4153 14.5476 26.1186 14.4423 25.8657 14.2911C25.5759 14.1179 25.394 13.7997 25.141 13.5793C24.8281 13.3069 24.5451 12.9924 24.2835 12.6712C23.7687 12.039 23.344 11.3345 23.0244 10.5846C22.7713 9.99081 22.5988 9.37277 22.4805 8.74305C22.5737 8.10293 22.577 7.392 22.4219 6.76279C22.731 6.97166 23.0847 7.13828 23.3623 7.30743C23.992 7.69098 24.6053 8.09973 25.1658 8.58021C26.2493 9.50899 27.2082 10.7012 27.7258 12.0406C27.7833 12.1892 27.9863 12.1315 27.9624 11.9754C27.7298 10.4548 26.9335 9.1833 25.835 8.12913C25.2536 7.57122 24.6073 7.07639 23.9372 6.63001C23.7723 6.52024 23.5867 6.38771 23.3888 6.26022C23.5845 6.29987 23.7807 6.34723 23.9793 6.40619ZM19.0148 14.4525C19.2526 14.2287 19.4781 14.0065 19.6895 13.7908C20.5214 12.9416 21.2732 11.9723 21.7975 10.8986C21.7983 10.92 21.7979 10.941 21.7992 10.9627C21.8312 11.4835 21.8697 12.004 21.9024 12.5248C21.9662 13.5376 22.0193 14.5514 22.0533 15.5656C22.1209 17.5885 22.1183 19.624 22.0685 21.6472C22.0636 21.845 22.3543 21.8383 22.3716 21.6472C22.5578 19.5919 22.6539 17.5434 22.6732 15.4787C22.6826 14.4648 22.6753 13.4514 22.6435 12.4379C22.6338 12.1274 22.622 11.8171 22.6067 11.507C23.0891 12.4727 23.7364 13.3541 24.4845 14.074C24.7024 14.2837 24.9309 14.4825 25.1679 14.6706C25.1841 15.1462 25.2861 15.6332 25.3115 16.0951C25.3528 16.8439 25.3306 17.5974 25.2427 18.3421C25.0657 19.8406 24.6178 21.3198 23.9323 22.6636C23.5919 23.3311 23.1939 23.9722 22.7395 24.5682C22.684 24.641 22.4629 25.0097 22.3688 25.0191C22.339 25.0221 22.0598 24.7785 22.0314 24.7582C21.7096 24.5284 21.4107 24.2696 21.133 23.9882C20.002 22.8424 19.4127 21.4051 19.1343 19.8387C19.0266 19.2327 18.8936 18.6168 18.889 17.9988C18.8845 17.3996 18.9852 16.7948 19.0105 16.1942C19.0324 15.6744 19.1306 15.0095 19.0148 14.4525ZM20.6874 1.24821C21.0432 1.00348 21.5286 0.898075 21.9422 0.803508C22.4265 0.692817 22.9179 0.57969 23.2134 1.08318C23.4776 1.533 23.3717 2.1098 23.2978 2.59632C23.22 3.10905 23.1353 3.62068 23.0571 4.13332C23.0078 4.45616 22.9117 4.82208 22.8872 5.17288C22.2405 5.08923 21.5899 5.29054 20.9861 5.11384C20.4069 4.94436 20.6076 4.58776 20.6076 4.04514C20.6076 3.53888 20.5234 3.03657 20.4442 2.53804C20.369 2.06512 20.2287 1.56373 20.6874 1.24821ZM10.7499 16.4701C12.1849 14.4301 12.8579 11.9813 14.2195 9.89314C14.5405 9.40065 14.9054 8.94185 15.3105 8.52335C16.3819 7.78555 17.4579 6.95352 18.6385 6.3794C18.7648 6.33396 18.8919 6.29071 19.0206 6.25166C19.4132 6.13248 19.8112 6.07067 20.2106 6.01524C20.1572 6.05631 20.1048 6.09738 20.0532 6.13694C19.7433 6.37444 19.4398 6.62001 19.1453 6.8765C18.518 7.42307 17.9477 8.03305 17.4187 8.67461C16.4573 9.84039 15.3667 11.2334 15.0265 12.7334C15.0133 12.7915 15.0907 12.8499 15.1351 12.7966C15.6123 12.2225 15.9757 11.5717 16.4098 10.9654C16.8797 10.3089 17.3802 9.67721 17.9338 9.08899C18.4554 8.53469 19.0166 8.02146 19.5943 7.52637C19.9112 7.25477 20.2377 6.99467 20.5748 6.74851C20.798 6.58558 21.0447 6.42929 21.233 6.22411C21.3077 6.29911 21.3752 6.38721 21.4323 6.49202C21.6117 6.82099 21.6876 7.21076 21.7027 7.60868C21.6979 7.74137 21.6963 7.87415 21.6992 8.00702C21.6832 8.30634 21.6406 8.60045 21.5881 8.86693C21.2673 10.4952 20.3359 11.9083 19.2099 13.0974C18.971 13.3497 18.7239 13.6 18.4697 13.8456C18.4292 13.8668 18.3926 13.8987 18.365 13.9423C18.3631 13.9453 18.3617 13.9486 18.3597 13.9516C17.4612 14.8071 16.47 15.5964 15.3961 16.1796C13.9713 16.9535 12.2025 17.2645 10.7499 16.4701ZM9.82196 25.5514C9.95398 24.0248 10.028 22.4632 10.36 20.9694C10.6416 19.7021 11.2003 18.6405 12.0914 17.7435C13.8233 17.9391 15.6002 17.112 17.1425 16.0065C17.0071 16.2095 16.8754 16.4149 16.7366 16.6105C16.2402 17.3105 15.7418 18.008 15.2134 18.6845C14.1837 20.0025 13.1493 21.361 12.0091 22.5848C11.9599 22.6375 12.0335 22.7087 12.0874 22.663C13.3968 21.5506 14.6556 20.4485 15.7767 19.1371C16.3086 18.515 16.8294 17.8796 17.3154 17.2208C17.569 16.8768 17.8584 16.5219 18.0937 16.1423C18.0698 16.4417 18.0633 16.7443 18.0696 17.0478C18.0429 17.4277 18.0052 17.8068 17.9506 18.1833C17.7473 19.5833 17.3196 20.9375 16.5156 22.1123C15.0464 24.259 12.4686 25.8422 9.82196 25.5514ZM13.1852 32.2391C12.9513 32.3936 12.7147 32.5446 12.4737 32.6877C12.4166 32.7216 12.357 32.767 12.2948 32.7911C12.2905 32.7927 12.2873 32.7943 12.2837 32.7958C12.283 32.7893 12.2816 32.7822 12.2782 32.7735C12.2169 32.6163 12.1795 32.445 12.1379 32.2816C11.9725 31.6317 11.8643 30.9667 11.8262 30.2971C11.7468 28.9062 12.0223 27.5464 12.262 26.1851C14.1308 25.6765 15.8178 24.4493 16.9917 22.913C17.2332 22.597 17.4726 22.2594 17.6531 21.9039C17.7154 21.7812 17.7392 21.5258 17.8588 21.4453C18.1473 21.251 17.8861 21.8361 17.8488 21.9468C17.5664 22.7878 17.2222 23.6096 16.8439 24.4119C16.1042 25.9807 15.0848 27.4784 13.9955 28.8246C13.9014 28.9408 14.0477 29.0953 14.1622 28.9913C15.5129 27.7632 16.563 26.359 17.4749 24.7806C17.9186 24.0128 18.2846 23.2082 18.6003 22.3799C18.6792 22.173 18.7548 21.9666 18.8229 21.7595C19.1199 22.6383 19.5426 23.4606 20.1496 24.211C19.8548 24.5919 19.6627 25.0375 19.4262 25.4611C19.1187 26.012 18.7848 26.5482 18.4267 27.0677C17.7324 28.0749 16.9414 29.013 16.0728 29.8743C15.1884 30.7513 14.2249 31.5525 13.1852 32.2391ZM18.7222 37.4743C18.5764 37.8242 18.4328 38.175 18.2883 38.5255C18.2216 38.6873 18.1549 38.849 18.0882 39.0108C18.0564 39.088 18.0246 39.1651 17.9928 39.2421C17.7892 39.1088 17.5827 38.8258 17.4299 38.654C17.2323 38.4318 17.047 38.1999 16.8761 37.9564C16.2316 37.038 15.7618 36.0042 15.4949 34.9145C15.2502 33.9155 15.2642 32.9065 15.1943 31.8931C15.3628 31.7567 15.53 31.6186 15.6941 31.477C16.4552 30.8209 17.1631 30.1074 17.8181 29.3471C17.569 30.1418 17.476 31.0194 17.4136 31.7498C17.2893 33.2072 17.3326 34.7827 17.7193 36.1935C17.7311 36.2363 17.8043 36.2423 17.8121 36.1935C18.0332 34.8083 17.9645 33.3765 18.1272 31.9769C18.2107 31.2586 18.3212 30.5485 18.513 29.8503C18.5305 29.7865 18.5492 29.7226 18.5678 29.6588C18.5828 29.7519 18.5982 29.8451 18.6161 29.9396C18.7821 30.8147 19.0407 31.6694 19.379 32.4932C19.6123 33.0612 19.8918 33.6512 20.2399 34.1933C20.1487 34.3143 20.0602 34.4366 19.9847 34.5653C19.8178 34.8501 19.6955 35.1523 19.5683 35.4558C19.2862 36.1287 19.0028 36.8009 18.7222 37.4743ZM23.6958 35.8779C23.6229 36.4629 23.5484 37.0472 23.4325 37.6255C23.2092 38.7397 22.8703 39.8404 22.4075 40.8788C22.2904 41.1417 22.1658 41.4013 22.0341 41.6573C21.9846 41.7535 21.9319 41.9429 21.8499 42.0038C21.8085 42.0885 21.8012 42.0963 21.8279 42.027C21.7992 41.9824 21.7705 41.9378 21.7418 41.8932C21.4856 41.3743 21.1375 40.8928 20.8716 40.3755C20.5969 39.8412 20.3504 39.291 20.1224 38.7352C19.971 38.3664 19.8604 37.8923 19.6351 37.538C19.8027 37.1366 19.9698 36.7349 20.1367 36.333C20.2638 36.0265 20.6336 34.5929 21.1412 35.2937C21.2817 35.4876 21.2759 35.8661 21.2865 36.096C21.3126 36.6646 21.2182 37.2613 21.2283 37.8114C21.2427 38.5964 21.1816 39.6142 21.5489 40.3297C21.5734 40.3773 21.6449 40.3627 21.6589 40.3153C21.77 39.9411 21.7466 39.5271 21.7582 39.1394C21.7707 38.7239 21.7962 38.3077 21.8413 37.8943C21.8889 37.4584 21.9646 37.0247 22.0258 36.5905C22.0556 36.3787 22.1054 36.1613 22.09 35.9553C22.7495 36.2507 23.3108 35.9215 23.7529 35.3939C23.7318 35.5548 23.7157 35.7172 23.6958 35.8779ZM23.7923 33.7706C23.5746 34.1592 22.9818 35.3513 22.4443 35.1557C21.3108 34.7432 20.6121 33.2625 20.164 32.2499C19.5694 30.9059 19.2654 29.465 18.9947 28.0272C19.0034 27.9695 19.0124 27.9118 19.0186 27.8539C19.0198 27.8431 19.0176 27.834 19.0166 27.8243C19.3444 27.3667 19.6543 26.8964 19.9428 26.4128C20.2327 25.9266 20.5645 25.4161 20.7522 24.8699C20.9132 25.0259 21.0806 25.1754 21.2554 25.316C21.5615 25.5623 21.7903 25.6409 21.8556 26.0493C21.915 26.4209 21.8431 26.8011 21.8763 27.1746C21.93 27.7762 21.9845 28.3785 22.0224 28.9814C22.0586 29.5551 22.084 30.1292 22.0911 30.704C22.0978 31.2515 22.0623 31.8152 22.1874 32.3521C22.198 32.3973 22.2725 32.4119 22.2929 32.3658C22.5119 31.8719 22.5623 31.3228 22.6146 30.79C22.6737 30.1887 22.7154 29.5853 22.7315 28.9813C22.7477 28.3778 22.7429 27.7767 22.6994 27.1746C22.6625 26.6613 22.4461 26.1051 22.8849 25.7155C23.3712 25.2837 23.7472 24.7845 24.1044 24.2295C24.13 24.1898 24.1541 24.1491 24.1792 24.1091C24.2591 24.5619 24.4078 25.017 24.4967 25.4416C24.6612 26.2268 24.8059 27.0139 24.8753 27.8141C24.9957 29.2009 24.9242 30.6006 24.5421 31.9438C24.3614 32.5798 24.1155 33.1936 23.7923 33.7706ZM28.4079 33.4025C28.232 34.1324 27.9963 34.8511 27.6947 35.5389C27.2245 36.6113 26.6169 37.6046 25.8734 38.4986C25.7503 37.8972 25.5972 37.3014 25.3989 36.7219C25.1466 35.9849 24.8681 35.1591 24.3694 34.5464C24.5916 34.1968 24.7885 33.8313 24.9559 33.4512C25.3431 32.5717 25.5925 31.641 25.7238 30.6923C25.8519 31.1301 25.9542 31.5829 26.0121 32.032C26.1489 33.0921 26.1409 34.1682 26.185 35.2337C26.1914 35.3901 26.4452 35.4438 26.4732 35.2728C26.6616 34.1244 26.7467 32.9693 26.6484 31.8065C26.6041 31.2829 26.5323 30.7706 26.389 30.2656C26.7505 30.618 27.134 30.9452 27.5343 31.2547C27.9048 31.5412 28.2869 31.8115 28.6802 32.0651C28.5342 32.4877 28.5111 32.9742 28.4079 33.4025ZM30.8415 30.6788C30.7975 30.9806 30.7432 31.281 30.6805 31.5795C30.6529 31.7109 30.6 31.8514 30.5896 31.9855C30.5868 31.9916 30.5849 31.9963 30.5824 32.0021C30.5666 31.9985 30.549 31.9951 30.5286 31.992C30.3524 31.8488 30.0707 31.7632 29.8694 31.6536C29.6093 31.5119 29.3532 31.3627 29.1015 31.2064C28.6322 30.9149 28.1759 30.5991 27.7428 30.256C27.3354 29.9332 26.9398 29.5971 26.5521 29.251C26.3282 29.0513 26.0933 28.7627 25.8277 28.5556C25.7959 27.6513 25.6782 26.7495 25.5081 25.8615C25.3469 25.0196 25.1992 23.9547 24.6856 23.2304C24.9736 22.6826 25.2242 22.1143 25.4357 21.5319C25.3287 22.0406 25.5111 22.5943 25.703 23.0699C25.9908 23.7831 26.3829 24.458 26.7571 25.1282C27.5139 26.484 28.2953 27.8346 29.3093 29.0092C29.407 29.1224 29.5552 28.9781 29.5019 28.8605C28.9025 27.5369 28.1564 26.2846 27.4884 24.9917C27.1524 24.3412 26.8022 23.6873 26.5272 23.0081C26.5087 22.9625 26.4917 22.9165 26.4751 22.8702C26.7939 23.314 27.1575 23.7265 27.559 24.0929C28.2893 24.7594 29.146 25.2394 30.0068 25.7139C30.2699 25.8589 30.5339 26.0022 30.7975 26.1463C30.8228 26.4325 30.8774 26.7204 30.9034 26.9919C30.9616 27.6 30.9944 28.2084 30.9851 28.8194C30.9753 29.4408 30.931 30.0637 30.8415 30.6788ZM33.0181 26.2535C33.0237 26.2025 31.5616 25.4314 31.4281 25.3548C30.9594 25.0858 30.3912 24.8899 29.8977 24.63C29.3434 24.3381 28.797 24.0245 28.3093 23.6288C27.6521 23.0954 27.0918 22.447 26.6589 21.7199C26.3473 21.1967 26.1417 20.613 25.8791 20.0636C25.929 19.8569 25.9742 19.6491 26.0143 19.4406C26.1994 18.4792 26.2884 17.4958 26.2661 16.5168C26.2625 16.3604 26.2593 16.1951 26.2537 16.0262C26.3379 16.1332 26.4354 16.2353 26.5189 16.3304C26.7972 16.6472 27.075 16.9641 27.3512 17.2829C27.902 17.9189 28.4434 18.5594 28.955 19.2276C29.4574 19.8837 29.9282 20.5636 30.3353 21.2834C30.538 21.6418 30.7273 22.0092 30.8984 22.3839C31.0745 22.7695 31.1841 23.2204 31.4306 23.5682C31.4839 23.6433 31.5936 23.615 31.601 23.5221C31.6584 22.792 31.2273 21.9239 30.9394 21.268C30.5851 20.4607 30.1529 19.6906 29.6761 18.9498C29.2158 18.2344 28.692 17.5576 28.1589 16.8953C27.9094 16.5853 27.6489 16.2843 27.3875 15.9843C27.5545 16.0541 27.7233 16.1197 27.8942 16.1794C28.6197 16.4327 29.382 16.5759 30.0928 16.8726C30.5953 17.0824 31.0657 17.3578 31.5004 17.6823C31.6946 18.2977 32.0047 18.8988 32.214 19.4974C32.4867 20.2779 32.7049 21.0819 32.8584 21.8943C33.129 23.3264 33.1785 24.8037 33.0181 26.2535Z" fill="black"/>
</g>
<defs>
<clipPath id="clip0">
<path d="M0 0H43V43H0V0Z" fill="white"/>
</clipPath>
</defs>
</svg>
