<svg width="44" height="43" viewBox="0 0 44 43" fill="none" xmlns="http://www.w3.org/2000/svg">
<path d="M27.5134 10.7661C27.8656 10.2331 28.1483 5.00024 31.9584 5.00024C35.7685 5.00024 35.4014 8.40641 37.6733 10.1254C40.2133 12.0474 43.1053 11.3374 42.997 15.2084C42.907 18.4248 38.5414 18.2183 37.9064 20.1402C37.2715 22.0622 38.9433 23.5788 37.0384 25.5007C35.0303 27.5267 30.1564 24.7561 28.1484 26.782C24.3384 30.6259 19.2584 35.1105 16.0834 31.9072C12.9084 28.7039 17.3532 23.5787 21.1634 21.0162C24.5465 18.7407 20.9854 16.2502 22.4332 13.3284C23.7034 10.7661 26.2434 12.688 27.5134 10.7661Z" fill="#809E39"/>
<path d="M13 37.1821L9.18182 41.0002L6 37.8184L7.14068 36.6777L8.04114 35.7773L9.81818 34.0002L13 37.1821Z" fill="#F2DEC2"/>
<path d="M12.5169 34.9371C11.2692 33.2803 12.5169 31.0637 13.7611 29.7721C15.0053 28.4804 18.1158 27.8351 18.738 25.8987C19.3601 23.9622 18.6352 21.0478 21.1486 19.1464C24.2073 16.8329 25.9277 18.5117 27.8362 18.0165C30.3246 17.3709 31.673 13.1807 34.8867 14.1432C37.5825 14.9498 37.1159 17.0485 38.3601 19.6311C39.5405 22.0802 43 22.1292 43 25.2523C43 29.7718 39.3349 29.5195 36.1568 29.1261C33.3315 28.7764 34.1538 32.0802 30.843 33.6187C27.3697 35.2327 25.3516 31.8674 23.7147 32.9999C21.8485 34.2915 16.3378 40.0105 12.5169 34.9371Z" fill="#85A33E"/>
<path d="M12.9784 33.9754C14.567 35.1616 18.0769 35.3081 19.5769 34.4668C23.8654 32.0614 23.8654 29.0545 25.0906 27.8518C26.8767 26.0986 29.4678 26.7043 30.6043 24.8451C32.4422 21.8383 28.9042 20.6456 29.379 18.8314C29.9981 16.4661 33.5491 16.1308 32.9272 12.7428C32.4444 10.1125 30.1321 10.5932 27.6557 9.41054C25.3064 8.28861 25.2595 5.00024 22.2645 5.00024C17.931 5.00024 18.1729 8.48407 18.5501 11.5049C18.8854 14.1905 15.7175 13.4089 14.2423 16.5559C12.6945 19.8575 15.9216 21.7757 14.8356 23.3315C13.5974 25.1055 8.11353 30.3436 12.9784 33.9754Z" fill="#8BAB43"/>
<path d="M24.1113 25.1023C20.6042 25.8105 20.3334 30.824 17.6313 32.4939C15.2668 33.9551 12.1482 33.956 9 33.3203C9 33.3203 11.5185 39.0803 18.4704 38.3746C19.262 38.3009 20.046 38.1611 20.8141 37.9566C21.8924 38.6063 22.5071 40.3602 24.396 40.3602C27.5442 40.3602 27.8887 37.8003 29.7776 37.8003C31.2617 37.8003 32.2962 41.0002 35.4444 41.0002C37.9629 41.0002 38.1728 38.8243 38.5925 37.8173C39.0122 36.8103 43 37.8173 43 34.0028C43 32.3843 42.0207 31.4315 40.5148 31.1047C39.4363 30.8705 37.0988 31.603 36.7112 30.104C36.639 29.8251 36.639 29.5334 36.6224 29.2456C36.5922 28.714 36.5031 28.1788 36.2823 27.6952C36.1434 27.3851 35.9411 27.1075 35.6884 26.88C35.4357 26.6524 35.1381 26.4801 34.8148 26.374C32.9255 25.738 32.2959 27.0096 29.7774 27.0096C27.7023 27.0096 27.2595 24.4665 24.1113 25.1023Z" fill="#94B54A"/>
<path d="M19.9905 17.641C19.9905 15.2331 21.262 14.6313 20.626 12.8252C20.5198 12.5161 20.3475 12.2317 20.12 11.9902C19.8925 11.7486 19.6148 11.5553 19.3049 11.4226C18.8213 11.2114 18.286 11.1262 17.7544 11.0973C17.4664 11.082 17.1749 11.0815 16.896 11.0125C15.397 10.6417 16.1296 8.40722 15.8954 7.37618C15.5686 5.93649 14.6158 5.00024 12.9973 5.00024C9.1829 5.00024 10.1894 8.81258 9.1829 9.21387C8.17644 9.61516 6 9.81608 6 12.2235C6 15.2333 9.19994 16.2222 9.19994 17.641C9.19994 19.4468 6.63999 19.4468 6.63999 22.4569C6.63999 24.2627 8.39388 25.1797 9.04362 26.2106C5.36001 33.2918 12.9787 37.0002 12.9787 37.0002C12.3429 33.9906 13.0451 31.5146 14.5066 29.2541C16.1765 26.6707 21.1899 26.4118 21.8981 23.0591C22.5334 20.0488 19.9905 19.6254 19.9905 17.641Z" fill="#9BBC50"/>
<path d="M40.9258 30.9318C40.6931 30.8882 40.4563 30.8687 40.2194 30.8736C39.6519 30.8859 39.0807 31.0246 38.5236 30.9202C37.9665 30.8158 37.4143 30.3405 37.5142 29.7969C39.3804 30.3457 41.5742 29.8472 42.8734 28.4326C44.1726 27.0179 44.4039 24.7219 43.2744 23.1752C42.2094 21.7165 40.2205 21.085 39.2101 19.5899C40.71 19.1795 42.1103 18.2666 42.844 16.9289C43.5776 15.5912 43.5315 13.8155 42.5297 12.6543C41.2963 11.2245 39.0646 11.0344 37.6372 9.78736C36.3831 8.69178 35.9246 6.9357 34.7049 5.80397C34.2025 5.33785 33.5909 4.99809 32.9232 4.81415C32.2554 4.63022 31.5516 4.60767 30.8728 4.74847C30.194 4.88926 29.5608 5.18915 29.0281 5.62211C28.4953 6.05507 28.0792 6.60803 27.8157 7.233L28.9589 7.80194C29.6094 6.16899 31.9537 5.45301 33.4459 6.43163C34.9458 7.41555 35.2685 9.47926 36.59 10.6815C37.4454 11.4598 38.6181 11.7886 39.6843 12.26C40.7505 12.7314 41.8281 13.4832 42.058 14.6011C42.2426 15.4985 41.8117 16.438 41.1406 17.0792C40.4695 17.7204 39.5876 18.1076 38.7017 18.4146L37.9626 16.1775C38.8238 16.0279 39.6529 15.7374 40.4146 15.3185L39.6907 14.252C39.0751 14.8208 38.1227 14.9243 37.2996 14.7225C36.4765 14.5208 35.7501 14.059 35.0411 13.6049L36.6255 12.0803L35.7081 11.1873L33.6256 13.2524C32.8521 11.6313 32.6129 9.81688 32.941 8.0582L31.8298 7.51286C31.5514 8.26117 31.4085 9.05083 31.4074 9.84671C29.9014 9.53347 28.3283 9.18906 27.1537 8.21944C25.9943 7.26252 25.3579 5.79884 24.159 4.88944C22.846 3.89345 20.921 3.73577 19.4555 4.50398C17.99 5.2722 17.0658 6.92363 17.1975 8.53875L18.4704 8.58855C18.4089 8.01313 18.5192 7.43264 18.7881 6.9167C19.0569 6.40075 19.473 5.97125 19.9863 5.67969C20.4997 5.38812 21.0885 5.24688 21.6822 5.27288C22.276 5.29889 22.8494 5.49105 23.3337 5.82631C24.5854 6.69247 25.0304 8.34247 26.2191 9.28953C27.193 10.0652 28.5076 10.2524 29.7043 10.6306C30.901 11.0087 32.1559 11.7738 32.3434 12.9849C32.5388 14.2477 31.5014 15.3447 30.5252 16.1975C29.549 17.0503 28.4627 18.0635 28.5201 19.3392C28.5849 20.7725 30.0849 21.8099 30.2957 23.23C30.3576 23.7118 30.2678 24.2005 30.0381 24.6316C29.8085 25.0626 29.4498 25.4155 29.0095 25.6437C28.762 25.776 28.4817 25.8392 28.1997 25.8262C27.8139 25.7946 27.4769 25.5745 27.1333 25.4013C25.5742 24.6154 23.5516 24.8003 22.1701 25.855C20.3527 27.2426 19.8452 29.7233 18.3225 31.4139C17.7098 32.084 16.9519 32.6131 16.1034 32.9629C15.2549 33.3128 14.3371 33.4746 13.4164 33.4368C13.6631 31.7072 14.5513 30.1252 15.9136 28.989C17.2247 27.9044 18.8863 27.3055 20.2868 26.3324C21.6873 25.3593 22.8792 23.7524 22.5116 22.1161C24.1537 22.0169 25.7522 21.5619 27.1904 20.7843L26.4962 19.7189C25.1735 20.4256 23.6955 20.8123 22.187 20.8464C21.6524 19.4717 22.5356 17.9938 23.3812 16.7761C25.8627 16.7034 28.2702 15.9367 30.3159 14.5675L29.5819 13.5249C27.9159 14.6395 25.979 15.3098 23.964 15.4691L26.1884 10.5973L24.9829 10.1503L23.8694 12.5376C23.2066 11.8553 22.7125 11.0347 22.4246 10.1384C22.1366 9.24217 22.0625 8.29378 22.2079 7.36543L20.9374 7.09157C20.5283 9.52179 21.4437 12.126 23.2967 13.803L20.883 18.7554C20.3877 18.051 20.4614 17.1066 20.6917 16.283C20.922 15.4594 21.2896 14.6579 21.3236 13.8048C21.3941 12.0427 19.7785 10.3857 17.967 10.3623C17.4451 10.3555 16.804 10.4127 16.5252 9.98348C16.3874 9.77079 16.3936 9.50167 16.4049 9.25031C16.4496 8.24801 16.4911 7.21153 16.1146 6.2779C15.8859 5.72686 15.5225 5.23849 15.056 4.85518C14.5894 4.47187 14.0338 4.20521 13.4373 4.07836C11.1394 3.61273 9.24183 5.29233 8.90966 7.42375C8.86231 7.72784 8.83718 8.05512 8.643 8.29733C8.39223 8.61049 7.9472 8.68231 7.55657 8.79785C6.91917 8.99591 6.34916 9.35911 5.90768 9.8485C5.46619 10.3379 5.16986 10.935 5.05048 11.5759C4.73695 13.4004 5.93122 15.1567 7.32436 16.4148C7.71921 16.7713 8.16497 17.1622 8.2081 17.6848C8.26891 18.4281 7.51554 18.9482 6.97006 19.4718C5.27344 21.1002 5.37462 24.1458 7.17583 25.6641C7.45149 25.8966 7.7801 26.1297 7.84261 26.4797C7.88663 26.7262 7.7848 26.9722 7.69529 27.2067C6.23898 31.022 8.02835 35.7449 11.6804 37.7264L8.92474 40.415L6.59888 38.151L7.3032 37.4653L8.46609 38.5975L9.38347 37.7046L8.22042 36.5726L8.78886 36.0193L7.87179 35.1268L5.37519 37.5546C5.22617 37.6995 5.06912 37.8595 5.04002 38.0625C4.99834 38.3528 5.22844 38.6061 5.44143 38.8132L8.30045 41.5927C8.45409 41.7421 8.62395 41.8996 8.8392 41.9277C9.14349 41.9672 9.40788 41.7383 9.62444 41.5268L12.8121 38.4088C14.9838 39.4137 17.4408 39.6736 19.7835 39.1461C20.0408 39.0874 20.3068 39.0188 20.5659 39.07C21.0127 39.1584 21.3009 39.5648 21.6021 39.898C23.0843 41.5378 25.9647 41.7183 27.6505 40.2768C28.4379 39.6038 29.2943 38.5613 30.2711 38.9304C30.5564 39.0381 30.7796 39.2569 30.9949 39.4686C32.2247 40.6781 33.6563 41.9245 35.4029 41.9973C36.9555 42.062 38.4919 41.0485 39.0054 39.6208C39.1033 39.3485 39.1696 39.0596 39.3351 38.8202C39.7687 38.1932 40.6694 38.1392 41.4103 37.9126C43.0936 37.3984 44.2409 35.5839 43.9542 33.8894C43.7063 32.4243 42.4123 31.2084 40.9258 30.9318ZM29.8161 19.1073C30.0257 18.3056 30.663 17.764 31.4011 17.1368C32.0973 16.5449 32.8767 15.8808 33.2851 14.9112C33.4009 14.8726 33.5197 14.843 33.6403 14.8229C34.028 14.7609 34.4252 14.7891 34.7997 14.9049C35.5699 15.1271 36.0659 15.459 36.4085 15.9814C36.7098 16.44 36.8908 17.0304 37.1005 17.7139C37.7459 19.8189 38.6031 21.2087 40.5201 22.45C41.7116 23.2221 42.6528 23.8315 42.6528 25.279C42.6528 26.5101 42.3532 27.3689 41.7366 27.9051C40.7748 28.7416 39.0845 28.7528 37.3362 28.587C37.2777 28.3585 37.1985 28.1355 37.0994 27.9207C36.9217 27.5365 36.6641 27.1924 36.3428 26.9101C36.0215 26.6277 35.6436 26.4134 35.2329 26.2805C33.9742 25.8672 33.1191 26.1542 32.292 26.4316C31.6428 26.6495 30.9715 26.8748 29.9326 26.8748C29.7847 26.8749 29.6374 26.8565 29.4944 26.82C29.5071 26.8137 29.5194 26.8081 29.5322 26.8015C29.8412 26.6456 32.3712 24.984 33.3657 24.3397C34.9197 25.1357 36.6476 25.5565 38.4036 25.5666C38.9265 25.5741 39.4488 25.5277 39.9618 25.4284L39.6684 24.1983C39.6435 24.204 37.3957 24.6876 34.622 23.5224C36.4134 22.3484 37.5801 21.5509 37.5936 21.5415L36.8477 20.5084C36.8343 20.5176 35.6792 21.3071 33.9014 22.4723C33.1879 19.7142 34.4101 17.8249 34.4665 17.7399L33.9233 17.3946L33.3819 17.0469C33.3089 17.1551 31.6507 19.6638 32.7657 23.2115C32.3819 23.4605 31.9949 23.7099 31.6047 23.9594C31.8399 22.5455 31.0791 21.4921 30.4976 20.6874C29.9991 19.9976 29.6994 19.5523 29.8161 19.1073ZM9.82989 34.4275C8.96217 33.2668 8.47231 31.8792 8.42369 30.4445C8.37506 29.0097 8.76991 27.5938 9.55714 26.3799C10.8298 26.5581 12.1269 26.4678 13.3605 26.115C14.5941 25.7622 15.7353 25.1552 16.7066 24.3351L15.873 23.3714C15.0756 24.0447 14.1444 24.5512 13.1374 24.8594C12.1304 25.1675 11.0691 25.2709 10.0193 25.1629L11.0069 22.7075C11.0839 22.516 11.1645 22.319 11.3118 22.1716C11.4554 22.0279 11.6492 21.9445 11.8361 21.8603C14.5058 20.6488 16.7035 18.6321 18.1033 16.1093L16.9677 15.5068C15.7717 17.618 13.9745 19.3481 11.7924 20.4888C12.101 19.2514 12.2171 17.9759 12.137 16.7049C12.1253 16.5194 12.1111 16.3243 12.1929 16.1564C12.2737 16.0199 12.3829 15.9013 12.5135 15.8082C13.7958 14.7336 14.7556 13.3415 15.2916 11.7793L14.0632 11.3791C13.6266 12.6294 12.881 13.756 11.8922 14.66C11.617 13.3082 11.2541 11.9747 10.8057 10.6676L9.5659 11.1082C11.5079 15.5956 11.091 20.9822 8.48011 25.1356C7.04278 24.2609 6.58745 22.1632 7.53832 20.7969C8.18037 19.8742 9.35534 19.2406 9.5462 18.1418C9.67073 17.425 9.31788 16.7036 8.84626 16.14C8.37463 15.5763 7.78228 15.1186 7.2989 14.5644C6.75739 13.9434 6.35241 13.179 6.31025 12.3655C6.26809 11.552 6.63837 10.6943 7.35339 10.2712C8.06841 9.84813 9.0663 9.86352 9.58909 9.22726C9.78327 8.99097 9.88096 8.6951 9.97412 8.40648C10.2085 7.68325 10.3442 6.50685 10.8874 5.94509C11.4306 5.38332 12.5039 5.16684 13.2422 5.33802C13.6457 5.43611 14.0174 5.63171 14.3227 5.90672C14.6279 6.18173 14.857 6.52725 14.9887 6.91132C15.2193 7.60882 15.1059 8.36244 15.0956 9.09507C15.0853 9.82769 15.221 10.6362 15.7984 11.1065C16.7378 11.8716 18.3064 11.3432 19.2766 12.0713C19.9937 12.6097 20.0955 13.6384 19.9052 14.5004C19.7149 15.3624 19.2998 16.1745 19.2012 17.0508C19.1204 17.7834 19.2649 18.5229 19.6164 19.1754C20.0901 20.0506 20.9241 20.7433 21.199 21.6959C21.6131 23.1317 20.5899 24.6156 19.3429 25.4817C18.0959 26.3479 16.602 26.8362 15.3751 27.729C12.739 29.6473 11.7808 33.1256 11.9098 36.3268C11.0968 35.8307 10.3904 35.1857 9.82989 34.4275ZM40.0251 36.9755C39.2491 37.1393 38.5161 37.294 38.2466 37.925C38.1668 38.1115 38.0983 38.3191 38.0258 38.539C37.6127 39.7905 37.2014 40.6765 35.6623 40.6765C34.0444 40.6765 33.0506 39.7058 32.1737 38.849C31.4739 38.1654 30.8129 37.5196 29.9326 37.5196C28.8462 37.5196 28.1715 38.1249 27.5194 38.7102C26.7545 39.3967 26.032 40.0451 24.4915 40.0451C23.5163 40.0451 22.9829 39.4671 22.3652 38.7982C22.2733 38.6986 22.1806 38.5981 22.0855 38.4992C22.4959 38.3407 22.9096 38.1728 23.3348 38.0001C25.8814 36.9662 28.5143 35.8969 31.8292 36.3637C33.4896 36.5992 35.1244 36.9819 36.7133 37.5069L36.9353 36.9138L37.1576 36.3206C37.1057 36.3021 36.3822 36.0476 35.2474 35.7571C35.9758 34.8033 36.8092 34.4513 36.8161 34.4485L36.3279 33.2786C36.2655 33.3032 34.9017 33.8583 33.8999 35.4443C33.3203 35.3234 32.6863 35.2084 32.0149 35.114C30.9392 34.9622 29.8476 34.9489 28.7683 35.0745C29.9942 31.4177 32.5132 30.716 32.6281 30.6859L32.4641 30.0751L32.3044 29.4631C32.1539 29.5003 28.6925 30.4107 27.3432 35.3132C26.0147 35.6031 24.791 36.0522 23.6395 36.5106C23.0564 33.0411 25.7811 29.1055 25.8106 29.0637L25.2755 28.7071L24.7404 28.3502C24.6043 28.5434 21.5464 32.9505 22.415 37.005C21.7309 37.2812 21.0732 37.5395 20.4167 37.7532L20.4211 37.7663C19.7677 37.9199 19.1039 38.028 18.4348 38.0899C16.5524 38.2763 14.8411 37.9932 13.3425 37.2493C13.1899 36.4255 13.1418 35.5865 13.1994 34.7512C15.0672 34.6807 16.6785 34.2461 17.9939 33.4533C19.3245 32.6509 20.1019 31.2194 20.8536 29.835C21.7623 28.1619 22.6206 26.581 24.3318 26.2441C25.8902 25.937 26.6106 26.4759 27.4447 27.0999C28.0951 27.5865 28.8323 28.1381 29.9328 28.1381C31.1895 28.1381 32.0356 27.854 32.7154 27.626C33.4763 27.3705 33.9791 27.2017 34.8189 27.4776C35.0617 27.5547 35.2852 27.6806 35.4748 27.8472C35.6644 28.0138 35.8159 28.2174 35.9194 28.4447C36.081 28.7901 36.1747 29.2167 36.2059 29.7476C36.2087 29.7957 36.2109 29.8438 36.2132 29.8921C36.2175 30.1698 36.2518 30.4463 36.3154 30.717C36.7208 32.2463 38.4425 32.183 39.5828 32.1412C39.9875 32.1263 40.4061 32.111 40.6512 32.1629C41.9792 32.4438 42.6528 33.1983 42.6528 34.4046C42.6528 36.421 41.317 36.7029 40.0251 36.9755Z" fill="black"/>
</svg>
