<svg width="43" height="43" viewBox="0 0 43 43" fill="none" xmlns="http://www.w3.org/2000/svg">
<path d="M28.0379 8.0454C26.13 9.31661 25.1573 11.2084 25.8652 12.2708C26.5731 13.3333 28.6936 13.164 30.6014 11.8928C32.5093 10.6216 33.482 8.72979 32.7741 7.66736C32.0662 6.60493 29.9457 6.77418 28.0379 8.0454Z" fill="#8CE16E"/>
<path d="M32.7744 7.66748C33.4823 8.72988 32.5097 10.6217 30.6019 11.8929C28.6941 13.1642 26.5736 13.3332 25.8657 12.2708L32.7744 7.66748Z" fill="#7DC86E"/>
<path d="M14.9621 8.04495C13.0543 6.77374 10.9338 6.60449 10.2259 7.66692C9.51795 8.72935 10.4907 10.6211 12.3986 11.8924C14.3064 13.1636 16.4269 13.3328 17.1348 12.2704C17.8427 11.208 16.87 9.31617 14.9621 8.04495Z" fill="#8CE16E"/>
<path d="M10.2258 7.66748C9.51788 8.72988 10.4905 10.6217 12.3983 11.8929C14.3061 13.1642 16.4265 13.3332 17.1344 12.2708L10.2258 7.66748Z" fill="#7DC86E"/>
<path d="M21.5143 12.1639C23.1008 12.1639 24.387 9.59166 24.387 6.41863C24.387 3.24559 23.1008 0.67334 21.5143 0.67334C19.9277 0.67334 18.6416 3.24559 18.6416 6.41863C18.6416 9.59166 19.9277 12.1639 21.5143 12.1639Z" fill="#8CE16E"/>
<path d="M18.6421 6.41863C18.6421 9.59164 19.9282 12.1639 21.5148 12.1639V0.67334C19.9282 0.67334 18.6421 3.24561 18.6421 6.41863Z" fill="#7DC86E"/>
<path d="M21.5149 17.9092C27.4643 17.9092 32.2873 21.2958 32.2873 27.2453C32.2873 34.427 22.9512 36.5814 21.5149 40.1723C20.0786 36.5814 10.7424 34.427 10.7424 27.2453C10.7424 21.2958 15.5654 17.9092 21.5149 17.9092Z" fill="#FF556E"/>
<path d="M25.8688 36.1794C27.2171 35.2404 28.6426 34.2216 29.8093 32.9906C29.8093 32.9906 29.8094 32.9906 29.8095 32.9905H13.2202C13.2203 32.9905 13.2204 32.9906 13.2204 32.9906C14.3871 34.2215 15.8126 35.2404 17.1609 36.1794C19.1373 37.5524 20.9459 38.75 21.5148 40.1721C22.0838 38.75 23.8924 37.5524 25.8688 36.1794Z" fill="#FF96A0"/>
<path d="M16.4876 27.2453L16.5397 25.809C16.7086 23.2627 17.3255 21.277 18.2215 19.9329C18.4084 19.6526 18.4024 19.2851 18.2353 18.9925C18.0295 18.6324 17.5992 18.45 17.2054 18.5799C13.4035 19.8346 10.7424 22.8302 10.7424 27.2453C10.7424 31.5544 14.1025 34.0537 17.1009 36.1394C17.8498 36.6603 18.7922 35.8288 18.3689 35.0208C17.3842 33.1415 16.4876 30.8138 16.4876 27.2453Z" fill="#D74664"/>
<path d="M17.117 36.1463C17.8635 36.6417 18.7876 35.8202 18.3674 35.0179C18.0449 34.402 17.7356 33.7304 17.4605 32.9905H13.2202C14.3731 34.2069 15.7809 35.2168 17.117 36.1463Z" fill="#FF6F82"/>
<path d="M20.7966 30.1628H19.3603C18.9885 30.1628 18.687 30.4643 18.687 30.8361C18.687 31.2079 18.9884 31.5094 19.3603 31.5094H20.7966C21.1684 31.5094 21.4699 31.208 21.4699 30.8361C21.4698 30.4643 21.1684 30.1628 20.7966 30.1628Z" fill="black"/>
<path d="M25.1054 27.2006H26.5417C26.9135 27.2006 27.215 26.8992 27.215 26.5273C27.215 26.1555 26.9136 25.854 26.5417 25.854H25.1054C24.7336 25.854 24.4321 26.1554 24.4321 26.5273C24.4322 26.8991 24.7336 27.2006 25.1054 27.2006Z" fill="black"/>
<path d="M17.2059 25.854H16.4878C16.116 25.854 15.8145 26.1554 15.8145 26.5273C15.8145 26.8991 16.1159 27.2006 16.4878 27.2006H17.2059C17.5777 27.2006 17.8792 26.8992 17.8792 26.5273C17.8792 26.1555 17.5777 25.854 17.2059 25.854Z" fill="black"/>
<path d="M20.7966 21.5449C20.4248 21.5449 20.1233 21.8463 20.1233 22.2182C20.1233 22.59 20.4247 22.8915 20.7966 22.8915H21.5147C21.8865 22.8915 22.188 22.5901 22.188 22.2182C22.188 21.8464 21.8866 21.5449 21.5147 21.5449H20.7966Z" fill="black"/>
<path d="M25.7851 13.1479C26.2203 13.472 26.7999 13.6423 27.4846 13.6423C27.5992 13.6423 27.7169 13.6376 27.8371 13.628C28.8441 13.5476 29.9584 13.1304 30.975 12.453C31.9915 11.7758 32.8057 10.908 33.2676 10.0097C33.7946 8.98465 33.8184 8.02026 33.3345 7.29413C32.8507 6.568 31.9519 6.21837 30.8025 6.31017C29.7956 6.39054 28.6813 6.80777 27.6647 7.48511C25.7205 8.78057 24.6836 10.647 25.0344 12.0292C24.0233 12.7692 22.9982 13.6059 22.188 14.4569V12.7285C22.9522 12.4813 23.6329 11.8129 24.1481 10.7822C24.7366 9.60538 25.0606 8.0557 25.0606 6.41851C25.0606 4.78131 24.7365 3.23163 24.1481 2.05485C23.4857 0.72974 22.5505 0 21.5148 0C20.4791 0 19.5438 0.72974 18.8813 2.05493C18.2929 3.23172 17.9689 4.7814 17.9689 6.41859C17.9689 8.05578 18.293 9.60546 18.8813 10.7823C19.3967 11.8129 20.0773 12.4814 20.8415 12.7286V14.457C20.0245 13.599 18.9891 12.7554 17.97 12.0109C18.3072 10.6306 17.271 8.77477 15.3353 7.48511C14.3188 6.80777 13.2045 6.39054 12.1975 6.31017C11.0482 6.21846 10.1494 6.568 9.66552 7.29413C9.1816 8.02026 9.20537 8.98473 9.73237 10.0097C10.1942 10.908 11.0084 11.7757 12.025 12.453C13.0414 13.1304 14.1558 13.5476 15.1628 13.628C15.2831 13.6376 15.4007 13.6423 15.5154 13.6423C16.2076 13.6423 16.7924 13.4679 17.2292 13.1368C19.0689 14.482 20.3078 15.6831 20.8413 16.6405V17.2507C17.9675 17.3728 15.3707 18.2753 13.4717 19.8245C11.2456 21.6407 10.0689 24.2066 10.0689 27.2454C10.0689 32.0832 13.959 34.7798 17.0848 36.9465C18.7477 38.0993 20.3213 39.19 20.8413 40.311V42.3267C20.8413 42.6985 21.1427 43 21.5146 43C21.8864 43 22.1879 42.6986 22.1879 42.3267V40.311C22.7079 39.19 24.2816 38.0992 25.9445 36.9465C29.0703 34.7798 32.9604 32.0832 32.9604 27.2454C32.9604 24.2067 31.7837 21.6407 29.5576 19.8245C27.6587 18.2754 25.0618 17.3727 22.1879 17.2507V16.6405C22.7202 15.6858 23.9538 14.4886 25.7851 13.1479ZM28.4114 8.60563C29.2283 8.06132 30.1389 7.71396 30.9097 7.6524C31.5403 7.60185 32.016 7.74361 32.214 8.04075C32.412 8.33788 32.3595 8.83112 32.0701 9.3939C31.7165 10.0816 31.0452 10.7881 30.2284 11.3324C29.4116 11.8767 28.501 12.2241 27.7301 12.2857C27.4796 12.3056 27.2541 12.2948 27.0603 12.2566C28.5212 11.2788 29.7279 10.6056 29.7417 10.5979C30.0667 10.4173 30.1838 10.0074 30.0032 9.68231C29.8225 9.35729 29.4127 9.24021 29.0878 9.42078C28.9747 9.4836 27.7978 10.142 26.3543 11.1072C26.5357 10.3633 27.2538 9.37694 28.4114 8.60563ZM15.2701 12.2857C14.4992 12.2242 13.5887 11.8767 12.7718 11.3324C11.9549 10.7881 11.2836 10.0816 10.9301 9.3939C10.6407 8.83104 10.5883 8.33788 10.7863 8.04066C10.958 7.78292 11.3381 7.64233 11.8475 7.64233C11.9255 7.64233 12.0067 7.64569 12.0904 7.65232C12.8612 7.7138 13.7718 8.06124 14.5887 8.60554C15.7342 9.36879 16.4496 10.3427 16.6404 11.0838C15.2131 10.1314 14.0541 9.48301 13.9419 9.42078C13.617 9.24013 13.207 9.35729 13.0264 9.68239C12.8458 10.0074 12.9629 10.4173 13.288 10.5979C13.3018 10.6055 14.5028 11.2752 15.9626 12.2519C15.7637 12.2941 15.5304 12.3064 15.2701 12.2857ZM20.0857 10.1801C19.589 9.18663 19.3154 7.85069 19.3154 6.41859C19.3154 4.98649 19.589 3.65063 20.0857 2.6571C20.5022 1.82422 21.023 1.34652 21.5148 1.34652C22.0065 1.34652 22.5274 1.82422 22.9439 2.6571C23.4406 3.65055 23.7142 4.98649 23.7142 6.41859C23.7142 7.85069 23.4406 9.18655 22.9439 10.1801C22.7159 10.6359 22.4567 10.9844 22.1881 11.2074V6.41859C22.1881 6.04679 21.8867 5.74529 21.5148 5.74529C21.143 5.74529 20.8415 6.04671 20.8415 6.41859V11.2074C20.5729 10.9844 20.3137 10.6359 20.0857 10.1801ZM31.6139 27.2453C31.6139 30.0875 29.9966 32.0961 28.0054 33.7537H25.1056C24.7338 33.7537 24.4323 34.0551 24.4323 34.427C24.4323 34.7988 24.7338 35.1003 25.1056 35.1003H26.2348C25.8809 35.352 25.5265 35.5979 25.1775 35.8398C23.6832 36.8757 22.3433 37.8046 21.5149 38.8625C20.6864 37.8045 19.3465 36.8756 17.8522 35.8398C17.5032 35.5979 17.1488 35.352 16.795 35.1003H22.233C22.6048 35.1003 22.9063 34.7988 22.9063 34.427C22.9063 34.0552 22.6049 33.7537 22.233 33.7537H15.0243C13.033 32.0961 11.4158 30.0875 11.4158 27.2453C11.4158 24.6249 12.4212 22.4196 14.3232 20.8678C16.1297 19.3942 18.6839 18.5825 21.5149 18.5825C24.3459 18.5825 26.9 19.3942 28.7065 20.8678C30.6085 22.4196 31.6139 24.6249 31.6139 27.2453Z" fill="black"/>
</svg>
