<svg width="42" height="43" viewBox="0 0 42 43" fill="none" xmlns="http://www.w3.org/2000/svg">
<g clip-path="url(#clip0)">
<path d="M29.5258 12.856C29.5258 12.856 29.0686 7.61551 23.8849 7.7674C23.8849 7.7674 23.1796 12.6329 27.831 14.3015L29.5258 12.856Z" fill="#8BCC3F"/>
<path d="M24.0808 7.76444C26.967 8.67777 28.0885 12.1858 28.4541 13.7697L29.526 12.8557C29.526 12.8557 29.0799 7.74869 24.0808 7.76444Z" fill="#659922"/>
<path d="M29.526 12.8559C29.526 12.8559 28.3974 7.72304 33.3786 6.24609C33.3786 6.24609 35.5021 10.6582 31.571 13.702L29.526 12.8559Z" fill="#8BCC3F"/>
<path d="M33.3785 6.24609C33.0494 6.34353 32.7479 6.45737 32.4704 6.58433C32.7075 8.14133 32.7725 11.0946 30.5051 13.2611L31.5709 13.702C35.502 10.6582 33.3785 6.24609 33.3785 6.24609Z" fill="#659922"/>
<path d="M40.693 18.0682C38.0616 11.4882 30.7297 12.663 29.5258 12.8559C28.3219 13.0488 20.9897 14.2233 20.4479 21.3121C19.931 28.0712 27.3798 35.8119 32.8997 34.9278C38.4192 34.0433 43.2023 24.3428 40.693 18.0682Z" fill="#FB4239"/>
<path d="M25.8251 20.7398C25.3583 18.7291 24.4694 17.0054 23.1976 15.6108C21.786 16.8647 20.6488 18.6805 20.4476 21.312C20.1909 24.67 21.9011 28.2702 24.3633 30.9351C25.9882 27.5127 26.5474 23.8509 25.8251 20.7398Z" fill="#D10D0D"/>
<path d="M40.6932 18.0682C39.7447 15.6963 38.1852 14.3322 36.5221 13.5662C37.1069 14.2416 37.6206 15.0667 38.0237 16.0749C40.5327 22.3491 35.7499 32.0497 30.23 32.9341C28.6291 33.1904 26.8661 32.7202 25.1819 31.7603C27.5448 33.9777 30.4172 35.3254 32.8999 34.9275C38.4194 34.0433 43.2026 24.3428 40.6932 18.0682Z" fill="#E31F1D"/>
<path d="M10.3169 14.4317C10.3169 14.4317 8.91016 8.61941 3.10547 9.71547C3.10547 9.71547 3.14104 15.3139 8.65702 16.3601L10.3169 14.4317Z" fill="#8BCC3F"/>
<path d="M3.78345 9.61699C6.9 11.0647 8.65663 16.3587 8.65695 16.36L10.3168 14.4317C10.3168 14.4317 9.02001 9.07798 3.78345 9.61699Z" fill="#659922"/>
<path d="M12.5512 13.2587C12.5512 13.2587 12.9376 7.28367 7.08263 6.52026C7.08263 6.52026 5.45322 11.8644 10.3969 14.5789L12.5512 13.2587Z" fill="#8BCC3F"/>
<path d="M7.30298 6.55249C10.3913 8.09997 11.0498 12.2464 11.1886 14.0937L12.5511 13.2588C12.5511 13.2588 12.9273 7.43597 7.30298 6.55249Z" fill="#659922"/>
<path d="M14.7852 14.4317C14.7852 14.4317 16.1919 8.61941 21.9966 9.71547C21.9966 9.71547 21.961 15.3139 16.445 16.3601L14.7852 14.4317Z" fill="#8BCC3F"/>
<path d="M20.8573 9.58398C20.6414 11.0931 19.7067 14.5338 15.6621 15.4508L16.4449 16.3602C21.9609 15.314 21.9965 9.71554 21.9965 9.71554C21.5959 9.63976 21.2172 9.59809 20.8573 9.58398Z" fill="#659922"/>
<path d="M12.5512 13.2587C12.5512 13.2587 12.1644 7.28367 18.0194 6.52026C18.0194 6.52026 19.6491 11.8644 14.7051 14.5789L12.5512 13.2587Z" fill="#8BCC3F"/>
<path d="M18.0194 6.52026C17.6329 6.57046 17.2743 6.64427 16.9401 6.73711C16.9392 8.53065 16.5047 11.8631 13.5823 13.8909L14.7051 14.5789C19.6491 11.8644 18.0194 6.52026 18.0194 6.52026Z" fill="#659922"/>
<path d="M24.2131 21.1324C22.385 13.2588 13.938 13.2588 12.5512 13.2588C11.1643 13.2588 2.71732 13.2588 0.889238 21.1324C-0.853932 28.6401 6.19213 38.6868 12.5512 38.6868C18.9102 38.6868 25.956 28.6401 24.2131 21.1324Z" fill="#FB4239"/>
<path d="M24.213 21.1323C23.5539 18.2942 22.0347 16.4794 20.2963 15.3184C20.8376 16.1831 21.2733 17.2037 21.5534 18.4097C23.2966 25.9175 16.2505 35.9641 9.89147 35.9641C8.04704 35.9641 6.14525 35.1177 4.4165 33.7346C6.69256 36.6541 9.69088 38.6868 12.5511 38.6868C18.9101 38.6868 25.9559 28.6401 24.213 21.1323Z" fill="#E31F1D"/>
<path d="M29.9824 15.8426C29.5854 15.9062 29.3136 16.2874 29.3758 16.6939C29.438 17.1007 29.9231 18.1151 30.3201 18.0514C30.7175 17.9878 30.8764 16.8701 30.8142 16.4636C30.7521 16.0568 30.3797 15.7789 29.9824 15.8426Z" fill="black"/>
<path d="M36.2512 17.3274C36.1891 16.9206 35.8167 16.6427 35.4194 16.7063C35.0224 16.77 34.7506 17.1512 34.8128 17.5577C34.875 17.9645 35.3598 18.9788 35.7571 18.9152C36.1545 18.8516 36.3134 17.7338 36.2512 17.3274Z" fill="black"/>
<path d="M33.7713 23.7592C34.1686 23.6956 34.3276 22.5782 34.2654 22.1714C34.2032 21.7649 33.8309 21.4867 33.4336 21.5503C33.0365 21.614 32.7648 21.9952 32.827 22.402C32.8891 22.8085 33.374 23.8228 33.7713 23.7592Z" fill="black"/>
<path d="M36.91 28.3861C37.3073 28.3225 37.4663 27.2051 37.4041 26.7983C37.3419 26.3918 36.9696 26.1136 36.5726 26.1773C36.1752 26.2409 35.9035 26.6221 35.966 27.0289C36.0278 27.4354 36.513 28.4498 36.91 28.3861Z" fill="black"/>
<path d="M39.1741 21.9884C39.5712 21.9248 39.7304 20.8074 39.6682 20.4006C39.6061 19.9941 39.2337 19.7159 38.8364 19.7796C38.4391 19.8432 38.1676 20.2244 38.2298 20.6312C38.292 21.0377 38.7768 22.0521 39.1741 21.9884Z" fill="black"/>
<path d="M25.063 18.3655C24.6659 18.4292 24.3942 18.8104 24.4564 19.2169C24.5185 19.6237 25.0034 20.638 25.4007 20.5744C25.798 20.5107 25.957 19.3933 25.8948 18.9865C25.8326 18.5797 25.4603 18.3019 25.063 18.3655Z" fill="black"/>
<path d="M28.3991 22.3572C28.0021 22.4209 27.7304 22.8021 27.7925 23.2086C27.8547 23.6154 28.3395 24.6297 28.7369 24.5661C29.1342 24.5024 29.2931 23.3847 29.231 22.9782C29.1688 22.5714 28.7965 22.2936 28.3991 22.3572Z" fill="black"/>
<path d="M26.7912 27.7444C26.3942 27.8081 26.1225 28.1893 26.1846 28.5961C26.2468 29.0026 26.7316 30.0169 27.129 29.9533C27.526 29.8896 27.6852 28.7722 27.6231 28.3654C27.5609 27.959 27.1886 27.6808 26.7912 27.7444Z" fill="black"/>
<path d="M32.042 29.3172C31.6449 29.3808 31.3732 29.762 31.4354 30.1685C31.4975 30.5753 31.9824 31.5897 32.3797 31.526C32.777 31.4624 32.936 30.3447 32.8738 29.9382C32.8116 29.5314 32.4393 29.2535 32.042 29.3172Z" fill="black"/>
<path d="M12.5513 19.2445C13.0089 19.2445 13.3796 18.0162 13.3796 17.5478C13.3796 17.0793 13.0089 16.6997 12.5513 16.6997C12.0937 16.6997 11.7227 17.0793 11.7227 17.5478C11.7227 18.0162 12.0937 19.2445 12.5513 19.2445Z" fill="black"/>
<path d="M18.5166 21.1954C18.9742 21.1954 19.3453 19.9672 19.3453 19.4987C19.3453 19.0302 18.9742 18.6506 18.5166 18.6506C18.0591 18.6506 17.688 19.0302 17.688 19.4987C17.688 19.9675 18.0591 21.1954 18.5166 21.1954Z" fill="black"/>
<path d="M16.2795 24.5889C16.2795 24.1204 15.9088 23.7405 15.4512 23.7405C14.9936 23.7405 14.6226 24.1204 14.6226 24.5889C14.6226 25.0573 14.9936 26.2853 15.4512 26.2853C15.9088 26.2853 16.2795 25.0573 16.2795 24.5889Z" fill="black"/>
<path d="M17.3567 30.3569C17.3567 30.8254 17.7278 32.0533 18.185 32.0533C18.6426 32.0533 19.0137 30.8254 19.0137 30.3569C19.0137 29.8884 18.6426 29.5085 18.185 29.5085C17.7278 29.5085 17.3567 29.8884 17.3567 30.3569Z" fill="black"/>
<path d="M22.6597 23.5708C22.6597 23.1023 22.2887 22.7224 21.8311 22.7224C21.3735 22.7224 21.0024 23.1023 21.0024 23.5708C21.0024 24.0393 21.3735 25.2672 21.8311 25.2672C22.2887 25.2672 22.6597 24.0393 22.6597 23.5708Z" fill="black"/>
<path d="M6.58573 18.6506C6.12814 18.6506 5.75708 19.0302 5.75708 19.4987C5.75708 19.9672 6.12814 21.1954 6.58573 21.1954C7.04331 21.1954 7.41405 19.9672 7.41405 19.4987C7.41405 19.0302 7.04331 18.6506 6.58573 18.6506Z" fill="black"/>
<path d="M10.4795 24.5889C10.4795 24.1204 10.1087 23.7405 9.65116 23.7405C9.19357 23.7405 8.82251 24.1204 8.82251 24.5889C8.82251 25.0573 9.19357 26.2853 9.65116 26.2853C10.1087 26.2853 10.4795 25.0573 10.4795 24.5889Z" fill="black"/>
<path d="M6.08838 30.3569C6.08838 30.8254 6.45944 32.0533 6.91703 32.0533C7.37461 32.0533 7.74535 30.8254 7.74535 30.3569C7.74535 29.8884 7.37461 29.5085 6.91703 29.5085C6.45944 29.5085 6.08838 29.8884 6.08838 30.3569Z" fill="black"/>
<path d="M12.5513 34.7679C13.0089 34.7679 13.3796 33.54 13.3796 33.0715C13.3796 32.603 13.0089 32.2231 12.5513 32.2231C12.0937 32.2231 11.7227 32.603 11.7227 33.0715C11.7227 33.54 12.0937 34.7679 12.5513 34.7679Z" fill="black"/>
<path d="M4.0996 23.5708C4.0996 23.1023 3.72886 22.7224 3.27127 22.7224C2.81369 22.7224 2.44263 23.1023 2.44263 23.5708C2.44263 24.0393 2.81369 25.2672 3.27127 25.2672C3.72886 25.2672 4.0996 24.0393 4.0996 23.5708Z" fill="black"/>
<path d="M39.8264 15.3391C39.6066 15.0691 39.2147 15.0324 38.951 15.2571C38.6872 15.4818 38.6514 15.883 38.8712 16.1534C39.373 16.7705 39.7928 17.4961 40.118 18.3097C41.3206 21.3171 40.8156 25.4586 38.8 29.1175C37.2033 32.0163 34.9615 33.9532 32.8034 34.2986C31.3954 34.5243 29.7663 34.132 28.092 33.1639C26.5719 32.2846 25.094 30.9609 23.8979 29.4134C25.0578 26.5301 25.4126 23.5486 24.8175 20.9854C24.4215 19.2792 23.7354 17.9177 22.876 16.8311C23.8162 15.7397 25.1053 14.8726 26.7174 14.2509C28.0671 13.7306 29.2366 13.5452 29.6221 13.4842C30.0499 13.4153 31.1868 13.2329 32.6163 13.3061C34.2588 13.3894 35.6969 13.7805 36.8909 14.4687C37.1899 14.641 37.5689 14.5327 37.7372 14.2263C37.9057 13.9202 37.7996 13.5324 37.5007 13.3599C36.4154 12.7343 35.1653 12.3252 33.7743 12.1372C35.4464 9.18624 34.0047 6.10801 33.9358 5.96497C33.8028 5.68809 33.4952 5.54931 33.2056 5.63494C31.0237 6.28156 29.9031 7.58036 29.3389 8.88081C29.0383 7.9724 28.6272 6.97574 28.0629 5.96628C27.8924 5.66118 27.513 5.55555 27.215 5.73008C26.917 5.90461 26.8138 6.29337 26.9843 6.59814C27.3095 7.18013 27.5797 7.76014 27.8046 8.3195C26.8898 7.59053 25.6218 7.08039 23.8671 7.13092C23.5659 7.13977 23.3144 7.36843 23.2701 7.67354C23.2474 7.83133 22.7936 11.2127 25.2658 13.5003C23.9655 14.1295 22.8805 14.9307 22.0268 15.8935C21.5888 15.472 21.1219 15.1042 20.6371 14.7824C22.5745 12.6391 22.6171 9.84861 22.618 9.71968C22.62 9.4113 22.4056 9.14589 22.1095 9.08979C20.9438 8.86933 19.8613 8.89623 18.8766 9.16656C18.9888 7.59119 18.6312 6.39146 18.6129 6.33044C18.5229 6.03583 18.2393 5.84982 17.941 5.88886C15.9591 6.14738 14.6293 6.96065 13.7368 7.95239C14.0441 6.87109 14.5184 5.76551 15.2525 4.69766C15.4502 4.4106 15.3829 4.01364 15.1022 3.81123C14.8215 3.60914 14.4338 3.67803 14.2364 3.96542C13.0649 5.66873 12.4849 7.4019 12.1994 9.11735C11.3829 7.64106 9.88906 6.24448 7.16119 5.88886C6.86254 5.85081 6.57928 6.03616 6.48956 6.33044C6.47065 6.39146 6.11337 7.59152 6.22552 9.16656C5.24082 8.89656 4.15807 8.86966 2.99264 9.09012C2.69656 9.14622 2.48219 9.4113 2.48411 9.71968C2.48475 9.84861 2.52769 12.6424 4.46825 14.786C3.47041 15.4539 2.61966 16.2685 1.94065 17.2215C1.73846 17.5056 1.79902 17.9036 2.0762 18.1106C2.35369 18.3176 2.74238 18.2553 2.94458 17.9715C5.47153 14.4248 10.048 13.8953 12.5509 13.8953C15.3602 13.8953 22.0608 14.6151 23.6082 21.28C24.4497 24.9042 23.1641 29.4984 20.2529 33.2705C17.9426 36.2641 15.0635 38.051 12.5509 38.051C10.0384 38.051 7.15927 36.2641 4.84893 33.2705C1.93809 29.4984 0.652501 24.9038 1.49396 21.2797C1.56478 20.9739 1.64841 20.6728 1.74262 20.3847C1.85125 20.0514 1.67565 19.6909 1.35009 19.5797C1.02485 19.4681 0.672688 19.6482 0.56374 19.9816C0.457996 20.3054 0.364109 20.6433 0.284641 20.9854C-0.6427 24.9793 0.73261 29.9888 3.87416 34.0592C5.07612 35.6168 6.47001 36.9196 7.9046 37.826C9.47634 38.8194 11.0397 39.3233 12.5512 39.3233C14.0624 39.3233 15.6258 38.8194 17.1976 37.826C18.6321 36.9192 20.026 35.6168 21.2283 34.0592C22.0512 32.9926 22.752 31.8611 23.323 30.7008C24.5999 32.2384 26.1435 33.5776 27.9027 34.5007C29.4523 35.3143 31.2464 35.8363 32.9957 35.5558C35.5636 35.1447 38.0739 33.0257 39.8825 29.7428C42.0807 25.7525 42.6116 21.1869 41.268 17.8275C40.8947 16.8938 40.4096 16.0566 39.8264 15.3391ZM33.0152 7.04135C33.3228 7.9993 33.7516 10.1304 32.3567 12.0227C31.4361 11.9971 30.6357 12.0657 30.0826 12.1336C30.0711 12.0391 30.0573 11.9361 30.0409 11.8252C29.999 10.4378 30.3562 8.09247 33.0152 7.04135ZM24.465 8.41037C27.5412 8.59048 28.5083 11.0339 28.805 12.3367C28.259 12.4436 27.4675 12.6293 26.5812 12.9482C24.6727 11.5729 24.4529 9.41851 24.465 8.41037ZM21.3267 10.2567C21.2113 11.1208 20.822 12.8363 19.5191 14.1335C18.7876 13.7641 18.0358 13.4819 17.2975 13.268C17.9378 12.4885 18.3899 11.5903 18.6482 10.5838C19.4419 10.2557 20.3394 10.1455 21.3267 10.2567ZM17.5446 7.2441C17.6481 7.83855 17.7481 8.86474 17.5093 9.99328C17.2661 11.1445 16.724 12.1323 15.8979 12.9341C14.8885 12.7415 13.9499 12.6601 13.1799 12.6336C13.2709 11.1458 13.9022 8.00029 17.5446 7.2441ZM7.55917 7.2441C11.1932 7.99701 11.8319 11.109 11.9216 12.6336C10.9689 12.6634 10.0576 12.7605 9.19467 12.9242C8.37404 12.1244 7.83539 11.1399 7.59314 9.99296C7.35601 8.87261 7.45631 7.8415 7.55917 7.2441ZM3.77547 10.2567C4.76273 10.1455 5.66027 10.2557 6.45431 10.5838C6.71162 11.5867 7.16183 12.4823 7.79854 13.2598C7.00898 13.4905 6.26814 13.7815 5.58176 14.1322C4.27983 12.8347 3.89082 11.1199 3.77547 10.2567Z" fill="black"/>
</g>
<defs>
<clipPath id="clip0">
<path d="M0 0H42V43H0V0Z" fill="white"/>
</clipPath>
</defs>
</svg>
