<svg width="40" height="40" viewBox="0 0 40 40" fill="none" xmlns="http://www.w3.org/2000/svg">
<path d="M34.9549 32.4307C27.4489 35.9369 20.4843 31.4443 18.4221 28.6662C25.1639 30.6892 30.5241 29.3497 33.2138 28.3175C33.7424 28.1145 34.3284 28.1201 34.853 28.3332C35.3777 28.5464 35.8016 28.951 36.0388 29.4652C36.2869 30.0024 36.3122 30.6159 36.1091 31.1717C35.9059 31.7274 35.491 32.1801 34.9549 32.4307Z" fill="#FC6243"/>
<path d="M35.0986 32.7354C35.0682 32.7489 35.0345 32.7657 35.0041 32.7792L35.0513 31.0003L33.6099 30.4636L33.8867 29.0458L32.7019 28.1479C32.8369 28.0972 32.9686 28.05 33.0935 28.0027C33.3861 27.8886 33.6975 27.8302 34.0116 27.8306C34.5967 27.8317 35.1639 28.0321 35.6198 28.3987C36.0757 28.7654 36.3931 29.2764 36.5197 29.8476C36.6463 30.4188 36.5745 31.0161 36.3162 31.541C36.0579 32.0659 35.6284 32.4872 35.0986 32.7354Z" fill="#9ADB07"/>
<path d="M21.2721 24.632C24.9828 24.632 27.9909 21.6239 27.9909 17.9132C27.9909 14.2025 24.9828 11.1943 21.2721 11.1943C17.5614 11.1943 14.5532 14.2025 14.5532 17.9132C14.5532 21.6239 17.5614 24.632 21.2721 24.632Z" fill="#FC6243"/>
<path d="M26.5774 12.9874C26.3138 13.2502 25.9733 13.4221 25.6053 13.4779C25.2373 13.5338 24.8611 13.4707 24.5314 13.298C24.7177 14.0376 24.6462 14.8185 24.3289 15.512C23.8224 15.4142 23.3502 15.1861 22.9587 14.8504C22.5672 14.5146 22.2698 14.0826 22.0959 13.5971C22.0959 13.5971 21.1352 14.9 20.0337 14.9983C20.0337 14.9983 19.0703 13.7706 19.3586 12.768C18.3651 12.9742 16.8235 12.3231 16.7114 12.289C18.1866 11.2577 19.9713 10.7643 21.7667 10.8915C23.5622 11.0186 25.2595 11.7585 26.5747 12.9874H26.5774Z" fill="#88B708"/>
<path d="M31.7163 24.548C24.8118 23.6612 25.1571 18.0931 26.2373 15.3008C28.0561 10.5999 32.5872 10.0011 33.0162 7.62769L33.875 7.73773L34.7334 7.84811C34.5491 10.2516 38.7818 11.9772 39.3536 16.9849C39.6936 19.9595 38.6208 25.4338 31.7163 24.548Z" fill="#6E76E3"/>
<path d="M5.49627 28.0821L6.14237 21.2694C6.32971 18.3259 5.52631 16.3012 3.87158 14.5857L6.82458 14.4578C7.93054 16.1987 8.50726 18.2234 8.48471 20.2858C8.72392 18.2375 9.55251 16.3026 10.8699 14.716L13.7828 15.2169C11.9241 16.708 10.8709 18.6152 10.6829 21.5581L10.4622 28.3978L5.49627 28.0821Z" fill="#88B708"/>
<path d="M18.3688 9.37467C18.4133 8.67323 18.2342 7.97576 17.8574 7.38247C17.4805 6.78918 16.9254 6.3306 16.2716 6.07263C16.1968 5.29572 15.8507 4.56999 15.2941 4.02287C14.7374 3.47575 14.0058 3.14221 13.2278 3.08081C12.9989 2.39297 12.5699 1.78913 11.9957 1.34665C11.4215 0.904169 10.7282 0.643203 10.0048 0.597187C9.2813 0.551171 8.56058 0.722201 7.93494 1.08836C7.3093 1.45453 6.80722 1.99914 6.49305 2.65244C5.7134 2.61488 4.94544 2.85317 4.324 3.32547C3.70256 3.79777 3.26736 4.47389 3.0948 5.23513C2.54187 5.37543 2.03438 5.65574 1.62121 6.04906C1.20803 6.44238 0.903093 6.93546 0.735756 7.48081C0.568418 8.02617 0.544322 8.60542 0.665788 9.16279C0.787253 9.72016 1.05019 10.2369 1.42927 10.6631C1.13819 11.3868 1.08742 12.1849 1.28445 12.9396C1.48148 13.6943 1.91587 14.3657 2.52354 14.8548C3.1312 15.3438 3.87997 15.6246 4.65937 15.6557C5.43876 15.6868 6.20752 15.4666 6.85222 15.0275C7.45667 15.564 8.22303 15.8833 9.02963 15.9345C9.83623 15.9858 10.6368 15.7661 11.3043 15.3104C11.8882 15.8275 12.6229 16.1433 13.3999 16.2112C14.177 16.279 14.9552 16.0954 15.6199 15.6872C16.2846 15.2791 16.8006 14.6681 17.0916 13.9445C17.3826 13.2208 17.4334 12.4228 17.2363 11.6681C17.5676 11.3799 17.8383 11.0287 18.0327 10.635C18.2272 10.2413 18.3414 9.8129 18.3688 9.37467Z" fill="#9ADB07"/>
<path d="M26.6331 38.6734C26.5315 38.9244 26.3463 39.1327 26.109 39.2631C25.8716 39.3935 25.5965 39.4379 25.3301 39.389L17.1847 37.9037L16.0066 37.6877L8.58699 36.3374L7.41227 36.1214L6.98357 36.0438C6.65989 35.984 6.34318 35.8913 6.03839 35.767C5.47227 35.54 5.00067 35.1264 4.7017 34.5948C4.40274 34.0631 4.29434 33.4453 4.39447 32.8437C4.55664 31.8644 4.8214 30.905 5.18436 29.9811C5.56847 29.0659 6.04583 28.1926 6.60888 27.3752C6.90298 26.951 7.31335 26.6209 7.79064 26.4245C8.26793 26.228 8.7918 26.1737 9.29925 26.268C9.47989 26.2988 9.65652 26.3498 9.82585 26.4199C10.0235 26.4996 10.2153 26.5932 10.3997 26.7C10.5032 26.7551 10.6035 26.8159 10.7001 26.8823L15.8615 30.339L16.8539 31.0006L20.8 33.6437L21.7891 34.3053L26.1976 37.2556C26.4221 37.4059 26.5879 37.6289 26.6672 37.8871C26.7465 38.1454 26.7345 38.423 26.6331 38.6734Z" fill="#FC6243"/>
<path d="M37.8015 26.7628C37.3311 27.2868 36.8026 27.7556 36.2261 28.16C35.6375 27.5742 34.8421 27.2437 34.0117 27.2398C33.6261 27.2391 33.2437 27.3104 32.8842 27.4501L32.495 27.5946C32.3961 27.6317 32.3089 27.6947 32.2426 27.777C32.1763 27.8593 32.1333 27.9579 32.118 28.0624V28.0776C27.718 29.4679 22.9975 29.4759 18.5928 28.1006C18.4739 28.0647 18.3467 28.0673 18.2293 28.1079C18.1119 28.1486 18.0103 28.2252 17.939 28.3269C17.8677 28.4286 17.8303 28.5503 17.8321 28.6745C17.8339 28.7987 17.8749 28.9192 17.9491 29.0187C19.3723 30.9334 23.3018 33.9114 28.2947 34.2675C28.3092 34.2675 28.3234 34.2692 28.3376 34.2692C28.4943 34.2747 28.6467 34.2177 28.7614 34.1108C28.8761 34.004 28.9436 33.8559 28.9491 33.6992C28.9546 33.5425 28.8976 33.3901 28.7908 33.2754C28.6839 33.1607 28.5358 33.0932 28.3791 33.0877C25.4003 32.8446 22.5713 31.6796 20.285 29.7546C24.4809 30.6852 28.852 30.4424 32.919 29.0528L33.2363 29.2935L33.0304 30.3498C33.0035 30.4871 33.0264 30.6296 33.0948 30.7517C33.1633 30.8738 33.2729 30.9677 33.4041 31.0164L34.4505 31.4057L34.4343 32.0106C33.3789 32.4819 32.2652 32.8099 31.1228 32.9858C30.9753 33.0077 30.8416 33.0846 30.7484 33.201C30.6553 33.3174 30.6096 33.4647 30.6205 33.6134C30.6314 33.7621 30.6982 33.9012 30.8074 34.0027C30.9166 34.1043 31.0601 34.1607 31.2092 34.1608C31.2386 34.1607 31.2679 34.1586 31.297 34.1544C32.4373 33.9787 33.5516 33.6636 34.6149 33.216C34.6342 33.2354 34.6548 33.2533 34.6767 33.2697C34.7596 33.3251 34.8553 33.3587 34.9547 33.3671C35.0541 33.3756 35.1541 33.3586 35.2451 33.3179L35.338 33.2751L35.3495 33.2697C36.0975 32.9187 36.6787 32.2892 36.9688 31.5155C37.2589 30.7419 37.235 29.8854 36.9022 29.1291C37.5615 28.6662 38.1649 28.1284 38.7004 27.5267C38.8019 27.4074 38.8517 27.2526 38.8391 27.0965C38.8264 26.9404 38.7523 26.7957 38.6329 26.6943C38.5136 26.5929 38.3588 26.543 38.2027 26.5556C38.0466 26.5683 37.9019 26.6425 37.8005 26.7618L37.8015 26.7628ZM35.6286 31.5478L35.6425 31.0158C35.6456 30.8926 35.6102 30.7715 35.5412 30.6694C35.4721 30.5674 35.3728 30.4895 35.2573 30.4466L34.2858 30.0848L34.4664 29.1588C34.4876 29.0504 34.4779 28.9381 34.4385 28.8349C34.399 28.7316 34.3314 28.6416 34.2433 28.5749L34.0407 28.4216C34.4012 28.4278 34.7532 28.5321 35.0588 28.7233C35.3644 28.9146 35.6121 29.1855 35.7753 29.507C35.9384 29.8285 36.0109 30.1884 35.9848 30.5479C35.9587 30.9075 35.8351 31.2532 35.6273 31.5478H35.6286Z" fill="#1B1E40"/>
<path d="M17.3632 19.1591C17.3404 19.0842 17.303 19.0146 17.253 18.9542C17.2031 18.8939 17.1417 18.8441 17.0723 18.8078C17.003 18.7714 16.9271 18.7492 16.8491 18.7424C16.7711 18.7357 16.6925 18.7445 16.6179 18.7684C16.5433 18.7922 16.4742 18.8307 16.4147 18.8815C16.3551 18.9323 16.3062 18.9945 16.2709 19.0643C16.2355 19.1342 16.2144 19.2104 16.2088 19.2885C16.2032 19.3666 16.2131 19.4451 16.2381 19.5193C16.4438 20.163 16.7713 20.7612 17.2028 21.2814C17.3028 21.4022 17.4466 21.4784 17.6027 21.4933C17.7588 21.5081 17.9144 21.4603 18.0353 21.3604C18.1561 21.2604 18.2324 21.1166 18.2472 20.9605C18.262 20.8044 18.2142 20.6488 18.1143 20.5279C17.7786 20.1239 17.5236 19.6592 17.3632 19.1591Z" fill="#1B1E40"/>
<path d="M35.9007 21.98C35.9733 22.0075 36.0506 22.0203 36.1281 22.0178C36.2057 22.0154 36.282 21.9976 36.3527 21.9657C36.4234 21.9337 36.4871 21.8881 36.5401 21.8315C36.5932 21.7749 36.6346 21.7083 36.6619 21.6357C37.2194 20.0342 37.4824 18.3451 37.4383 16.6499C37.4227 15.791 37.3323 14.9351 37.1683 14.0919C37.1367 13.9392 37.0462 13.8052 36.9163 13.7191C36.7864 13.6329 36.6277 13.6016 36.4748 13.6319C36.3219 13.6622 36.1872 13.7518 36.1 13.881C36.0129 14.0102 35.9803 14.1686 36.0094 14.3217C36.1605 15.0983 36.2437 15.8866 36.2582 16.6776C36.3013 18.2213 36.0639 19.76 35.5574 21.2188C35.5021 21.3653 35.5071 21.5278 35.5715 21.6705C35.6359 21.8132 35.7543 21.9246 35.9007 21.98Z" fill="#1B1E40"/>
<path d="M29.1891 13.0635C28.6104 14.2502 28.2007 15.5121 27.9719 16.8125C27.8537 17.4637 27.7786 18.122 27.747 18.7832C27.7433 18.8607 27.7548 18.9382 27.781 19.0112C27.8072 19.0843 27.8475 19.1515 27.8997 19.2089C27.9518 19.2664 28.0148 19.313 28.085 19.3461C28.1552 19.3792 28.2312 19.3982 28.3087 19.4019H28.3374C28.4891 19.4018 28.6349 19.3434 28.7447 19.2388C28.8545 19.1342 28.9198 18.9913 28.9272 18.8399C28.956 18.2315 29.025 17.6257 29.1337 17.0265C29.3432 15.8333 29.7183 14.6753 30.2484 13.586C30.2848 13.5163 30.307 13.4399 30.3135 13.3614C30.3201 13.283 30.3108 13.204 30.2864 13.1291C30.262 13.0543 30.2228 12.9851 30.1713 12.9256C30.1197 12.8661 30.0568 12.8175 29.9862 12.7826C29.9156 12.7478 29.8387 12.7274 29.7601 12.7227C29.6815 12.718 29.6028 12.7291 29.5285 12.7553C29.4543 12.7814 29.386 12.8222 29.3277 12.8751C29.2694 12.928 29.2223 12.9921 29.1891 13.0635Z" fill="#1B1E40"/>
<path d="M33.9918 20.1186C34.0229 20.1239 34.0544 20.1265 34.086 20.1264C34.2263 20.1262 34.362 20.076 34.4687 19.9849C34.5755 19.8938 34.6463 19.7677 34.6686 19.6292C34.8354 18.5912 34.9653 17.4421 35.0345 16.3936C35.0425 16.2387 34.9892 16.0868 34.8861 15.9708C34.783 15.8548 34.6384 15.784 34.4836 15.7738C34.3287 15.7635 34.1761 15.8146 34.0586 15.916C33.9411 16.0174 33.8682 16.161 33.8558 16.3157C33.8173 16.9027 33.7207 18.0889 33.5023 19.4418C33.4775 19.5965 33.5151 19.7547 33.6069 19.8816C33.6987 20.0085 33.8372 20.0938 33.9918 20.1186Z" fill="#1B1E40"/>
<path d="M34.5148 14.077H34.5293C34.6069 14.0751 34.6834 14.058 34.7543 14.0266C34.8253 13.9952 34.8893 13.9501 34.9428 13.8939C34.9964 13.8378 35.0383 13.7716 35.0662 13.6992C35.0941 13.6268 35.1075 13.5496 35.1056 13.4721C35.0931 12.9434 35.0644 12.4205 35.0181 11.874C35.0049 11.7179 34.9302 11.5734 34.8105 11.4723C34.6908 11.3713 34.5358 11.3219 34.3796 11.3351C34.2235 11.3483 34.079 11.423 33.9779 11.5427C33.8769 11.6625 33.8275 11.8175 33.8407 11.9736C33.8849 12.4962 33.9123 12.9958 33.9248 13.5007C33.9286 13.6548 33.9924 13.8012 34.1026 13.9089C34.2128 14.0165 34.3608 14.0768 34.5148 14.077Z" fill="#1B1E40"/>
<path d="M30.569 21.6935H30.5754C30.7309 21.6934 30.8802 21.632 30.9908 21.5226C31.1013 21.4132 31.1643 21.2647 31.1661 21.1091C31.2162 19.408 31.4035 17.7136 31.7265 16.0427C31.8524 15.3868 31.9901 14.7599 32.1359 14.1813C32.1549 14.1061 32.1588 14.0279 32.1476 13.9511C32.1363 13.8744 32.11 13.8006 32.0702 13.734C32.0304 13.6674 31.9779 13.6093 31.9156 13.563C31.8534 13.5167 31.7826 13.4831 31.7074 13.4642C31.6322 13.4452 31.554 13.4413 31.4772 13.4526C31.4005 13.4638 31.3267 13.4901 31.2601 13.5299C31.1935 13.5697 31.1354 13.6222 31.0891 13.6845C31.0428 13.7467 31.0092 13.8175 30.9903 13.8927C30.8387 14.4939 30.6962 15.1417 30.5663 15.8199C30.2303 17.5601 30.0358 19.3247 29.9847 21.0963C29.983 21.253 30.0437 21.4038 30.1532 21.5158C30.2628 21.6278 30.4123 21.6917 30.569 21.6935Z" fill="#1B1E40"/>
<path d="M6.05521 22.7854C6.20217 22.7853 6.34381 22.7304 6.45248 22.6314C6.56116 22.5325 6.62905 22.3966 6.6429 22.2503L6.73033 21.3247C6.74261 21.1701 6.69357 21.0169 6.59381 20.8981C6.49405 20.7793 6.35158 20.7045 6.19715 20.6899C6.04273 20.6753 5.88875 20.722 5.76847 20.8199C5.64818 20.9178 5.57124 21.0592 5.55426 21.2133L5.4665 22.1389C5.45174 22.2949 5.49952 22.4504 5.59934 22.5712C5.69917 22.6919 5.84286 22.7681 5.99883 22.783C6.01807 22.7847 6.03664 22.7854 6.05521 22.7854Z" fill="#1B1E40"/>
<path d="M26.5241 36.7635L21.6176 33.4797L21.6146 33.4777L11.1184 26.452L11.272 21.5965C11.4016 19.5627 11.9698 18.0183 13.0392 16.7599C13.1742 16.7812 13.3092 16.7987 13.4442 16.8072C13.5361 16.8132 13.6272 16.8159 13.7183 16.8159C13.8318 16.8159 13.9442 16.8099 14.0559 16.8007C14.0333 16.9506 14.0076 17.0995 13.9935 17.2521C13.9061 18.2079 14.0079 19.1717 14.2932 20.0881C14.5785 21.0046 15.0416 21.8559 15.656 22.5933C16.2705 23.3307 17.0242 23.9398 17.8742 24.3857C18.7242 24.8317 19.6537 25.1057 20.6097 25.1922C20.8365 25.2129 21.0625 25.2233 21.2875 25.2233C22.2937 25.2247 23.2892 25.0166 24.2106 24.6123C25.132 24.2079 25.9591 23.6161 26.6392 22.8745C27.5783 23.8939 28.9066 24.5914 30.6073 24.9573C30.4047 25.2641 30.2302 25.4812 30.2272 25.4849C30.1301 25.6069 30.0852 25.7623 30.1022 25.9172C30.1193 26.0722 30.1969 26.2141 30.3181 26.3121C30.4393 26.4101 30.5944 26.4562 30.7495 26.4404C30.9046 26.4245 31.0471 26.348 31.146 26.2275C31.1592 26.2113 31.3486 25.9733 31.5761 25.6331C31.7111 26.0209 31.834 26.2994 31.8428 26.319C31.9074 26.4618 32.0261 26.573 32.1727 26.6282C32.3194 26.6834 32.482 26.6782 32.6247 26.6135C32.7675 26.5489 32.8787 26.4302 32.9339 26.2835C32.9892 26.1369 32.9839 25.9743 32.9192 25.8316C32.9172 25.8275 32.8028 25.5716 32.6829 25.2192C32.8413 25.226 33.0009 25.2354 33.1555 25.2354C35.1704 25.2354 36.7891 24.6444 37.9793 23.471C39.7758 21.6995 40.1711 18.9244 39.9416 16.9182C39.6003 13.9291 38.0536 12.0674 36.8107 10.572C35.9583 9.54652 35.2862 8.73333 35.3254 7.93128C35.6859 6.62559 36.4525 4.91989 38.0691 4.0537C38.1389 4.01788 38.2008 3.96851 38.2513 3.90849C38.3018 3.84847 38.3398 3.779 38.3632 3.70412C38.3866 3.62924 38.3948 3.55046 38.3874 3.47238C38.38 3.39429 38.3571 3.31846 38.32 3.24932C38.283 3.18017 38.2326 3.11909 38.1717 3.06964C38.1108 3.02019 38.0407 2.98336 37.9654 2.9613C37.8902 2.93923 37.8112 2.93238 37.7333 2.94115C37.6554 2.94991 37.5799 2.9741 37.5114 3.01232C36.2203 3.74602 35.2157 4.89542 34.6614 6.27318L35.0577 3.18279C35.0676 3.10588 35.0622 3.02777 35.0419 2.95293C35.0216 2.87809 34.9868 2.80798 34.9394 2.74661C34.8437 2.62266 34.7026 2.54181 34.5473 2.52184C34.4704 2.51196 34.3923 2.51732 34.3174 2.53762C34.2426 2.55792 34.1725 2.59276 34.1111 2.64015C33.9872 2.73587 33.9063 2.87691 33.8864 3.03224L33.4884 6.13511C33.3035 4.65785 32.6218 3.28736 31.5551 2.24875C31.4983 2.1958 31.4315 2.15459 31.3586 2.12749C31.2858 2.10039 31.2083 2.08793 31.1306 2.09083C31.053 2.09373 30.9766 2.11192 30.906 2.14438C30.8354 2.17683 30.7718 2.22291 30.7191 2.27996C30.6663 2.33701 30.6253 2.40391 30.5984 2.47684C30.5715 2.54977 30.5593 2.62729 30.5624 2.70495C30.5655 2.78261 30.584 2.85889 30.6166 2.92942C30.6493 2.99995 30.6956 3.06334 30.7528 3.11595C32.0979 4.36021 32.4068 6.20938 32.425 7.56267C32.2715 8.28404 31.5474 8.85756 30.5374 9.58332C30.4733 9.62816 30.4187 9.68531 30.3768 9.75144C30.3349 9.81756 30.3066 9.89135 30.2935 9.96852C30.2804 10.0457 30.2827 10.1247 30.3004 10.2009C30.3181 10.2772 30.3508 10.3491 30.3965 10.4127C30.4422 10.4762 30.5001 10.53 30.5668 10.5709C30.6335 10.6119 30.7077 10.6391 30.785 10.6512C30.8624 10.6632 30.9413 10.6598 31.0173 10.641C31.0933 10.6223 31.1648 10.5886 31.2277 10.542C32.0801 9.92864 33.0296 9.24542 33.4367 8.27695L34.1638 8.37045C34.3093 9.40981 35.057 10.3094 35.9023 11.3272C37.1043 12.7736 38.4678 14.4132 38.7685 17.0522C38.966 18.7822 38.6443 21.1556 37.1482 22.6298C35.9452 23.816 34.1439 24.2646 31.7914 23.9621C29.439 23.6597 27.8082 22.7709 26.9447 21.3194C25.8713 19.5154 26.1599 17.1376 26.7881 15.5133C27.3117 14.1685 28.1628 12.9757 29.2641 12.0431C29.3787 11.9388 29.4476 11.7937 29.4562 11.639C29.4647 11.4843 29.4122 11.3324 29.3098 11.2161C29.2075 11.0998 29.0635 11.0283 28.909 11.0172C28.7544 11.006 28.6017 11.056 28.4837 11.1564C27.9653 11.6098 27.4906 12.1109 27.0659 12.6531C27.0423 12.6186 27.0149 12.5869 26.9842 12.5586C25.9039 11.5376 24.5681 10.8269 23.1178 10.5015C23.4601 9.42102 23.9484 8.3924 24.5693 7.44418C24.6588 7.31558 24.6936 7.15667 24.666 7.00243C24.6383 6.84819 24.5506 6.71124 24.4219 6.62171C24.2933 6.53218 24.1344 6.49741 23.9802 6.52504C23.8259 6.55268 23.689 6.64045 23.5995 6.76906C22.8803 7.86608 22.32 9.05939 21.9353 10.3135C20.8302 10.2189 19.7174 10.3439 18.6609 10.6814C19.0465 9.76674 19.0701 8.7397 18.7268 7.80832C18.3835 6.87695 17.6991 6.11086 16.8121 5.66523C16.666 4.88476 16.2854 4.16741 15.721 3.60895C15.1565 3.05049 14.4352 2.67749 13.6532 2.53973C13.3425 1.82646 12.841 1.21269 12.2041 0.765905C11.5671 0.319121 10.8193 0.0566303 10.0429 0.00729499C9.26642 -0.0420403 8.4914 0.123691 7.80302 0.486264C7.11465 0.848838 6.53959 1.39421 6.14107 2.06242C5.34802 2.10011 4.58534 2.37882 3.95486 2.86135C3.32437 3.34388 2.85609 4.00726 2.61253 4.76292C2.03512 4.966 1.51341 5.3017 1.08931 5.74305C0.665218 6.18439 0.350571 6.71907 0.170659 7.30411C-0.00925215 7.88915 -0.0494112 8.50824 0.0534098 9.11162C0.156231 9.71501 0.399164 10.2859 0.762686 10.7783C0.577733 11.3797 0.529439 12.0148 0.621331 12.6372C0.713223 13.2596 0.942982 13.8536 1.29383 14.3759C1.64467 14.8982 2.10774 15.3355 2.64921 15.6559C3.19069 15.9763 3.79689 16.1717 4.42355 16.2279C5.00251 17.1213 5.3702 18.1349 5.49869 19.1917C5.51735 19.3336 5.58692 19.4639 5.69447 19.5584C5.80202 19.6528 5.94022 19.705 6.08335 19.7051C6.10943 19.7053 6.13549 19.7036 6.16133 19.7001C6.31665 19.6796 6.45751 19.5984 6.55291 19.4741C6.64831 19.3498 6.69044 19.1928 6.67003 19.0374C6.54497 18.0242 6.23295 17.0429 5.74984 16.1435C6.1185 16.0595 6.47405 15.9259 6.80674 15.7462C6.83746 15.7681 6.86953 15.7877 6.90059 15.8086C7.56951 17.2024 7.90951 18.7311 7.89437 20.277C7.89172 20.429 7.94778 20.5762 8.05088 20.688C8.15399 20.7998 8.29621 20.8675 8.44797 20.8771H8.48578C8.63111 20.877 8.77129 20.8233 8.87947 20.7263C8.98766 20.6292 9.05626 20.4957 9.07213 20.3512C9.23763 18.9441 9.6977 17.5875 10.4224 16.37C10.7126 16.2867 10.9929 16.1722 11.2585 16.0287C11.4404 16.1583 11.6323 16.2732 11.8324 16.3724C10.7859 17.7564 10.2279 19.4172 10.0933 21.5401L9.95823 25.839C9.29759 25.589 8.57345 25.5611 7.89554 25.7596C7.21764 25.9581 6.62291 26.3722 6.2015 26.9391L6.44555 24.3598C6.45399 24.282 6.4469 24.2033 6.42468 24.1283C6.40245 24.0533 6.36555 23.9834 6.31611 23.9228C6.26667 23.8621 6.20568 23.8119 6.13667 23.7751C6.06767 23.7382 5.99203 23.7154 5.91414 23.708C5.83625 23.7006 5.75766 23.7087 5.68295 23.7319C5.60823 23.7552 5.53888 23.793 5.4789 23.8432C5.41893 23.8935 5.36953 23.9551 5.33358 24.0246C5.29763 24.0941 5.27584 24.1701 5.26948 24.2481L4.91032 28.025C4.89835 28.1357 4.91885 28.2475 4.96932 28.3468C5.01979 28.4461 5.09804 28.5285 5.19455 28.584C5.10678 28.7501 5.01834 28.9165 4.93935 29.0809C4.57979 28.8304 4.2736 28.5109 4.03856 28.141C3.80352 27.7711 3.64431 27.3582 3.57019 26.9263C3.53132 26.7764 3.43512 26.6478 3.30234 26.5682C3.16955 26.4886 3.01081 26.4643 2.86029 26.5006C2.70978 26.5369 2.57955 26.6309 2.49766 26.7623C2.41577 26.8937 2.38877 27.052 2.42248 27.2031C2.51756 27.6125 2.6556 28.0108 2.83431 28.3913L0.812308 27.571C0.667274 27.5119 0.504708 27.5129 0.360372 27.5737C0.216036 27.6344 0.101753 27.75 0.0426654 27.8951C-0.0164225 28.0401 -0.0154759 28.2027 0.0452971 28.347C0.10607 28.4914 0.221692 28.6056 0.366726 28.6647L2.38197 29.4816C1.9933 29.632 1.62114 29.8221 1.27139 30.0487C1.2051 30.0896 1.14757 30.1433 1.10211 30.2065C1.05665 30.2698 1.02416 30.3414 1.00652 30.4173C0.988876 30.4931 0.986431 30.5717 0.999324 30.6486C1.01222 30.7254 1.04019 30.7989 1.08163 30.8648C1.12308 30.9308 1.17717 30.9879 1.24079 31.0328C1.30441 31.0778 1.3763 31.1097 1.45231 31.1267C1.52832 31.1437 1.60695 31.1455 1.68366 31.132C1.76037 31.1185 1.83365 31.0899 1.89926 31.0479C2.253 30.7895 2.65466 30.6041 3.08081 30.5025C3.50695 30.4009 3.94907 30.3851 4.38136 30.4562C4.13298 31.2034 3.94215 31.9685 3.81054 32.7448C3.68507 33.4795 3.81562 34.235 4.18035 34.8849C4.54508 35.5349 5.12188 36.0399 5.81431 36.3156C6.15736 36.4548 6.51378 36.5584 6.87797 36.6248L7.87884 36.8074H7.88188L16.4762 38.375H16.4786L25.2238 39.9704C25.6234 40.0429 26.0357 39.9756 26.3915 39.7798C26.7473 39.5841 27.0248 39.2718 27.1774 38.8954C27.33 38.5191 27.3483 38.1017 27.2293 37.7135C27.1104 37.3252 26.8613 36.9898 26.5241 36.7635ZM20.7174 24.0165C19.9159 23.9442 19.1365 23.7146 18.4239 23.3409C17.7112 22.9672 17.0791 22.4567 16.5639 21.8385C16.0486 21.2204 15.6603 20.5068 15.421 19.7384C15.1818 18.9701 15.0963 18.1621 15.1695 17.3608C15.1988 17.0704 15.2477 16.7824 15.316 16.4986C15.9855 16.2254 16.5736 15.7851 17.0243 15.2197C17.4749 14.6542 17.773 13.9827 17.8899 13.2692C18.165 13.3334 18.4449 13.3749 18.7268 13.3934C18.8342 14.112 19.1248 14.7909 19.5707 15.3648C19.632 15.4421 19.7117 15.503 19.8024 15.5418C19.8932 15.5807 19.9922 15.5964 20.0905 15.5875C20.8039 15.4774 21.4617 15.1372 21.964 14.6187C22.2219 15.0046 22.5552 15.3342 22.9439 15.5877C23.3326 15.8412 23.7686 16.0134 24.2256 16.0939C24.2601 16.1006 24.2952 16.104 24.3303 16.104C24.4378 16.104 24.5432 16.0747 24.6353 16.0194C24.7275 15.9642 24.8029 15.8849 24.8535 15.7901C25.1045 15.2573 25.2303 14.6742 25.2215 14.0854C25.4782 14.101 25.7357 14.0736 25.9833 14.0044C26.0255 14.055 26.0657 14.1056 26.1059 14.1583C25.9504 14.4608 25.8105 14.7711 25.687 15.088C24.9598 16.9665 24.6405 19.7416 25.9209 21.9067C25.2866 22.6502 24.4826 23.2301 23.5769 23.5973C22.6712 23.9645 21.6904 24.1083 20.7174 24.0165ZM21.8762 11.4929C23.21 11.6073 24.4848 12.0938 25.5556 12.8972C25.3055 12.9377 25.0489 12.8975 24.8231 12.7824C24.7224 12.7263 24.6075 12.7009 24.4925 12.7091C24.3775 12.7174 24.2674 12.759 24.1757 12.8288C24.084 12.8987 24.0147 12.9938 23.9762 13.1024C23.9377 13.2111 23.9317 13.3286 23.959 13.4406C24.0667 13.8854 24.0667 14.3495 23.959 14.7943C23.6614 14.6639 23.3931 14.4751 23.1699 14.2391C22.9466 14.0031 22.773 13.7247 22.6594 13.4204C22.6266 13.3165 22.5658 13.2237 22.4836 13.1522C22.4014 13.0807 22.301 13.0333 22.1935 13.0153C22.1613 13.0086 22.1285 13.0052 22.0956 13.0052C22.0031 13.0055 21.912 13.0273 21.8294 13.0689C21.7468 13.1105 21.675 13.1707 21.6197 13.2449C21.2745 13.7098 20.8216 14.084 20.2998 14.3352C20.0703 13.9537 19.8036 13.363 19.9285 12.9343C19.9568 12.8362 19.9593 12.7323 19.9356 12.633C19.912 12.5336 19.863 12.442 19.7935 12.3672C19.7245 12.2922 19.6371 12.2366 19.54 12.2058C19.4429 12.175 19.3394 12.1701 19.2399 12.1917C18.8868 12.2368 18.5283 12.2151 18.1833 12.1275C19.3372 11.5955 20.6109 11.3767 21.8762 11.4929ZM8.68056 17.2156C8.60629 16.9456 8.52393 16.6941 8.4392 16.4517C8.62182 16.4881 8.80664 16.5123 8.99246 16.5243H8.99719C8.88984 16.742 8.78284 16.9692 8.68056 17.2156ZM11.3041 14.7197C11.1858 14.7193 11.0702 14.7546 10.9723 14.8209C10.6531 15.0381 10.2956 15.1926 9.91874 15.2763L9.89578 15.2814C9.14484 15.4447 8.35988 15.3147 7.70162 14.9182C7.69589 14.9141 7.68947 14.9114 7.68339 14.9077C7.52798 14.8128 7.38115 14.7044 7.24456 14.584C7.14625 14.497 7.02175 14.4452 6.89074 14.4369C6.75973 14.4286 6.62969 14.4642 6.52117 14.5381C5.98117 14.906 5.33722 15.0906 4.68431 15.0647C4.0314 15.0388 3.4041 14.8037 2.89497 14.3941C2.38584 13.9845 2.02183 13.4222 1.85665 12.79C1.69147 12.1578 1.73386 11.4892 1.97757 10.8829C2.0186 10.7812 2.03048 10.6701 2.01188 10.562C1.99328 10.4539 1.94493 10.3531 1.87225 10.2709C1.56058 9.92041 1.3444 9.49555 1.24454 9.03725C1.14467 8.57895 1.16449 8.10266 1.30208 7.65425C1.43967 7.20583 1.6904 6.8004 2.03012 6.47698C2.36984 6.15356 2.78711 5.92306 3.24175 5.80768C3.3474 5.78086 3.44356 5.72532 3.51959 5.64721C3.59561 5.5691 3.64853 5.47147 3.67248 5.36513C3.81124 4.73833 4.16781 4.18105 4.67878 3.79239C5.18975 3.40374 5.822 3.20891 6.46311 3.24254C6.5793 3.24972 6.69496 3.22175 6.79503 3.16226C6.89509 3.10277 6.97493 3.01453 7.02414 2.90903C7.28723 2.36165 7.70778 1.9053 8.2319 1.59848C8.75602 1.29166 9.35982 1.14834 9.96592 1.18689C10.572 1.22544 11.1528 1.4441 11.6338 1.81486C12.1148 2.18561 12.4742 2.69156 12.6658 3.26786C12.7027 3.37786 12.7711 3.47459 12.8625 3.54601C12.9539 3.61744 13.0643 3.6604 13.1799 3.66956C13.82 3.71896 14.422 3.99281 14.8798 4.44278C15.3376 4.89276 15.6218 5.48996 15.6823 6.12904C15.6927 6.23747 15.733 6.3409 15.7985 6.42792C15.864 6.51494 15.9523 6.58218 16.0536 6.62222C16.49 6.79411 16.8749 7.07548 17.171 7.43924C17.4672 7.80299 17.6647 8.23688 17.7445 8.6991C17.8244 9.16133 17.7838 9.63633 17.6269 10.0784C17.4699 10.5204 17.2017 10.9145 16.8482 11.2229C16.7655 11.295 16.7045 11.3888 16.6721 11.4937C16.6397 11.5985 16.6371 11.7104 16.6646 11.8166C16.8617 12.5724 16.761 13.375 16.3834 14.0587C16.0058 14.7424 15.3801 15.255 14.6355 15.4907L14.6301 15.4924C14.1288 15.6513 13.5948 15.6774 13.0803 15.568C12.5659 15.4587 12.0887 15.2176 11.6953 14.8685C11.5875 14.7727 11.4483 14.7198 11.3041 14.7197ZM26.0839 38.4527C26.0331 38.5774 25.941 38.6808 25.823 38.7456C25.705 38.8105 25.5683 38.8328 25.4358 38.8088L17.4089 37.3448L17.659 36.7277C17.6898 36.6556 17.7058 36.578 17.7063 36.4996C17.7067 36.4211 17.6915 36.3434 17.6616 36.2709C17.6317 36.1984 17.5876 36.1325 17.532 36.0772C17.4763 36.0219 17.4102 35.9783 17.3375 35.9488C17.2648 35.9193 17.187 35.9046 17.1086 35.9056C17.0301 35.9065 16.9527 35.923 16.8807 35.9542C16.8087 35.9854 16.7437 36.0306 16.6894 36.0872C16.635 36.1438 16.5925 36.2107 16.5643 36.2838L16.222 37.1278L8.81187 35.7775L9.34893 34.4526C9.40362 34.3082 9.39964 34.1482 9.33786 34.0068C9.27608 33.8654 9.1614 33.7537 9.01835 33.6958C8.87531 33.6378 8.71526 33.6381 8.57245 33.6967C8.42964 33.7552 8.31542 33.8673 8.25421 34.009L7.625 35.5618L7.08996 35.4642C6.80506 35.4122 6.52624 35.3311 6.25787 35.2222C5.81813 35.0425 5.45208 34.7194 5.2192 34.3054C4.98633 33.8914 4.90031 33.4107 4.97513 32.9416C5.26818 31.0582 5.9938 29.2683 7.09502 27.7125C7.28911 27.435 7.54744 27.2085 7.84798 27.0525C8.14852 26.8964 8.48234 26.8154 8.82098 26.8162C8.9045 26.817 8.98791 26.8226 9.07078 26.8331L7.88323 29.7618C7.82441 29.907 7.82569 30.0696 7.88678 30.2139C7.94787 30.3582 8.06377 30.4723 8.20898 30.5311C8.35419 30.5899 8.51682 30.5887 8.6611 30.5276C8.80537 30.4665 8.91947 30.3506 8.97828 30.2054L10.1733 27.2574C10.2387 27.2962 10.3059 27.332 10.3687 27.3742L15.6222 30.8883L15.1712 32.0022C15.1405 32.0744 15.1244 32.1519 15.124 32.2304C15.1235 32.3088 15.1387 32.3866 15.1686 32.4591C15.1986 32.5316 15.2426 32.5974 15.2983 32.6527C15.3539 32.708 15.42 32.7517 15.4927 32.7811C15.5654 32.8106 15.6432 32.8253 15.7217 32.8244C15.8001 32.8235 15.8776 32.8069 15.9496 32.7757C16.0215 32.7445 16.0866 32.6993 16.1409 32.6427C16.1952 32.5861 16.2377 32.5193 16.2659 32.4461L16.6237 31.5593L20.5597 34.1923L19.9656 35.6597C19.9067 35.8049 19.908 35.9676 19.969 36.1119C20.0301 36.2562 20.146 36.3703 20.2912 36.4292C20.4364 36.488 20.5991 36.4868 20.7434 36.4257C20.8877 36.3647 21.0018 36.2488 21.0607 36.1036L21.5626 34.8647L25.8662 37.7452C25.978 37.8204 26.0606 37.9317 26.1002 38.0604C26.1398 38.1892 26.1341 38.3276 26.0839 38.4527Z" fill="#1B1E40"/>
<path d="M13.1388 30.9495C12.9939 30.8907 12.8316 30.8919 12.6875 30.9528C12.5434 31.0137 12.4294 31.1293 12.3706 31.2742L11.8737 32.4995C11.8429 32.5717 11.8269 32.6493 11.8264 32.7277C11.826 32.8062 11.8412 32.8839 11.8711 32.9564C11.901 33.0289 11.9451 33.0947 12.0007 33.15C12.0564 33.2053 12.1225 33.249 12.1952 33.2785C12.2679 33.3079 12.3457 33.3227 12.4241 33.3217C12.5026 33.3208 12.58 33.3043 12.652 33.2731C12.724 33.2419 12.789 33.1967 12.8434 33.1401C12.8977 33.0835 12.9402 33.0166 12.9684 32.9434L13.4653 31.7181C13.4943 31.6462 13.5089 31.5693 13.5082 31.4917C13.5075 31.4142 13.4916 31.3375 13.4613 31.2661C13.431 31.1948 13.3869 31.1301 13.3316 31.0757C13.2762 31.0214 13.2108 30.9785 13.1388 30.9495Z" fill="#1B1E40"/>
</svg>
