<svg width="52" height="63" viewBox="0 0 52 63" fill="none" xmlns="http://www.w3.org/2000/svg">
    <path d="M51 25.7984C51 45.086 26 61.6183 26 61.6183C26 61.6183 1 45.086 1 25.7984C1 19.2214 3.63392 12.9139 8.32233 8.26328C13.0107 3.61268 19.3696 1 26 1C32.6304 1 38.9893 3.61268 43.6777 8.26328C48.3661 12.9139 51 19.2214 51 25.7984Z"
          fill="#199057" stroke="#199057" stroke-width="2" stroke-linecap="round" stroke-linejoin="round"/>
    <path d="M26 12L14 18.9333V36H22L25.8667 32L30 36H38V18.9333L26 12ZM20.5333 34.6667V26.6667L24.5333 30.6667L20.5333 34.6667ZM21.8667 25.3333H29.8667L25.8667 29.3333L21.8667 25.3333ZM31.2 34.6667L27.2 30.6667L31.2 26.6667V34.6667ZM30 22.6667H21.7333V20H30V22.6667Z"
          fill="white"/>
</svg>
