<svg width="33" height="32" viewBox="0 0 33 32" fill="none" xmlns="http://www.w3.org/2000/svg">
<circle cx="18" cy="17.2" r="14.8" fill="#C4D472"/>
<path d="M30.9232 18.4805C31.4284 17.7676 32 16.9596 32 16C32 15.0404 31.4284 14.2324 30.9232 13.5195C30.5924 13.0514 30.2786 12.6093 30.1706 12.2031C30.0534 11.7675 30.1041 11.2096 30.1562 10.6191C30.237 9.72325 30.3203 8.79681 29.8581 7.99794C29.388 7.18675 28.4987 6.77656 27.7135 6.41525C27.1822 6.16981 26.6809 5.93869 26.3711 5.62944C26.0612 5.31956 25.8294 4.81756 25.5846 4.28569C25.2227 3.50131 24.8125 2.61131 24.0026 2.14256C23.2044 1.681 22.2787 1.76363 21.3803 1.84306C20.7891 1.89644 20.2318 1.94525 19.7969 1.83006C19.3907 1.72131 18.9492 1.40819 18.4805 1.07681C17.7682 0.57225 16.9596 0 16 0C15.0404 0 14.2317 0.57225 13.5195 1.07681C13.0507 1.40819 12.6093 1.72137 12.2031 1.83006C11.7669 1.94662 11.2096 1.89581 10.6198 1.84306C9.72519 1.76431 8.79681 1.67963 7.99862 2.14188C7.18744 2.61063 6.77725 3.50062 6.41531 4.28512C6.1705 4.817 5.93875 5.31962 5.62887 5.62887C5.319 5.93812 4.81769 6.16987 4.28512 6.41531C3.50125 6.77662 2.61194 7.18681 2.14188 7.998C1.67963 8.79619 1.76294 9.72325 1.84369 10.6191C1.89575 11.2096 1.94656 11.7676 1.82938 12.2024C1.72131 12.6093 1.4075 13.0514 1.07675 13.5195C0.571625 14.2324 0 15.0404 0 16C0 16.9596 0.571625 17.7676 1.07681 18.4805C1.40756 18.9486 1.72137 19.3907 1.82944 19.7969C1.94662 20.2325 1.89587 20.7904 1.84375 21.3809C1.763 22.2768 1.67969 23.2032 2.14194 24.0021C2.612 24.8132 3.50131 25.2234 4.2865 25.5847C4.81775 25.8302 5.31906 26.0613 5.62894 26.3706C5.93881 26.6804 6.17063 27.1824 6.41538 27.7143C6.77738 28.4988 7.1875 29.3888 7.99744 29.8576C8.79562 30.3191 9.72138 30.2371 10.6198 30.1571C11.2109 30.1037 11.7682 30.0542 12.2031 30.1701C12.6094 30.2788 13.0508 30.5919 13.5196 30.9233C14.2318 31.4278 15.0404 32 16 32C16.9596 32 17.7682 31.4277 18.4805 30.9232C18.9492 30.5918 19.3907 30.2786 19.7969 30.1699C20.2331 30.0534 20.7904 30.1042 21.3803 30.1569C22.2774 30.2377 23.2045 30.321 24.0014 29.8581C24.8126 29.3894 25.2228 28.4994 25.5847 27.7149C25.8295 27.183 26.0612 26.6804 26.3711 26.3711C26.681 26.0619 27.1823 25.8301 27.7149 25.5847C28.4987 25.2234 29.3881 24.8132 29.8581 24.002C30.3204 23.2038 30.2371 22.2767 30.1563 21.3809C30.1042 20.7904 30.0534 20.2324 30.1706 19.7976C30.2786 19.3906 30.5924 18.9486 30.9232 18.4805ZM29.8346 17.7096C29.4505 18.2533 29.0521 18.8158 28.8815 19.4531C28.7044 20.1166 28.7682 20.8197 28.8281 21.5C28.8932 22.2207 28.9544 22.9017 28.7044 23.3346C28.4466 23.7793 27.8203 24.0684 27.1562 24.3743C26.5417 24.6575 25.9062 24.9505 25.4284 25.4284C24.9505 25.9062 24.6576 26.5417 24.3737 27.1569C24.0677 27.8203 23.7786 28.4466 23.3333 28.7044C22.9036 28.9537 22.2213 28.8951 21.4987 28.8288C20.8216 28.7676 20.1159 28.7038 19.4531 28.8821C18.8151 29.0527 18.2539 29.4505 17.7096 29.8353C17.1068 30.263 16.5351 30.6666 16 30.6666C15.4649 30.6666 14.8932 30.263 14.2904 29.8353C13.7461 29.4505 13.1849 29.0527 12.5469 28.8821C12.2214 28.7949 11.8867 28.7663 11.5507 28.7663C11.2005 28.7663 10.8476 28.7975 10.4999 28.8288C9.77725 28.8919 9.09631 28.9538 8.66531 28.7038C8.22131 28.4459 7.93225 27.8196 7.62625 27.1562C7.34237 26.541 7.04944 25.9056 6.57156 25.4277C6.09375 24.9499 5.45831 24.6569 4.84375 24.3744C4.181 24.0684 3.55338 23.7793 3.29556 23.3347C3.04556 22.9011 3.10675 22.2208 3.17188 21.5001C3.23175 20.8197 3.29556 20.1166 3.1185 19.4526C2.94794 18.8158 2.5495 18.2533 2.16537 17.7097C1.737 17.1062 1.33331 16.5353 1.33331 16.0001C1.33331 15.465 1.73694 14.894 2.16537 14.2905C2.5495 13.7469 2.94794 13.1844 3.1185 12.547C3.29556 11.8836 3.23181 11.1804 3.17188 10.5001C3.10675 9.77944 3.04556 9.09844 3.29556 8.6655C3.55338 8.22081 4.17969 7.93175 4.84375 7.62581C5.45831 7.34263 6.09375 7.04963 6.57163 6.57175C7.0495 6.09387 7.34244 5.45844 7.62631 4.84325C7.93231 4.17981 8.22138 3.55356 8.66669 3.29575C9.09769 3.04575 9.77737 3.105 10.5013 3.17138C11.1797 3.23256 11.8841 3.29638 12.5469 3.118C13.1849 2.94744 13.7461 2.54962 14.2904 2.16488C14.8932 1.73713 15.4649 1.3335 16 1.3335C16.5351 1.3335 17.1068 1.73713 17.7096 2.16488C18.2539 2.54962 18.8151 2.94744 19.4531 3.118C20.1172 3.29575 20.819 3.23256 21.5 3.17138C22.2214 3.10563 22.9024 3.04638 23.3346 3.29638C23.7786 3.55419 24.0677 4.1805 24.3737 4.84387C24.6576 5.45913 24.9505 6.0945 25.4284 6.57237C25.9062 7.05025 26.5417 7.34319 27.1562 7.62575C27.819 7.93175 28.4466 8.22081 28.7044 8.66544C28.9544 9.09906 28.8932 9.77938 28.8281 10.5001C28.7682 11.1804 28.7044 11.8835 28.8815 12.5476C29.0521 13.1843 29.4505 13.7468 29.8346 14.2904C30.263 14.8939 30.6667 15.4649 30.6667 16C30.6667 16.5351 30.263 17.1061 29.8346 17.7096Z" fill="#444444"/>
<path d="M15.8189 19.0788C16.0109 19.4114 16.1076 19.7389 16.109 20.0614C16.1065 20.377 16.0279 20.681 15.8735 20.9734C15.719 21.2658 15.5009 21.5441 15.2193 21.8083C14.9406 22.0616 14.6211 22.2922 14.2608 22.5002L10.6339 24.5942L6.37393 17.2157L10.6556 14.7437C10.9119 14.5957 11.176 14.5171 11.4478 14.508C11.7197 14.4988 11.9804 14.5423 12.2299 14.6385C12.4753 14.7277 12.7022 14.8646 12.9104 15.0492C13.1215 15.2229 13.2951 15.4275 13.4311 15.6631C13.6311 16.0095 13.733 16.3941 13.7369 16.8168C13.7437 17.2285 13.6164 17.6161 13.3551 17.9794C13.8497 17.8602 14.3083 17.8864 14.7308 18.0582C15.1562 18.219 15.5189 18.5592 15.8189 19.0788ZM13.5212 19.8511C13.4172 19.671 13.2827 19.5501 13.1177 19.4883C12.9487 19.4196 12.788 19.4292 12.6356 19.5172L10.9624 20.4832L11.6764 21.7199L13.2768 20.7959C13.4431 20.6999 13.5517 20.5679 13.6025 20.4C13.6603 20.2281 13.6332 20.0451 13.5212 19.8511ZM9.39643 17.7708L10.0504 18.9036L11.4326 18.1056C11.5712 18.0256 11.6739 17.9155 11.7407 17.7753C11.8145 17.6311 11.7854 17.4446 11.6534 17.216C11.5374 17.0151 11.4069 16.9011 11.2619 16.8739C11.1129 16.8399 10.9726 16.8608 10.841 16.9368L9.39643 17.7708ZM17.8091 20.4517L13.5491 13.0731L15.5756 11.9031L19.8356 19.2817L17.8091 20.4517ZM24.469 16.6897C23.9078 17.0137 23.3366 17.2003 22.7553 17.2496C22.174 17.2988 21.6206 17.2442 21.095 17.0858C20.5653 16.9204 20.0805 16.6646 19.6403 16.3183C19.2002 15.9719 18.8421 15.5598 18.5661 15.0817C18.2861 14.5967 18.1097 14.0751 18.0367 13.5167C17.9638 12.9584 17.9956 12.4135 18.1321 11.882C18.2716 11.3396 18.512 10.8359 18.8533 10.371C19.1974 9.89518 19.6432 9.49926 20.1905 9.18326C20.7517 8.85926 21.3229 8.67265 21.9042 8.62342C22.4855 8.5742 23.0409 8.63225 23.5705 8.79759C24.1002 8.96293 24.5816 9.22077 25.0148 9.5711C25.4549 9.91743 25.811 10.3262 26.083 10.7973C26.363 11.2822 26.5394 11.8039 26.6124 12.3622C26.6813 12.9136 26.6495 13.4585 26.517 13.997C26.3804 14.5284 26.14 15.0321 25.7958 15.508C25.4586 15.9798 25.0163 16.3737 24.469 16.6897ZM20.6358 13.9145C20.7798 14.1639 20.9544 14.3864 21.1597 14.582C21.361 14.7706 21.5829 14.915 21.8255 15.0151C22.0681 15.1152 22.3253 15.1607 22.5971 15.1516C22.8759 15.1384 23.1608 15.0479 23.4517 14.8799C23.7427 14.7119 23.9636 14.5104 24.1144 14.2756C24.2612 14.0338 24.3484 13.7848 24.376 13.5287C24.4066 13.2616 24.385 12.9923 24.3114 12.7208C24.2447 12.4452 24.1413 12.1862 24.0013 11.9437C23.8573 11.6943 23.6847 11.4753 23.4834 11.2866C23.2781 11.0911 23.0527 10.9487 22.8072 10.8595C22.5647 10.7594 22.306 10.7193 22.0312 10.7394C21.7594 10.7486 21.4814 10.8351 21.1974 10.9991C20.9064 11.1671 20.6855 11.3686 20.5347 11.6034C20.3909 11.8343 20.3037 12.0832 20.2731 12.3503C20.2385 12.6104 20.2546 12.8783 20.3213 13.1538C20.391 13.4184 20.4958 13.672 20.6358 13.9145Z" fill="#444444"/>
</svg>
